<?xml version="1.0" encoding="UTF-8"?>
<svg width="183px" height="21px" viewBox="0 0 183 21" version="1.1" xmlns="http://www.w3.org/2000/svg" xmlns:xlink="http://www.w3.org/1999/xlink">
    <title>#DialogueInSpace</title>
    <g id="Page-1" stroke="none" stroke-width="1" fill="none" fill-rule="evenodd">
        <g id="主页" transform="translate(-641.000000, -23.000000)" fill="#FFFFFF" fill-rule="nonzero">
            <path d="M646.119141,39 L646.519531,36.0800781 L649.400391,36.0800781 L648.980469,39 L651.773438,39 L652.173828,36.0800781 L654.078125,36.0800781 L654.400391,33.4628906 L652.535156,33.4628906 L652.896484,30.8164063 L654.78125,30.8164063 L655.162109,28.1992188 L653.257812,28.1992188 L653.658203,25.2792969 L650.875,25.2792969 L650.474609,28.1992188 L647.59375,28.1992188 L647.994141,25.2792969 L645.220703,25.2792969 L644.800781,28.1992188 L642.935547,28.1992188 L642.574219,30.8164063 L644.458984,30.8164063 L644.097656,33.4628906 L642.193359,33.4628906 L641.841797,36.0800781 L643.716797,36.0800781 L643.316406,39 L646.119141,39 Z M649.761719,33.4628906 L646.880859,33.4628906 L647.232422,30.8164063 L650.09375,30.8164063 L649.761719,33.4628906 Z M661.519531,39 C666.539062,39 669.996094,36.1972656 669.996094,31.4609375 C669.996094,26.7636719 666.519531,24 661.519531,24 L657.398438,24 L657.398438,39 L661.519531,39 Z M661.519531,36.1972656 L660.416016,36.1972656 L660.416016,26.8027344 L661.519531,26.8027344 C664.976562,26.8027344 666.998047,28.3359375 666.998047,31.4609375 C666.998047,34.5761719 664.976562,36.1972656 661.519531,36.1972656 Z M673.238281,28.1992188 C674.097656,28.1992188 674.732422,27.5644531 674.732422,26.6953125 C674.732422,25.8359375 674.097656,25.1816406 673.238281,25.1816406 C672.359375,25.1816406 671.714844,25.8359375 671.714844,26.6953125 C671.714844,27.5644531 672.359375,28.1992188 673.238281,28.1992188 Z M674.732422,39 L674.732422,29.5957031 L671.734375,29.5957031 L671.734375,39 L674.732422,39 Z M681.089844,39.1953125 C682.291016,39.1953125 683.335938,38.7753906 684.126953,38.0625 L684.273438,39 L687.076172,39 L687.076172,29.5957031 L684.068359,29.5957031 L684.068359,30.484375 C683.287109,29.8007813 682.251953,29.4003906 681.089844,29.4003906 C678.375,29.4003906 676.431641,31.5976563 676.431641,34.3027344 C676.431641,36.9980469 678.375,39.1953125 681.089844,39.1953125 Z M681.734375,36.6367188 C680.435547,36.6367188 679.390625,35.6015625 679.390625,34.3027344 C679.390625,33.0039063 680.435547,31.9589844 681.734375,31.9589844 C683.033203,31.9589844 684.068359,33.0039063 684.068359,34.3027344 C684.068359,35.6015625 683.033203,36.6367188 681.734375,36.6367188 Z M692.632812,39 L692.632812,24 L689.634766,24 L689.634766,39 L692.632812,39 Z M699.576172,39.1953125 C702.671875,39.1953125 704.869141,36.9980469 704.869141,34.3027344 C704.869141,31.5976563 702.671875,29.4003906 699.576172,29.4003906 C696.470703,29.4003906 694.273438,31.5976563 694.273438,34.3027344 C694.273438,36.9980469 696.470703,39.1953125 699.576172,39.1953125 Z M699.576172,36.6367188 C698.267578,36.6367188 697.232422,35.6015625 697.232422,34.3027344 C697.232422,33.0039063 698.267578,31.9589844 699.576172,31.9589844 C700.875,31.9589844 701.910156,33.0039063 701.910156,34.3027344 C701.910156,35.6015625 700.875,36.6367188 699.576172,36.6367188 Z M710.591797,43.8828125 C713.6875,43.8828125 716.294922,42.0175781 716.294922,38.7363281 L716.294922,29.5957031 L713.287109,29.5957031 L713.287109,30.4746094 C712.496094,29.8007813 711.480469,29.4003906 710.308594,29.4003906 C707.59375,29.4003906 705.650391,31.5976563 705.650391,34.3027344 C705.650391,36.9980469 707.59375,39.1953125 710.308594,39.1953125 C711.480469,39.1953125 712.496094,38.7949219 713.287109,38.1210938 L713.287109,38.9414063 C713.287109,40.484375 712.212891,41.3632813 710.728516,41.3632813 C709.673828,41.3632813 708.589844,40.9042969 707.974609,40.015625 L705.728516,41.5976563 C706.773438,43.1796875 708.765625,43.8828125 710.591797,43.8828125 Z M710.953125,36.6367188 C709.654297,36.6367188 708.609375,35.6015625 708.609375,34.3027344 C708.609375,33.0039063 709.654297,31.9589844 710.953125,31.9589844 C712.251953,31.9589844 713.287109,33.0039063 713.287109,34.3027344 C713.287109,35.6015625 712.251953,36.6367188 710.953125,36.6367188 Z M723.013672,39.1953125 C725.738281,39.1953125 727.515625,37.6035156 727.515625,34.8984375 L727.515625,29.5957031 L724.517578,29.5957031 L724.517578,34.78125 C724.517578,35.8164063 724.058594,36.6757813 723.013672,36.6757813 C721.978516,36.6757813 721.509766,35.8164063 721.509766,34.78125 L721.509766,29.5957031 L718.511719,29.5957031 L718.511719,34.8984375 C718.511719,37.6035156 720.298828,39.1953125 723.013672,39.1953125 Z M734.15625,39.1953125 C735.816406,39.1953125 737.291016,38.3847656 738.228516,37.0175781 L736.216797,35.5039063 C735.630859,36.2558594 734.957031,36.5976563 734.15625,36.5976563 C732.847656,36.5976563 731.958984,36.0507813 731.861328,34.703125 L738.648438,34.703125 C738.648438,31.6757813 737.095703,29.4003906 733.755859,29.4003906 C731.050781,29.4003906 728.853516,31.5976563 728.853516,34.3027344 C728.853516,37.4179688 731.148438,39.1953125 734.15625,39.1953125 Z M735.71875,33.0625 L732.037109,33.0625 C732.320312,32.1640625 732.935547,31.6757813 733.912109,31.6757813 C734.771484,31.6757813 735.552734,32.2324219 735.71875,33.0625 Z M748.990234,39 L748.990234,24 L745.992188,24 L745.992188,39 L748.990234,39 Z M754.869141,39 L754.869141,34.3027344 C754.869141,33.0039063 755.767578,31.9199219 756.949219,31.9199219 C758.072266,31.9199219 758.433594,32.6230469 758.433594,33.9023438 L758.433594,39 L761.431641,39 L761.431641,33.9023438 C761.431641,30.9238281 760.347656,29.4003906 757.691406,29.4003906 C756.587891,29.4003906 755.650391,29.859375 754.869141,30.6015625 L754.869141,29.5957031 L751.871094,29.5957031 L751.871094,39 L754.869141,39 Z M773.560547,39.1953125 C776.314453,39.1953125 778.755859,37.7792969 778.755859,34.78125 C778.755859,32.1445313 776.841797,31.1972656 774.917969,30.4355469 C773.316406,29.8007813 771.773438,29.3808594 771.773438,28.1015625 C771.773438,27.0761719 772.740234,26.5195313 773.677734,26.5195313 C774.673828,26.5195313 775.474609,27.1445313 775.816406,28.0234375 L778.472656,26.7832031 C777.554688,24.5957031 775.533203,23.8046875 773.697266,23.8046875 C771.080078,23.8046875 768.814453,25.4160156 768.814453,28.1601563 C768.814453,31.1386719 771.5,32.0761719 773.355469,32.7792969 C774.9375,33.3847656 775.757812,33.7558594 775.757812,34.78125 C775.757812,35.8847656 774.820312,36.5195313 773.619141,36.5195313 C772.300781,36.5195313 771.099609,35.7382813 770.757812,34.4394531 L768.121094,35.6796875 C768.794922,37.9160156 770.933594,39.1953125 773.560547,39.1953125 Z M783.492188,44 L783.492188,38.1210938 C784.273438,38.8046875 785.318359,39.1953125 786.470703,39.1953125 C789.195312,39.1953125 791.138672,36.9980469 791.138672,34.3027344 C791.138672,31.5976563 789.195312,29.4003906 786.470703,29.4003906 C785.279297,29.4003906 784.234375,29.8203125 783.433594,30.5429688 L783.296875,29.5957031 L780.494141,29.5957031 L780.494141,44 L783.492188,44 Z M785.835938,36.6367188 C784.537109,36.6367188 783.492188,35.6015625 783.492188,34.3027344 C783.492188,33.0039063 784.537109,31.9589844 785.835938,31.9589844 C787.134766,31.9589844 788.179688,33.0039063 788.179688,34.3027344 C788.179688,35.6015625 787.134766,36.6367188 785.835938,36.6367188 Z M796.636719,39.1953125 C797.837891,39.1953125 798.882812,38.7753906 799.673828,38.0625 L799.820312,39 L802.623047,39 L802.623047,29.5957031 L799.615234,29.5957031 L799.615234,30.484375 C798.833984,29.8007813 797.798828,29.4003906 796.636719,29.4003906 C793.921875,29.4003906 791.978516,31.5976563 791.978516,34.3027344 C791.978516,36.9980469 793.921875,39.1953125 796.636719,39.1953125 Z M797.28125,36.6367188 C795.982422,36.6367188 794.9375,35.6015625 794.9375,34.3027344 C794.9375,33.0039063 795.982422,31.9589844 797.28125,31.9589844 C798.580078,31.9589844 799.615234,33.0039063 799.615234,34.3027344 C799.615234,35.6015625 798.580078,36.6367188 797.28125,36.6367188 Z M809.185547,39.1953125 C810.943359,39.1953125 812.486328,38.2773438 813.345703,36.9003906 L811.099609,35.3378906 C810.71875,36.0410156 810.044922,36.5 809.185547,36.5 C807.964844,36.5 806.978516,35.5234375 806.978516,34.3027344 C806.978516,33.1015625 807.964844,32.1152344 809.185547,32.1152344 C810.044922,32.1152344 810.71875,32.5644531 811.099609,33.2578125 L813.345703,31.7246094 C812.486328,30.2988281 810.943359,29.4003906 809.185547,29.4003906 C806.460938,29.4003906 804.263672,31.5976563 804.263672,34.3027344 C804.263672,37.0175781 806.460938,39.1953125 809.185547,39.1953125 Z M819.166016,39.1953125 C820.826172,39.1953125 822.300781,38.3847656 823.238281,37.0175781 L821.226562,35.5039063 C820.640625,36.2558594 819.966797,36.5976563 819.166016,36.5976563 C817.857422,36.5976563 816.96875,36.0507813 816.871094,34.703125 L823.658203,34.703125 C823.658203,31.6757813 822.105469,29.4003906 818.765625,29.4003906 C816.060547,29.4003906 813.863281,31.5976563 813.863281,34.3027344 C813.863281,37.4179688 816.158203,39.1953125 819.166016,39.1953125 Z M820.728516,33.0625 L817.046875,33.0625 C817.330078,32.1640625 817.945312,31.6757813 818.921875,31.6757813 C819.78125,31.6757813 820.5625,32.2324219 820.728516,33.0625 Z" id="#DialogueInSpace" transform="translate(732.750000, 33.902344) rotate(-360.000000) translate(-732.750000, -33.902344) "></path>
        </g>
    </g>
</svg>