<?xml version="1.0" encoding="UTF-8"?>
<svg width="64px" height="64px" viewBox="0 0 64 64" version="1.1" xmlns="http://www.w3.org/2000/svg" xmlns:xlink="http://www.w3.org/1999/xlink">
    <title>Button-mic</title>
    <g id="Page-1" stroke="none" stroke-width="1" fill="none" fill-rule="evenodd">
        <g id="主页" transform="translate(-435.000000, -163.000000)">
            <g id="Button-mic" transform="translate(435.000000, 163.000000)">
                <circle id="Oval" fill="#FFFFFF" cx="32" cy="32" r="32"></circle>
                <g id="Group" transform="translate(14.000000, 14.000000)" fill="#000000" fill-rule="nonzero">
                    <g id="mic">
                        <path d="M18,21 C20.49,21 22.485,18.99 22.485,16.5 L22.5,7.5 C22.5,5.01 20.49,3 18,3 C15.51,3 13.5,5.01 13.5,7.5 L13.5,16.5 C13.5,18.99 15.51,21 18,21 Z M25.95,16.5 C25.95,21 22.14,24.15 18,24.15 C13.86,24.15 10.05,21 10.05,16.5 L7.5,16.5 C7.5,21.615 11.58,25.845 16.5,26.58 L16.5,31.5 L19.5,31.5 L19.5,26.58 C24.42,25.86 28.5,21.63 28.5,16.5 L25.95,16.5 Z"></path>
                    </g>
                </g>
            </g>
        </g>
    </g>
</svg>