<?xml version="1.0" encoding="UTF-8"?>
<svg width="177px" height="15px" viewBox="0 0 177 15" version="1.1" xmlns="http://www.w3.org/2000/svg" xmlns:xlink="http://www.w3.org/1999/xlink">
    <title>Dialogueinspace|宇宙呼喊计划</title>
    <g id="Page-1" stroke="none" stroke-width="1" fill="none" fill-rule="evenodd">
        <g id="反馈-成功EN" transform="translate(-578.000000, -295.000000)" fill="#000000" fill-rule="nonzero">
            <g id="Feedback-picture" transform="translate(508.000000, 32.000000)">
                <g id="Group" transform="translate(14.887689, 263.000000)">
                    <path d="M57.736311,11 C58.608311,11 59.366311,10.834 60.010311,10.502 C60.654311,10.17 61.152311,9.672 61.504311,9.008 C61.856311,8.344 62.032311,7.516 62.032311,6.524 C62.032311,5.524 61.854311,4.698 61.498311,4.046 C61.142311,3.394 60.636311,2.908 59.980311,2.588 C59.324311,2.268 58.544311,2.108 57.640311,2.108 L57.640311,2.108 L55.204311,2.108 L55.204311,11 L57.736311,11 Z M57.532311,9.572 L56.980311,9.572 L56.980311,3.536 L57.532311,3.536 C58.084311,3.536 58.560311,3.634 58.960311,3.83 C59.360311,4.026 59.670311,4.342 59.890311,4.778 C60.110311,5.214 60.220311,5.796 60.220311,6.524 C60.220311,7.604 59.980311,8.382 59.500311,8.858 C59.020311,9.334 58.364311,9.572 57.532311,9.572 L57.532311,9.572 Z M64.216311,3.2 C64.520311,3.2 64.766311,3.112 64.954311,2.936 C65.142311,2.76 65.236311,2.524 65.236311,2.228 C65.236311,1.94 65.142311,1.708 64.954311,1.532 C64.766311,1.356 64.520311,1.268 64.216311,1.268 C63.912311,1.268 63.664311,1.356 63.472311,1.532 C63.280311,1.708 63.184311,1.94 63.184311,2.228 C63.184311,2.524 63.280311,2.76 63.472311,2.936 C63.664311,3.112 63.912311,3.2 64.216311,3.2 Z M65.092311,11 L65.092311,4.28 L63.328311,4.28 L63.328311,11 L65.092311,11 Z M68.332311,11.168 C68.716311,11.168 69.076311,11.082 69.412311,10.91 C69.748311,10.738 70.064311,10.528 70.360311,10.28 L70.360311,10.28 L70.408311,10.28 L70.528311,11 L71.968311,11 L71.968311,7.076 C71.968311,6.1 71.752311,5.362 71.320311,4.862 C70.888311,4.362 70.244311,4.112 69.388311,4.112 C68.860311,4.112 68.360311,4.198 67.888311,4.37 C67.416311,4.542 66.980311,4.752 66.580311,5 L66.580311,5 L67.216311,6.164 C67.528311,5.98 67.836311,5.828 68.140311,5.708 C68.444311,5.588 68.752311,5.528 69.064311,5.528 C69.480311,5.528 69.772311,5.64 69.940311,5.864 C70.108311,6.088 70.200311,6.364 70.216311,6.692 C68.864311,6.836 67.880311,7.106 67.264311,7.502 C66.648311,7.898 66.340311,8.456 66.340311,9.176 C66.340311,9.552 66.422311,9.892 66.586311,10.196 C66.750311,10.5 66.982311,10.738 67.282311,10.91 C67.582311,11.082 67.932311,11.168 68.332311,11.168 Z M68.908311,9.788 C68.652311,9.788 68.440311,9.728 68.272311,9.608 C68.104311,9.488 68.020311,9.296 68.020311,9.032 C68.020311,8.728 68.180311,8.468 68.500311,8.252 C68.820311,8.036 69.392311,7.876 70.216311,7.772 L70.216311,7.772 L70.216311,9.128 C70.000311,9.336 69.792311,9.498 69.592311,9.614 C69.392311,9.73 69.164311,9.788 68.908311,9.788 Z M75.124311,11.168 C75.332311,11.168 75.510311,11.152 75.658311,11.12 C75.806311,11.088 75.932311,11.052 76.036311,11.012 L76.036311,11.012 L75.820311,9.704 C75.764311,9.712 75.720311,9.718 75.688311,9.722 C75.656311,9.726 75.620311,9.728 75.580311,9.728 C75.500311,9.728 75.422311,9.688 75.346311,9.608 C75.270311,9.528 75.232311,9.388 75.232311,9.188 L75.232311,9.188 L75.232311,1.424 L73.468311,1.424 L73.468311,9.116 C73.468311,9.74 73.592311,10.238 73.840311,10.61 C74.088311,10.982 74.516311,11.168 75.124311,11.168 Z M79.756311,11.168 C80.316311,11.168 80.842311,11.03 81.334311,10.754 C81.826311,10.478 82.224311,10.076 82.528311,9.548 C82.832311,9.02 82.984311,8.384 82.984311,7.64 C82.984311,6.896 82.832311,6.262 82.528311,5.738 C82.224311,5.214 81.826311,4.812 81.334311,4.532 C80.842311,4.252 80.316311,4.112 79.756311,4.112 C79.196311,4.112 78.670311,4.252 78.178311,4.532 C77.686311,4.812 77.288311,5.214 76.984311,5.738 C76.680311,6.262 76.528311,6.896 76.528311,7.64 C76.528311,8.384 76.680311,9.02 76.984311,9.548 C77.288311,10.076 77.686311,10.478 78.178311,10.754 C78.670311,11.03 79.196311,11.168 79.756311,11.168 Z M79.756311,9.728 C79.300311,9.728 78.948311,9.538 78.700311,9.158 C78.452311,8.778 78.328311,8.272 78.328311,7.64 C78.328311,7.008 78.452311,6.502 78.700311,6.122 C78.948311,5.742 79.300311,5.552 79.756311,5.552 C80.212311,5.552 80.564311,5.742 80.812311,6.122 C81.060311,6.502 81.184311,7.008 81.184311,7.64 C81.184311,8.272 81.060311,8.778 80.812311,9.158 C80.564311,9.538 80.212311,9.728 79.756311,9.728 Z M86.524311,13.916 C87.276311,13.916 87.924311,13.812 88.468311,13.604 C89.012311,13.396 89.434311,13.11 89.734311,12.746 C90.034311,12.382 90.184311,11.976 90.184311,11.528 C90.184311,10.936 89.968311,10.508 89.536311,10.244 C89.104311,9.98 88.484311,9.848 87.676311,9.848 L87.676311,9.848 L86.536311,9.848 C86.144311,9.848 85.870311,9.8 85.714311,9.704 C85.558311,9.608 85.480311,9.472 85.480311,9.296 C85.480311,9.16 85.506311,9.05 85.558311,8.966 C85.610311,8.882 85.680311,8.8 85.768311,8.72 C86.080311,8.824 86.368311,8.876 86.632311,8.876 C87.112311,8.876 87.548311,8.792 87.940311,8.624 C88.332311,8.456 88.644311,8.202 88.876311,7.862 C89.108311,7.522 89.224311,7.1 89.224311,6.596 C89.224311,6.388 89.196311,6.194 89.140311,6.014 C89.084311,5.834 89.012311,5.688 88.924311,5.576 L88.924311,5.576 L90.064311,5.576 L90.064311,4.28 L87.640311,4.28 C87.504311,4.232 87.348311,4.192 87.172311,4.16 C86.996311,4.128 86.816311,4.112 86.632311,4.112 C86.160311,4.112 85.716311,4.204 85.300311,4.388 C84.884311,4.572 84.550311,4.844 84.298311,5.204 C84.046311,5.564 83.920311,6.008 83.920311,6.536 C83.920311,6.928 84.012311,7.278 84.196311,7.586 C84.380311,7.894 84.588311,8.132 84.820311,8.3 L84.820311,8.3 L84.820311,8.348 C84.620311,8.492 84.444311,8.674 84.292311,8.894 C84.140311,9.114 84.064311,9.352 84.064311,9.608 C84.064311,9.88 84.122311,10.108 84.238311,10.292 C84.354311,10.476 84.500311,10.624 84.676311,10.736 L84.676311,10.736 L84.676311,10.796 C84.372311,10.972 84.136311,11.178 83.968311,11.414 C83.800311,11.65 83.716311,11.908 83.716311,12.188 C83.716311,12.58 83.840311,12.904 84.088311,13.16 C84.336311,13.416 84.672311,13.606 85.096311,13.73 C85.520311,13.854 85.996311,13.916 86.524311,13.916 Z M86.632311,7.784 C86.336311,7.784 86.086311,7.676 85.882311,7.46 C85.678311,7.244 85.576311,6.936 85.576311,6.536 C85.576311,6.144 85.678311,5.842 85.882311,5.63 C86.086311,5.418 86.336311,5.312 86.632311,5.312 C86.936311,5.312 87.188311,5.418 87.388311,5.63 C87.588311,5.842 87.688311,6.144 87.688311,6.536 C87.688311,6.936 87.586311,7.244 87.382311,7.46 C87.178311,7.676 86.928311,7.784 86.632311,7.784 Z M86.788311,12.8 C86.300311,12.8 85.912311,12.722 85.624311,12.566 C85.336311,12.41 85.192311,12.192 85.192311,11.912 C85.192311,11.624 85.336311,11.364 85.624311,11.132 C85.744311,11.164 85.880311,11.188 86.032311,11.204 C86.184311,11.22 86.360311,11.228 86.560311,11.228 L86.560311,11.228 L87.376311,11.228 C87.736311,11.228 88.012311,11.268 88.204311,11.348 C88.396311,11.428 88.492311,11.588 88.492311,11.828 C88.492311,12.092 88.334311,12.32 88.018311,12.512 C87.702311,12.704 87.292311,12.8 86.788311,12.8 Z M93.028311,11.168 C93.484311,11.168 93.882311,11.066 94.222311,10.862 C94.562311,10.658 94.876311,10.384 95.164311,10.04 L95.164311,10.04 L95.212311,10.04 L95.344311,11 L96.784311,11 L96.784311,4.28 L95.020311,4.28 L95.020311,8.816 C94.796311,9.112 94.582311,9.326 94.378311,9.458 C94.174311,9.59 93.932311,9.656 93.652311,9.656 C93.332311,9.656 93.096311,9.55 92.944311,9.338 C92.792311,9.126 92.716311,8.764 92.716311,8.252 L92.716311,8.252 L92.716311,4.28 L90.952311,4.28 L90.952311,8.48 C90.952311,9.32 91.116311,9.978 91.444311,10.454 C91.772311,10.93 92.300311,11.168 93.028311,11.168 Z M101.296311,11.168 C101.712311,11.168 102.124311,11.1 102.532311,10.964 C102.940311,10.828 103.308311,10.648 103.636311,10.424 L103.636311,10.424 L103.036311,9.344 C102.796311,9.496 102.554311,9.612 102.310311,9.692 C102.066311,9.772 101.804311,9.812 101.524311,9.812 C101.028311,9.812 100.612311,9.67 100.276311,9.386 C99.940311,9.102 99.736311,8.684 99.664311,8.132 L99.664311,8.132 L103.804311,8.132 C103.860311,7.948 103.888311,7.676 103.888311,7.316 C103.888311,6.7 103.782311,6.15 103.570311,5.666 C103.358311,5.182 103.044311,4.802 102.628311,4.526 C102.212311,4.25 101.696311,4.112 101.080311,4.112 C100.680311,4.112 100.294311,4.194 99.922311,4.358 C99.550311,4.522 99.216311,4.758 98.920311,5.066 C98.624311,5.374 98.388311,5.744 98.212311,6.176 C98.036311,6.608 97.948311,7.096 97.948311,7.64 C97.948311,8.376 98.096311,9.008 98.392311,9.536 C98.688311,10.064 99.090311,10.468 99.598311,10.748 C100.106311,11.028 100.672311,11.168 101.296311,11.168 Z M102.376311,6.956 L99.640311,6.956 C99.704311,6.468 99.876311,6.1 100.156311,5.852 C100.436311,5.604 100.752311,5.48 101.104311,5.48 C101.536311,5.48 101.856311,5.614 102.064311,5.882 C102.272311,6.15 102.376311,6.508 102.376311,6.956 L102.376311,6.956 Z M108.352311,3.2 C108.656311,3.2 108.902311,3.112 109.090311,2.936 C109.278311,2.76 109.372311,2.524 109.372311,2.228 C109.372311,1.94 109.278311,1.708 109.090311,1.532 C108.902311,1.356 108.656311,1.268 108.352311,1.268 C108.048311,1.268 107.800311,1.356 107.608311,1.532 C107.416311,1.708 107.320311,1.94 107.320311,2.228 C107.320311,2.524 107.416311,2.76 107.608311,2.936 C107.800311,3.112 108.048311,3.2 108.352311,3.2 Z M109.228311,11 L109.228311,4.28 L107.464311,4.28 L107.464311,11 L109.228311,11 Z M112.576311,11 L112.576311,6.38 C112.824311,6.132 113.050311,5.944 113.254311,5.816 C113.458311,5.688 113.696311,5.624 113.968311,5.624 C114.296311,5.624 114.536311,5.728 114.688311,5.936 C114.840311,6.144 114.916311,6.508 114.916311,7.028 L114.916311,7.028 L114.916311,11 L116.680311,11 L116.680311,6.812 C116.680311,5.964 116.516311,5.302 116.188311,4.826 C115.860311,4.35 115.332311,4.112 114.604311,4.112 C114.148311,4.112 113.744311,4.216 113.392311,4.424 C113.040311,4.632 112.716311,4.88 112.420311,5.168 L112.420311,5.168 L112.384311,5.168 L112.252311,4.28 L110.812311,4.28 L110.812311,11 L112.576311,11 Z M122.548311,11.168 C123.132311,11.168 123.622311,11.072 124.018311,10.88 C124.414311,10.688 124.714311,10.432 124.918311,10.112 C125.122311,9.792 125.224311,9.436 125.224311,9.044 C125.224311,8.628 125.130311,8.292 124.942311,8.036 C124.754311,7.78 124.516311,7.574 124.228311,7.418 C123.940311,7.262 123.648311,7.128 123.352311,7.016 C123.120311,6.928 122.902311,6.844 122.698311,6.764 C122.494311,6.684 122.330311,6.59 122.206311,6.482 C122.082311,6.374 122.020311,6.24 122.020311,6.08 C122.020311,5.888 122.094311,5.732 122.242311,5.612 C122.390311,5.492 122.616311,5.432 122.920311,5.432 C123.168311,5.432 123.410311,5.484 123.646311,5.588 C123.882311,5.692 124.120311,5.832 124.360311,6.008 L124.360311,6.008 L125.152311,4.94 C124.880311,4.732 124.554311,4.542 124.174311,4.37 C123.794311,4.198 123.360311,4.112 122.872311,4.112 C122.360311,4.112 121.916311,4.2 121.540311,4.376 C121.164311,4.552 120.874311,4.794 120.670311,5.102 C120.466311,5.41 120.364311,5.764 120.364311,6.164 C120.364311,6.54 120.454311,6.854 120.634311,7.106 C120.814311,7.358 121.044311,7.564 121.324311,7.724 C121.604311,7.884 121.884311,8.02 122.164311,8.132 C122.404311,8.22 122.630311,8.31 122.842311,8.402 C123.054311,8.494 123.228311,8.598 123.364311,8.714 C123.500311,8.83 123.568311,8.972 123.568311,9.14 C123.568311,9.348 123.490311,9.518 123.334311,9.65 C123.178311,9.782 122.932311,9.848 122.596311,9.848 C122.284311,9.848 121.982311,9.784 121.690311,9.656 C121.398311,9.528 121.100311,9.348 120.796311,9.116 L120.796311,9.116 L119.992311,10.22 C120.328311,10.492 120.726311,10.718 121.186311,10.898 C121.646311,11.078 122.100311,11.168 122.548311,11.168 Z M128.032311,13.58 L128.032311,11.54 L127.972311,10.436 C128.228311,10.668 128.496311,10.848 128.776311,10.976 C129.056311,11.104 129.344311,11.168 129.640311,11.168 C130.136311,11.168 130.600311,11.026 131.032311,10.742 C131.464311,10.458 131.816311,10.044 132.088311,9.5 C132.360311,8.956 132.496311,8.3 132.496311,7.532 C132.496311,6.844 132.392311,6.244 132.184311,5.732 C131.976311,5.22 131.674311,4.822 131.278311,4.538 C130.882311,4.254 130.408311,4.112 129.856311,4.112 C129.496311,4.112 129.146311,4.196 128.806311,4.364 C128.466311,4.532 128.156311,4.736 127.876311,4.976 L127.876311,4.976 L127.840311,4.976 L127.708311,4.28 L126.268311,4.28 L126.268311,13.58 L128.032311,13.58 Z M129.244311,9.716 C129.068311,9.716 128.874311,9.678 128.662311,9.602 C128.450311,9.526 128.240311,9.396 128.032311,9.212 L128.032311,9.212 L128.032311,6.26 C128.488311,5.796 128.928311,5.564 129.352311,5.564 C129.816311,5.564 130.154311,5.736 130.366311,6.08 C130.578311,6.424 130.684311,6.916 130.684311,7.556 C130.684311,8.284 130.546311,8.826 130.270311,9.182 C129.994311,9.538 129.652311,9.716 129.244311,9.716 Z M135.184311,11.168 C135.568311,11.168 135.928311,11.082 136.264311,10.91 C136.600311,10.738 136.916311,10.528 137.212311,10.28 L137.212311,10.28 L137.260311,10.28 L137.380311,11 L138.820311,11 L138.820311,7.076 C138.820311,6.1 138.604311,5.362 138.172311,4.862 C137.740311,4.362 137.096311,4.112 136.240311,4.112 C135.712311,4.112 135.212311,4.198 134.740311,4.37 C134.268311,4.542 133.832311,4.752 133.432311,5 L133.432311,5 L134.068311,6.164 C134.380311,5.98 134.688311,5.828 134.992311,5.708 C135.296311,5.588 135.604311,5.528 135.916311,5.528 C136.332311,5.528 136.624311,5.64 136.792311,5.864 C136.960311,6.088 137.052311,6.364 137.068311,6.692 C135.716311,6.836 134.732311,7.106 134.116311,7.502 C133.500311,7.898 133.192311,8.456 133.192311,9.176 C133.192311,9.552 133.274311,9.892 133.438311,10.196 C133.602311,10.5 133.834311,10.738 134.134311,10.91 C134.434311,11.082 134.784311,11.168 135.184311,11.168 Z M135.760311,9.788 C135.504311,9.788 135.292311,9.728 135.124311,9.608 C134.956311,9.488 134.872311,9.296 134.872311,9.032 C134.872311,8.728 135.032311,8.468 135.352311,8.252 C135.672311,8.036 136.244311,7.876 137.068311,7.772 L137.068311,7.772 L137.068311,9.128 C136.852311,9.336 136.644311,9.498 136.444311,9.614 C136.244311,9.73 136.016311,9.788 135.760311,9.788 Z M143.176311,11.168 C143.552311,11.168 143.934311,11.102 144.322311,10.97 C144.710311,10.838 145.064311,10.632 145.384311,10.352 L145.384311,10.352 L144.676311,9.188 C144.492311,9.34 144.288311,9.468 144.064311,9.572 C143.840311,9.676 143.608311,9.728 143.368311,9.728 C142.888311,9.728 142.490311,9.538 142.174311,9.158 C141.858311,8.778 141.700311,8.272 141.700311,7.64 C141.700311,7.008 141.860311,6.502 142.180311,6.122 C142.500311,5.742 142.916311,5.552 143.428311,5.552 C143.612311,5.552 143.786311,5.59 143.950311,5.666 C144.114311,5.742 144.280311,5.852 144.448311,5.996 L144.448311,5.996 L145.288311,4.856 C145.040311,4.648 144.756311,4.472 144.436311,4.328 C144.116311,4.184 143.748311,4.112 143.332311,4.112 C142.724311,4.112 142.160311,4.252 141.640311,4.532 C141.120311,4.812 140.700311,5.214 140.380311,5.738 C140.060311,6.262 139.900311,6.896 139.900311,7.64 C139.900311,8.384 140.044311,9.02 140.332311,9.548 C140.620311,10.076 141.010311,10.478 141.502311,10.754 C141.994311,11.03 142.552311,11.168 143.176311,11.168 Z M148.912311,11.168 C149.328311,11.168 149.740311,11.1 150.148311,10.964 C150.556311,10.828 150.924311,10.648 151.252311,10.424 L151.252311,10.424 L150.652311,9.344 C150.412311,9.496 150.170311,9.612 149.926311,9.692 C149.682311,9.772 149.420311,9.812 149.140311,9.812 C148.644311,9.812 148.228311,9.67 147.892311,9.386 C147.556311,9.102 147.352311,8.684 147.280311,8.132 L147.280311,8.132 L151.420311,8.132 C151.476311,7.948 151.504311,7.676 151.504311,7.316 C151.504311,6.7 151.398311,6.15 151.186311,5.666 C150.974311,5.182 150.660311,4.802 150.244311,4.526 C149.828311,4.25 149.312311,4.112 148.696311,4.112 C148.296311,4.112 147.910311,4.194 147.538311,4.358 C147.166311,4.522 146.832311,4.758 146.536311,5.066 C146.240311,5.374 146.004311,5.744 145.828311,6.176 C145.652311,6.608 145.564311,7.096 145.564311,7.64 C145.564311,8.376 145.712311,9.008 146.008311,9.536 C146.304311,10.064 146.706311,10.468 147.214311,10.748 C147.722311,11.028 148.288311,11.168 148.912311,11.168 Z M149.992311,6.956 L147.256311,6.956 C147.320311,6.468 147.492311,6.1 147.772311,5.852 C148.052311,5.604 148.368311,5.48 148.720311,5.48 C149.152311,5.48 149.472311,5.614 149.680311,5.882 C149.888311,6.15 149.992311,6.508 149.992311,6.956 L149.992311,6.956 Z M156.784311,14.396 L156.784311,0.788 L155.632311,0.788 L155.632311,14.396 L156.784311,14.396 Z M162.856311,4.82 L162.856311,3.332 L170.440311,3.332 L170.440311,4.82 L171.916311,4.82 L171.916311,2.024 L167.596311,2.024 C167.516311,1.832 167.426311,1.632 167.326311,1.424 C167.226311,1.216 167.128311,1.024 167.032311,0.848 L167.032311,0.848 L165.592311,1.256 C165.656311,1.368 165.716311,1.49 165.772311,1.622 C165.828311,1.754 165.880311,1.888 165.928311,2.024 L165.928311,2.024 L161.452311,2.024 L161.452311,4.82 L162.856311,4.82 Z M164.344311,11.984 C164.880311,11.984 165.348311,11.968 165.748311,11.936 C166.148311,11.904 166.492311,11.836 166.780311,11.732 C167.068311,11.62 167.268311,11.46 167.380311,11.252 C167.492311,11.044 167.548311,10.74 167.548311,10.34 L167.548311,10.34 L167.548311,8.336 L171.916311,8.336 L171.916311,6.98 L167.548311,6.98 L167.548311,5.624 L169.996311,5.624 L169.996311,4.292 L163.312311,4.292 L163.312311,5.624 L166.024311,5.624 L166.024311,6.98 L161.512311,6.98 L161.512311,8.336 L166.024311,8.336 L166.024311,10.304 C166.024311,10.408 166.000311,10.478 165.952311,10.514 C165.904311,10.55 165.812311,10.572 165.676311,10.58 L165.676311,10.58 L165.238311,10.58 C165.026311,10.58 164.786311,10.576 164.518311,10.568 C164.250311,10.56 163.988311,10.552 163.732311,10.544 C163.844311,10.736 163.964311,10.97 164.092311,11.246 C164.220311,11.522 164.304311,11.768 164.344311,11.984 Z M175.072311,5 L175.072311,3.416 L182.296311,3.416 L182.296311,5 L183.784311,5 L183.784311,2.096 L179.740311,2.096 C179.572311,1.624 179.352311,1.164 179.080311,0.716 L179.080311,0.716 L177.568311,1.148 C177.648311,1.292 177.724311,1.446 177.796311,1.61 C177.868311,1.774 177.932311,1.936 177.988311,2.096 L177.988311,2.096 L173.668311,2.096 L173.668311,5 L175.072311,5 Z M175.912311,12.032 L175.912311,11.576 L181.528311,11.576 L181.528311,12.032 L182.992311,12.032 L182.992311,5.408 L179.404311,5.408 L179.404311,3.872 L177.976311,3.872 L177.976311,5.408 L174.508311,5.408 L174.508311,12.032 L175.912311,12.032 Z M181.528311,7.844 L179.404311,7.844 L179.404311,6.716 L181.528311,6.716 L181.528311,7.844 Z M177.976311,7.844 L175.912311,7.844 L175.912311,6.716 L177.976311,6.716 L177.976311,7.844 Z M181.528311,10.268 L179.404311,10.268 L179.404311,9.044 L181.528311,9.044 L181.528311,10.268 Z M177.976311,10.268 L175.912311,10.268 L175.912311,9.044 L177.976311,9.044 L177.976311,10.268 Z M190.588311,12.02 C191.084311,12.028 191.508311,12.014 191.860311,11.978 C192.212311,11.942 192.500311,11.868 192.724311,11.756 C192.964311,11.644 193.132311,11.486 193.228311,11.282 C193.324311,11.078 193.372311,10.788 193.372311,10.412 L193.372311,10.412 L193.372311,7.94 L196.240311,7.94 L196.240311,6.596 L193.372311,6.596 L193.372311,2.648 C193.844311,2.584 194.296311,2.51 194.728311,2.426 C195.160311,2.342 195.572311,2.248 195.964311,2.144 L195.964311,2.144 L195.004311,0.98 C194.524311,1.116 193.958311,1.242 193.306311,1.358 C192.654311,1.474 191.966311,1.572 191.242311,1.652 C190.518311,1.732 189.808311,1.796 189.112311,1.844 C189.192311,1.996 189.270311,2.188 189.346311,2.42 C189.422311,2.652 189.472311,2.856 189.496311,3.032 C189.888311,3.008 190.290311,2.98 190.702311,2.948 C191.114311,2.916 191.528311,2.876 191.944311,2.828 L191.944311,2.828 L191.944311,6.596 L189.220311,6.596 L189.220311,7.94 L191.944311,7.94 L191.944311,10.4 C191.944311,10.504 191.924311,10.574 191.884311,10.61 C191.844311,10.646 191.768311,10.664 191.656311,10.664 C191.604311,10.668 191.526811,10.6705 191.423811,10.6715 L191.183811,10.6715 L191.183811,10.6715 L191.038311,10.67 C190.730311,10.666 190.412311,10.656 190.084311,10.64 C190.188311,10.832 190.290311,11.062 190.390311,11.33 C190.490311,11.598 190.556311,11.828 190.588311,12.02 Z M186.760311,9.848 L186.760311,8.864 L188.860311,8.864 L188.860311,2.012 L185.524311,2.012 L185.524311,9.848 L186.760311,9.848 Z M194.800311,6.38 C195.000311,6.028 195.212311,5.592 195.436311,5.072 C195.660311,4.552 195.872311,4.036 196.072311,3.524 L196.072311,3.524 L194.680311,3.14 C194.608311,3.436 194.516311,3.76 194.404311,4.112 C194.292311,4.464 194.172311,4.806 194.044311,5.138 C193.916311,5.47 193.792311,5.768 193.672311,6.032 L193.672311,6.032 L194.800311,6.38 Z M190.168311,6.392 L191.428311,5.96 C191.372311,5.584 191.262311,5.152 191.098311,4.664 C190.934311,4.176 190.744311,3.728 190.528311,3.32 L190.528311,3.32 L189.364311,3.716 C189.500311,3.988 189.624311,4.286 189.736311,4.61 C189.848311,4.934 189.942311,5.25 190.018311,5.558 C190.094311,5.866 190.144311,6.144 190.168311,6.392 L190.168311,6.392 Z M187.588311,7.544 L186.760311,7.544 L186.760311,3.332 L187.588311,3.332 L187.588311,7.544 Z M207.208311,11.972 C207.360311,11.972 207.516311,11.904 207.676311,11.768 C207.836311,11.632 207.988311,11.376 208.132311,11 C208.276311,10.624 208.392311,10.08 208.480311,9.368 C208.416311,9.336 208.326311,9.284 208.210311,9.212 C208.094311,9.14 207.978311,9.058 207.862311,8.966 C207.746311,8.874 207.652311,8.788 207.580311,8.708 C207.548311,9.268 207.504311,9.696 207.448311,9.992 C207.392311,10.288 207.320311,10.436 207.232311,10.436 C207.128311,10.428 207.030311,10.302 206.938311,10.058 C206.846311,9.814 206.764311,9.472 206.692311,9.032 C207.020311,8.424 207.302311,7.766 207.538311,7.058 C207.774311,6.35 207.972311,5.596 208.132311,4.796 L208.132311,4.796 L207.028311,4.616 C206.948311,5.032 206.860311,5.434 206.764311,5.822 C206.668311,6.21 206.552311,6.584 206.416311,6.944 C206.376311,6.48 206.338311,5.986 206.302311,5.462 C206.266311,4.938 206.236311,4.392 206.212311,3.824 L206.212311,3.824 L208.144311,3.824 L208.144311,2.576 L207.712311,2.576 L208.228311,1.976 C208.084311,1.816 207.882311,1.626 207.622311,1.406 C207.362311,1.186 207.108311,1 206.860311,0.848 L206.860311,0.848 L206.200311,1.556 C206.408311,1.708 206.616311,1.874 206.824311,2.054 C207.032311,2.234 207.212311,2.408 207.364311,2.576 L207.364311,2.576 L206.164311,2.576 C206.156311,2.288 206.150311,2 206.146311,1.712 C206.142311,1.424 206.140311,1.132 206.140311,0.836 L206.140311,0.836 L204.976311,0.836 C204.984311,1.132 204.990311,1.426 204.994311,1.718 C204.998311,2.01 205.004311,2.296 205.012311,2.576 L205.012311,2.576 L201.172311,2.576 L201.172311,5.9 C201.172311,6.436 201.156311,7.022 201.124311,7.658 C201.092311,8.294 201.022311,8.928 200.914311,9.56 C200.806311,10.192 200.628311,10.772 200.380311,11.3 C200.508311,11.356 200.672311,11.45 200.872311,11.582 C201.072311,11.714 201.224311,11.832 201.328311,11.936 C201.536311,11.512 201.702311,11.044 201.826311,10.532 C201.950311,10.02 202.046311,9.492 202.114311,8.948 C202.182311,8.404 202.228311,7.87 202.252311,7.346 C202.276311,6.822 202.288311,6.34 202.288311,5.9 L202.288311,5.9 L202.288311,3.824 L205.060311,3.824 C205.100311,4.816 205.156311,5.738 205.228311,6.59 C205.300311,7.442 205.392311,8.2 205.504311,8.864 C204.968311,9.752 204.304311,10.48 203.512311,11.048 C203.640311,11.144 203.786311,11.288 203.950311,11.48 C204.114311,11.672 204.236311,11.824 204.316311,11.936 C204.604311,11.704 204.876311,11.458 205.132311,11.198 C205.388311,10.938 205.628311,10.656 205.852311,10.352 C206.012311,10.864 206.204311,11.26 206.428311,11.54 C206.652311,11.82 206.912311,11.964 207.208311,11.972 Z M198.724311,9.98 L198.724311,8.912 L200.752311,8.912 L200.752311,1.88 L197.512311,1.88 L197.512311,9.98 L198.724311,9.98 Z M199.612311,7.604 L198.724311,7.604 L198.724311,3.188 L199.612311,3.188 L199.612311,7.604 Z M204.892311,5.552 L204.892311,4.508 L202.624311,4.508 L202.624311,5.552 L204.892311,5.552 Z M203.416311,10.196 L203.416311,9.56 L205.000311,9.56 L205.000311,6.2 L202.576311,6.2 L202.576311,10.196 L203.416311,10.196 Z M204.160311,8.516 L203.416311,8.516 L203.416311,7.256 L204.160311,7.256 L204.160311,8.516 Z M217.528311,12.044 L217.528311,6.08 L220.288311,6.08 L220.288311,4.592 L217.528311,4.592 L217.528311,0.884 L215.992311,0.884 L215.992311,4.592 L213.112311,4.592 L213.112311,6.08 L215.992311,6.08 L215.992311,12.044 L217.528311,12.044 Z M212.080311,3.764 L213.040311,2.72 C212.904311,2.552 212.718311,2.364 212.482311,2.156 C212.246311,1.948 212.000311,1.738 211.744311,1.526 C211.488311,1.314 211.248311,1.124 211.024311,0.956 L211.024311,0.956 L210.124311,1.868 C210.348311,2.052 210.586311,2.258 210.838311,2.486 C211.090311,2.714 211.326311,2.94 211.546311,3.164 C211.766311,3.388 211.944311,3.588 212.080311,3.764 L212.080311,3.764 Z M210.988311,11.996 C211.044311,11.924 211.124311,11.838 211.228311,11.738 C211.332311,11.638 211.492311,11.506 211.708311,11.342 C211.924311,11.178 212.222311,10.956 212.602311,10.676 C212.982311,10.396 213.472311,10.04 214.072311,9.608 C213.992311,9.464 213.906311,9.26 213.814311,8.996 C213.722311,8.732 213.656311,8.5 213.616311,8.3 L213.616311,8.3 L212.392311,9.14 L212.392311,4.52 L209.188311,4.52 L209.188311,5.936 L210.940311,5.936 L210.940311,9.548 C210.940311,9.82 210.866311,10.052 210.718311,10.244 C210.570311,10.436 210.428311,10.576 210.292311,10.664 C210.372311,10.768 210.458311,10.9 210.550311,11.06 C210.642311,11.22 210.728311,11.384 210.808311,11.552 C210.888311,11.72 210.948311,11.868 210.988311,11.996 Z M226.096311,11.948 C226.456311,11.948 226.752311,11.876 226.984311,11.732 C227.216311,11.588 227.402311,11.328 227.542311,10.952 C227.682311,10.576 227.788311,10.04 227.860311,9.344 C227.668311,9.28 227.462311,9.172 227.242311,9.02 C227.022311,8.868 226.836311,8.716 226.684311,8.564 C226.652311,9.268 226.598311,9.77 226.522311,10.07 C226.446311,10.37 226.340311,10.52 226.204311,10.52 C226.020311,10.52 225.834311,10.394 225.646311,10.142 C225.458311,9.89 225.276311,9.544 225.100311,9.104 C225.972311,8.088 226.684311,6.948 227.236311,5.684 L227.236311,5.684 L225.892311,5.276 C225.724311,5.668 225.534311,6.052 225.322311,6.428 C225.110311,6.804 224.880311,7.168 224.632311,7.52 C224.552311,7.168 224.476311,6.796 224.404311,6.404 C224.332311,6.012 224.268311,5.604 224.212311,5.18 L224.212311,5.18 L227.752311,4.784 L227.620311,3.44 L224.068311,3.836 C224.036311,3.356 224.010311,2.864 223.990311,2.36 C223.970311,1.856 223.964311,1.352 223.972311,0.848 L223.972311,0.848 L222.508311,0.848 C222.516311,1.376 222.530311,1.902 222.550311,2.426 C222.570311,2.95 222.604311,3.472 222.652311,3.992 L222.652311,3.992 L221.044311,4.16 L221.176311,5.516 L222.784311,5.336 C222.872311,5.976 222.974311,6.592 223.090311,7.184 C223.206311,7.776 223.340311,8.328 223.492311,8.84 C223.132311,9.2 222.746311,9.532 222.334311,9.836 C221.922311,10.14 221.492311,10.412 221.044311,10.652 C221.148311,10.74 221.264311,10.852 221.392311,10.988 C221.520311,11.124 221.644311,11.262 221.764311,11.402 C221.884311,11.542 221.976311,11.664 222.040311,11.768 C222.392311,11.56 222.734311,11.324 223.066311,11.06 C223.398311,10.796 223.724311,10.516 224.044311,10.22 C224.316311,10.756 224.622311,11.178 224.962311,11.486 C225.302311,11.794 225.680311,11.948 226.096311,11.948 Z M225.916311,3.392 L226.924311,2.54 C226.812311,2.38 226.660311,2.204 226.468311,2.012 C226.276311,1.82 226.070311,1.628 225.850311,1.436 C225.630311,1.244 225.416311,1.072 225.208311,0.92 L225.208311,0.92 L224.272311,1.7 C224.464311,1.86 224.666311,2.042 224.878311,2.246 C225.090311,2.45 225.290311,2.652 225.478311,2.852 C225.666311,3.052 225.812311,3.232 225.916311,3.392 L225.916311,3.392 Z M229.024311,12.044 C229.536311,12.044 229.972311,12.026 230.332311,11.99 C230.692311,11.954 230.984311,11.88 231.208311,11.768 C231.440311,11.656 231.600311,11.494 231.688311,11.282 C231.776311,11.07 231.820311,10.768 231.820311,10.376 L231.820311,10.376 L231.820311,0.956 L230.428311,0.956 L230.428311,10.376 C230.428311,10.48 230.406311,10.55 230.362311,10.586 C230.318311,10.622 230.240311,10.644 230.128311,10.652 L230.128311,10.652 L229.997644,10.6513333 C229.887422,10.6504444 229.730978,10.6486667 229.528311,10.646 C229.224311,10.642 228.908311,10.636 228.580311,10.628 C228.676311,10.828 228.768311,11.064 228.856311,11.336 C228.944311,11.608 229.000311,11.844 229.024311,12.044 Z M229.516311,8.708 L229.516311,2.108 L228.148311,2.108 L228.148311,8.708 L229.516311,8.708 Z" id="Dialogueinspace|宇宙呼喊计划"></path>
                </g>
            </g>
        </g>
    </g>
</svg>