<?xml version="1.0" encoding="UTF-8"?>
<svg width="258px" height="40px" viewBox="0 0 258 40" version="1.1" xmlns="http://www.w3.org/2000/svg" xmlns:xlink="http://www.w3.org/1999/xlink">
    <title>ERROR(x_x)</title>
    <g id="Page-1" stroke="none" stroke-width="1" fill="none" fill-rule="evenodd">
        <g id="反馈-上传失败" transform="translate(-338.000000, -175.000000)" fill="#FFFFFF" fill-rule="nonzero">
            <path d="M357,210 L357,204.207682 L344.231838,204.207682 L344.231838,197.305339 L355.376068,197.305339 L355.376068,191.533203 L344.231838,191.533203 L344.231838,184.792318 L357,184.792318 L357,179 L338,179 L338,210 L357,210 Z M368.280687,210 L368.280687,197.567708 L373.681669,197.567708 L379.92144,210 L387,210 L379.92144,196.679687 C382.908347,195.266927 384.913257,192.259766 384.913257,188.182943 C384.913257,182.390625 380.351064,179 375.031915,179 L362,179 L362,210 L368.280687,210 Z M374.610236,191 L369,191 L369,184 L374.610236,184 C377.740157,184 379,185.281421 379,187.557377 C379,189.795082 377.740157,191 374.610236,191 Z M396.280687,210 L396.280687,197.567708 L401.681669,197.567708 L407.92144,210 L415,210 L407.92144,196.679687 C410.908347,195.266927 412.913257,192.259766 412.913257,188.182943 C412.913257,182.390625 408.351064,179 403.031915,179 L390,179 L390,210 L396.280687,210 Z M402.610236,191 L397,191 L397,184 L402.610236,184 C405.740157,184 407,185.281421 407,187.557377 C407,189.795082 405.740157,191 402.610236,191 Z M432.010095,210 C440.77224,210 448,202.852792 448,194 C448,185.187817 440.77224,178 432.010095,178 C423.22776,178 416,185.187817 416,194 C416,202.852792 423.22776,210 432.010095,210 Z M432.010299,203 C426.552008,203 422,198.714137 422,193.5 C422,188.285863 426.469619,184 432.010299,184 C437.447992,184 442,188.285863 442,193.5 C442,198.714137 437.447992,203 432.010299,203 Z M458.280687,210 L458.280687,197.567708 L463.681669,197.567708 L469.92144,210 L477,210 L469.92144,196.679687 C472.908347,195.266927 474.913257,192.259766 474.913257,188.182943 C474.913257,182.390625 470.351064,179 465.031915,179 L452,179 L452,210 L458.280687,210 Z M464.610236,191 L459,191 L459,184 L464.610236,184 C467.740157,184 469,185.281421 469,187.557377 C469,189.795082 467.740157,191 464.610236,191 Z M501,213 C499.326693,210.152034 498.051793,207.344754 497.175299,204.578158 C495.98008,201.038544 495.422311,197.498929 495.422311,194 C495.422311,190.460385 495.98008,186.920771 497.175299,183.421842 C498.051793,180.614561 499.326693,177.807281 501,175 L497.215139,175 C495.302789,177.64454 493.868526,180.411135 492.832669,183.340471 C491.59761,186.75803 491,190.297645 491,194.040685 C491,197.702355 491.59761,201.282655 492.832669,204.700214 C493.868526,207.54818 495.302789,210.314775 497.215139,213 L501,213 Z M511.593928,210 L517.020873,201.87234 L522.406072,210 L528,210 L519.609108,198.297872 L527.039848,188 L521.487666,188 L517.020873,194.723404 L512.512334,188 L506.960152,188 L514.390892,198.297872 L506,210 L511.593928,210 Z M553,215 L553,211 L532,211 L532,215 L553,215 Z M563.593928,210 L569.020873,201.87234 L574.406072,210 L580,210 L571.609108,198.297872 L579.039848,188 L573.487666,188 L569.020873,194.723404 L564.512334,188 L558.960152,188 L566.390892,198.297872 L558,210 L563.593928,210 Z M589.784861,213 C591.657371,210.314775 593.131474,207.54818 594.167331,204.700214 C595.36255,201.282655 596,197.702355 596,194.040685 C596,190.297645 595.36255,186.75803 594.167331,183.340471 C593.131474,180.411135 591.657371,177.64454 589.784861,175 L586,175 C587.633466,177.807281 588.908367,180.614561 589.824701,183.421842 C590.98008,186.920771 591.577689,190.460385 591.577689,194 C591.577689,197.498929 590.98008,201.038544 589.824701,204.578158 C588.908367,207.344754 587.633466,210.152034 586,213 L589.784861,213 Z" id="ERROR(x_x)" transform="translate(467.000000, 195.000000) rotate(-360.000000) translate(-467.000000, -195.000000) "></path>
        </g>
    </g>
</svg>