<?xml version="1.0" encoding="UTF-8"?>
<svg width="754px" height="390px" viewBox="0 0 754 390" version="1.1" xmlns="http://www.w3.org/2000/svg" xmlns:xlink="http://www.w3.org/1999/xlink">
    <title>Grid</title>
    <defs>
        <rect id="path-1" x="0" y="0" width="754" height="390"></rect>
        <linearGradient x1="50%" y1="1.20405717%" x2="50%" y2="99.9620131%" id="linearGradient-3">
            <stop stop-color="#000000" offset="0%"></stop>
            <stop stop-color="#000000" stop-opacity="0" offset="99.9620131%"></stop>
        </linearGradient>
    </defs>
    <g id="Page-1" stroke="none" stroke-width="1" fill="none" fill-rule="evenodd">
        <g id="反馈-成功A" transform="translate(-90.000000, 0.000000)">
            <g id="Group-6" transform="translate(90.000000, 0.000000)">
                <mask id="mask-2" fill="white">
                    <use xlink:href="#path-1"></use>
                </mask>
                <g id="Mask"></g>
                <g id="Group-2" opacity="0.351438976" mask="url(#mask-2)">
                    <g transform="translate(-269.000000, 259.000000)">
                        <g id="Group-75" stroke-width="1" fill="none" transform="translate(0.000000, 1.000000)">
                            <line x1="1" y1="0.430921053" x2="1290" y2="0.430921053" id="Stroke-1" stroke="#FFFFFF"></line>
                            <line x1="1" y1="21.9769737" x2="1290" y2="21.9769737" id="Stroke-3" stroke="#FFFFFF"></line>
                            <line x1="1" y1="43.5230263" x2="1290" y2="43.5230263" id="Stroke-5" stroke="#FFFFFF"></line>
                            <line x1="1" y1="65.9309211" x2="1290" y2="65.9309211" id="Stroke-7" stroke="#FFFFFF"></line>
                            <line x1="1" y1="87.4769737" x2="1290" y2="87.4769737" id="Stroke-9" stroke="#FFFFFF"></line>
                            <line x1="1" y1="109.023026" x2="1290" y2="109.023026" id="Stroke-11" stroke="#FFFFFF"></line>
                            <line x1="282" y1="0.861842105" x2="89" y2="130.138158" id="Stroke-19" stroke="#FFFFFF"></line>
                            <line x1="311" y1="0.861842105" x2="134" y2="130.138158" id="Stroke-21" stroke="#FFFFFF"></line>
                            <line x1="340" y1="0.861842105" x2="178" y2="130.138158" id="Stroke-23" stroke="#FFFFFF"></line>
                            <line x1="369" y1="0.861842105" x2="223" y2="130.138158" id="Stroke-25" stroke="#FFFFFF"></line>
                            <line x1="398" y1="0.861842105" x2="267" y2="130.138158" id="Stroke-27" stroke="#FFFFFF"></line>
                            <line x1="427" y1="0.861842105" x2="311" y2="130.138158" id="Stroke-29" stroke="#FFFFFF"></line>
                            <line x1="456" y1="0.861842105" x2="356" y2="130.138158" id="Stroke-31" stroke="#FFFFFF"></line>
                            <line x1="486" y1="0.861842105" x2="401" y2="130.138158" id="Stroke-33" stroke="#FFFFFF"></line>
                            <line x1="514" y1="0.861842105" x2="445" y2="130.138158" id="Stroke-35" stroke="#FFFFFF"></line>
                            <line x1="544" y1="0.861842105" x2="490" y2="130.138158" id="Stroke-37" stroke="#FFFFFF"></line>
                            <line x1="573" y1="0.861842105" x2="534" y2="130.138158" id="Stroke-39" stroke="#FFFFFF"></line>
                            <line x1="602" y1="0.861842105" x2="579" y2="130.138158" id="Stroke-41" stroke="#FFFFFF"></line>
                            <line x1="631" y1="0.861842105" x2="623" y2="130.138158" id="Stroke-43" stroke="#FFFFFF"></line>
                            <line x1="660" y1="0.861842105" x2="668" y2="130.138158" id="Stroke-45" stroke="#FFFFFF"></line>
                            <line x1="689" y1="0.861842105" x2="712" y2="130.138158" id="Stroke-47" stroke="#FFFFFF"></line>
                            <line x1="718" y1="0.861842105" x2="757" y2="130.138158" id="Stroke-49" stroke="#FFFFFF"></line>
                            <line x1="747" y1="0.861842105" x2="801" y2="130.138158" id="Stroke-51" stroke="#FFFFFF"></line>
                            <line x1="777" y1="0.861842105" x2="846" y2="130.138158" id="Stroke-53" stroke="#FFFFFF"></line>
                            <line x1="805" y1="0.861842105" x2="890" y2="130.138158" id="Stroke-55" stroke="#FFFFFF"></line>
                            <line x1="835" y1="0.861842105" x2="935" y2="130.138158" id="Stroke-57" stroke="#FFFFFF"></line>
                            <line x1="864" y1="0.861842105" x2="980" y2="130.138158" id="Stroke-59" stroke="#FFFFFF"></line>
                            <line x1="893" y1="0.861842105" x2="1024" y2="130.138158" id="Stroke-61" stroke="#FFFFFF"></line>
                            <line x1="922" y1="0.861842105" x2="1068" y2="130.138158" id="Stroke-63" stroke="#FFFFFF"></line>
                            <line x1="951" y1="0.861842105" x2="1113" y2="130.138158" id="Stroke-65" stroke="#FFFFFF"></line>
                            <line x1="980" y1="0.861842105" x2="1157" y2="130.138158" id="Stroke-67" stroke="#FFFFFF"></line>
                            <line x1="1009" y1="0.861842105" x2="1202" y2="130.138158" id="Stroke-69" stroke="#FFFFFF"></line>
                        </g>
                        <rect id="Overlay" fill="url(#linearGradient-3)" x="269" y="0" width="754" height="131"></rect>
                    </g>
                </g>
            </g>
        </g>
    </g>
</svg>