<?xml version="1.0" encoding="UTF-8"?>
<svg width="1293px" height="133px" viewBox="0 0 1293 133" version="1.1" xmlns="http://www.w3.org/2000/svg" xmlns:xlink="http://www.w3.org/1999/xlink">
    <title>Group 2</title>
    <defs>
        <linearGradient x1="50%" y1="1.20405717%" x2="50%" y2="99.9620131%" id="linearGradient-1">
            <stop stop-color="#000000" offset="0%"></stop>
            <stop stop-color="#000000" stop-opacity="0" offset="99.9620131%"></stop>
        </linearGradient>
    </defs>
    <g id="Page-1" stroke="none" stroke-width="1" fill="none" fill-rule="evenodd" opacity="0.351438976">
        <g id="反馈-成功A" transform="translate(180.000000, -259.000000)">
            <g id="Group-75" transform="translate(90.000000, 0.000000)">
                <g id="Group-2" transform="translate(-269.000000, 259.000000)">
                    <g id="Group-75" transform="translate(0.000000, 1.000000)" stroke="#FFFFFF">
                        <line x1="1" y1="0.430921053" x2="1290" y2="0.430921053" id="Stroke-1"></line>
                        <line x1="1" y1="21.9769737" x2="1290" y2="21.9769737" id="Stroke-3"></line>
                        <line x1="1" y1="43.5230263" x2="1290" y2="43.5230263" id="Stroke-5"></line>
                        <line x1="1" y1="65.9309211" x2="1290" y2="65.9309211" id="Stroke-7"></line>
                        <line x1="1" y1="87.4769737" x2="1290" y2="87.4769737" id="Stroke-9"></line>
                        <line x1="1" y1="109.023026" x2="1290" y2="109.023026" id="Stroke-11"></line>
                        <line x1="1" y1="130.569079" x2="1290" y2="130.569079" id="Stroke-13"></line>
                        <line x1="224" y1="0.861842105" x2="0" y2="130.138158" id="Stroke-15"></line>
                        <line x1="253" y1="0.861842105" x2="45" y2="130.138158" id="Stroke-17"></line>
                        <line x1="282" y1="0.861842105" x2="89" y2="130.138158" id="Stroke-19"></line>
                        <line x1="311" y1="0.861842105" x2="134" y2="130.138158" id="Stroke-21"></line>
                        <line x1="340" y1="0.861842105" x2="178" y2="130.138158" id="Stroke-23"></line>
                        <line x1="369" y1="0.861842105" x2="223" y2="130.138158" id="Stroke-25"></line>
                        <line x1="398" y1="0.861842105" x2="267" y2="130.138158" id="Stroke-27"></line>
                        <line x1="427" y1="0.861842105" x2="311" y2="130.138158" id="Stroke-29"></line>
                        <line x1="456" y1="0.861842105" x2="356" y2="130.138158" id="Stroke-31"></line>
                        <line x1="486" y1="0.861842105" x2="401" y2="130.138158" id="Stroke-33"></line>
                        <line x1="514" y1="0.861842105" x2="445" y2="130.138158" id="Stroke-35"></line>
                        <line x1="544" y1="0.861842105" x2="490" y2="130.138158" id="Stroke-37"></line>
                        <line x1="573" y1="0.861842105" x2="534" y2="130.138158" id="Stroke-39"></line>
                        <line x1="602" y1="0.861842105" x2="579" y2="130.138158" id="Stroke-41"></line>
                        <line x1="631" y1="0.861842105" x2="623" y2="130.138158" id="Stroke-43"></line>
                        <line x1="660" y1="0.861842105" x2="668" y2="130.138158" id="Stroke-45"></line>
                        <line x1="689" y1="0.861842105" x2="712" y2="130.138158" id="Stroke-47"></line>
                        <line x1="718" y1="0.861842105" x2="757" y2="130.138158" id="Stroke-49"></line>
                        <line x1="747" y1="0.861842105" x2="801" y2="130.138158" id="Stroke-51"></line>
                        <line x1="777" y1="0.861842105" x2="846" y2="130.138158" id="Stroke-53"></line>
                        <line x1="805" y1="0.861842105" x2="890" y2="130.138158" id="Stroke-55"></line>
                        <line x1="835" y1="0.861842105" x2="935" y2="130.138158" id="Stroke-57"></line>
                        <line x1="864" y1="0.861842105" x2="980" y2="130.138158" id="Stroke-59"></line>
                        <line x1="893" y1="0.861842105" x2="1024" y2="130.138158" id="Stroke-61"></line>
                        <line x1="922" y1="0.861842105" x2="1068" y2="130.138158" id="Stroke-63"></line>
                        <line x1="951" y1="0.861842105" x2="1113" y2="130.138158" id="Stroke-65"></line>
                        <line x1="980" y1="0.861842105" x2="1157" y2="130.138158" id="Stroke-67"></line>
                        <line x1="1009" y1="0.861842105" x2="1202" y2="130.138158" id="Stroke-69"></line>
                        <line x1="1038" y1="0.861842105" x2="1246" y2="130.138158" id="Stroke-71"></line>
                        <line x1="1067" y1="0.861842105" x2="1291" y2="130.138158" id="Stroke-73"></line>
                    </g>
                    <rect id="Overlay" fill="url(#linearGradient-1)" x="269" y="0" width="754" height="131"></rect>
                </g>
            </g>
        </g>
    </g>
</svg>