<?xml version="1.0" encoding="UTF-8"?>
<svg width="24px" height="12px" viewBox="0 0 24 12" version="1.1" xmlns="http://www.w3.org/2000/svg" xmlns:xlink="http://www.w3.org/1999/xlink">
    <title>Logo em</title>
    <g id="Page-1" stroke="none" stroke-width="1" fill="none" fill-rule="evenodd">
        <g id="反馈-成功EN" transform="translate(-163.000000, -344.000000)" fill="#FFFFFF">
            <g id="Group-5" transform="translate(163.000000, 341.000000)">
                <g id="Logo-em" transform="translate(0.000000, 3.000000)">
                    <g id="Group-17" transform="translate(-0.000000, 0.000000)" fill-rule="nonzero">
                        <rect id="Rectangle-Copy-40" x="0.642741557" y="1.34687436" width="4.60565659" height="1"></rect>
                        <rect id="Rectangle-Copy-50" x="6.56430004" y="1.34687436" width="4.60565659" height="1"></rect>
                        <rect id="Rectangle-Copy-52" x="13.1438095" y="1.34687436" width="3.94770565" height="1"></rect>
                        <rect id="Rectangle-Copy-76" x="13.1438095" y="4.04062307" width="4.60565659" height="1"></rect>
                        <rect id="Rectangle-Copy-77" x="15.1176623" y="2.69374872" width="2.63180377" height="1"></rect>
                        <rect id="Rectangle-Copy-78" x="14.4597113" y="6.06093461" width="1.31590188" height="1"></rect>
                        <rect id="Rectangle-Copy-79" x="11.9594978" y="5.38749743" width="1.84226264" height="1"></rect>
                        <ellipse id="Oval-Copy-6" cx="5.90634909" cy="4.37734166" rx="1" ry="1.01015577"></ellipse>
                        <ellipse id="Oval-Copy-7" cx="17.5849783" cy="6.06093461" rx="1" ry="1"></ellipse>
                        <ellipse id="Oval-Copy-8" cx="22.8156883" cy="3.1988266" rx="1" ry="1"></ellipse>
                        <polygon id="Rectangle-Copy-80" transform="translate(13.472785, 2.357030) rotate(90.000000) translate(-13.472785, -2.357030) " points="12.4626292 2.02805465 14.4829407 2.02805465 14.4829407 2.6860056 12.4626292 2.6860056"></polygon>
                        <polygon id="Rectangle-Copy-81" transform="translate(17.420491, 3.703904) rotate(90.000000) translate(-17.420491, -3.703904) " points="16.4103348 3.37492901 18.4306463 3.37492901 18.4306463 4.03287995 16.4103348 4.03287995"></polygon>
                        <polygon id="Rectangle-Copy-82" transform="translate(15.446638, 4.714060) rotate(90.000000) translate(-15.446638, -4.714060) " points="13.4263262 4.38508478 17.4669493 4.38508478 17.4669493 5.04303572 13.4263262 5.04303572"></polygon>
                        <rect id="Rectangle-Copy-83" x="19.7233189" y="1.34687436" width="2.96077924" height="1"></rect>
                        <rect id="Rectangle-Copy-84" x="18.7363925" y="4.04062307" width="5.26360754" height="1"></rect>
                        <rect id="Rectangle-Copy-85" x="20.3812698" y="6.06093461" width="1.31590188" height="1"></rect>
                        <polygon id="Rectangle-Copy-86" transform="translate(21.368196, 4.545701) rotate(90.000000) translate(-21.368196, -4.545701) " points="19.1795254 4.21672549 23.5568671 4.21672549 23.5568671 4.87467643 19.1795254 4.87467643"></polygon>
                        <polygon id="Rectangle-Copy-87" transform="translate(22.921395, 1.320381) rotate(135.000000) translate(-22.921395, -1.320381) " points="22.2595723 0.995277543 23.5909604 0.979791306 23.5832173 1.64548537 22.2518292 1.6609716"></polygon>
                        <polygon id="Rectangle-Copy-88" transform="translate(20.052294, 3.535545) rotate(-270.000000) translate(-20.052294, -3.535545) " points="19.2104979 3.20656972 20.8940908 3.20656972 20.8940908 3.86452066 19.2104979 3.86452066"></polygon>
                        <polygon id="Rectangle-Copy-89" transform="translate(3.603521, 4.714060) rotate(-270.000000) translate(-3.603521, -4.714060) " points="2.25664644 4.38508478 4.95039515 4.38508478 4.95039515 5.04303572 2.25664644 5.04303572"></polygon>
                        <polygon id="Rectangle-Copy-90" transform="translate(11.586448, 4.735644) rotate(60.000000) translate(-11.586448, -4.735644) " points="10.2439638 4.39132173 12.9222263 4.41814468 12.928932 5.07996718 10.2506696 5.05314423"></polygon>
                        <polygon id="Rectangle-Copy-91" transform="translate(8.209177, 4.377342) rotate(-270.000000) translate(-8.209177, -4.377342) " points="6.52558444 4.04836619 9.89277034 4.04836619 9.89277034 4.70631713 6.52558444 4.70631713"></polygon>
                        <polygon id="Rectangle-Copy-92" transform="translate(9.525079, 4.377342) rotate(-270.000000) translate(-9.525079, -4.377342) " points="7.16804915 4.04836619 11.8821094 4.04836619 11.8821094 4.70631713 7.16804915 4.70631713"></polygon>
                        <polygon id="Rectangle-Copy-93" transform="translate(6.893276, 1.010156) rotate(-270.000000) translate(-6.893276, -1.010156) " points="5.88311974 0.681180297 7.90343127 0.681180297 7.90343127 1.33913124 5.88311974 1.33913124"></polygon>
                        <polygon id="Rectangle-Copy-94" transform="translate(2.675209, 4.167961) rotate(-45.000000) translate(-2.675209, -4.167961) " points="-0.649389289 3.87383005 6.00755132 3.79639887 5.9998082 4.46209293 -0.657132407 4.53952411"></polygon>
                    </g>
                    <g id="Group-4" transform="translate(0.116381, 8.148684)">
                        <path d="M1.31764157,2.39888751 C1.52487802,2.27619032 1.64602222,2.04885113 1.63104356,1.79294322 L1.98626081,1.79631103 C2.0097705,2.16794315 1.81404498,2.53234318 1.49809432,2.71940611 C1.01057906,3.00804623 0.4173332,2.8715399 0.131943248,2.36463276 C-0.139716603,1.88211291 0.0218194369,1.2638886 0.490649441,0.986311351 C0.998548613,0.685602662 1.56698098,0.878606936 1.84844804,1.37854628 L0.487821834,2.18412374 C0.656961083,2.47650167 0.972813702,2.60304759 1.31764157,2.39888751 Z M0.670506214,1.28163423 C0.417405958,1.43148571 0.339131855,1.67060465 0.383968448,1.91115737 L1.34031371,1.34494 C1.14958478,1.17915186 0.879441325,1.15793132 0.670506214,1.28163423 Z" id="Shape-Copy"></path>
                        <path d="M5.73446376,0.878806896 L5.73446376,3.82152805 L5.34431674,3.82152805 L5.34431674,0.878806896 L5.73446376,0.878806896 Z M5.53158731,0 C5.68331115,0 5.80153752,0.122279244 5.80153752,0.274627155 C5.80153752,0.428979644 5.68331115,0.54925431 5.53158731,0.54925431 C5.38183391,0.54925431 5.26360754,0.428979644 5.26360754,0.274627155 C5.26360754,0.122279244 5.38183391,0 5.53158731,0 Z" id="Combined-Shape-Copy"></path>
                        <path d="M7.62798847,2.86061719 C7.07463246,2.86061719 6.64530451,2.40804559 6.64530451,1.85289108 C6.64530451,1.29572515 7.07463246,0.843153546 7.62798847,0.843153546 C8.18325261,0.843153546 8.61258055,1.29572515 8.61258055,1.85289108 C8.61258055,2.40804559 8.18325261,2.86061719 7.62798847,2.86061719 Z" id="Path-Copy-6"></path>
                        <polygon id="Path-Copy-7" points="11.0656708 0.91060583 11.4991497 0.91060583 10.2242118 3.85131555 9.79073287 3.85131555 10.2869779 2.70882368 9.44159602 0.91060583 9.89665079 0.91060583 10.4890066 2.24217207"></polygon>
                        <path d="M16.7806309,2.85411475 C16.3275375,2.85411475 15.9882079,2.57452607 15.9882079,2.05758872 L15.9882079,0.876879688 L16.3765736,0.876879688 L16.3765736,2.049543 C16.3765736,2.34321169 16.5472191,2.49004603 16.7806309,2.49004603 C17.0179654,2.49004603 17.1866495,2.34321169 17.1866495,2.049543 L17.1866495,0.876879688 L17.5750153,0.876879688 L17.5750153,2.05758872 C17.5750153,2.57452607 17.2337242,2.85411475 16.7806309,2.85411475 Z" id="Path-Copy-8"></path>
                        <path d="M3.62161201,2.82038861 C3.16851868,2.82038861 2.82918905,2.54079993 2.82918905,2.02386258 L2.82918905,0.843153546 L3.21755476,0.843153546 L3.21755476,2.01581686 C3.21755476,2.30948555 3.3882003,2.45631989 3.62161201,2.45631989 C3.85894661,2.45631989 4.0276307,2.30948555 4.0276307,2.01581686 L4.0276307,0.843153546 L4.41599641,0.843153546 L4.41599641,2.02386258 C4.41599641,2.54079993 4.07470533,2.82038861 3.62161201,2.82038861 Z" id="Path-Copy-13" transform="translate(3.622593, 1.831771) scale(1, -1) translate(-3.622593, -1.831771) "></path>
                        <path d="M14.3670112,2.82038861 C13.9139179,2.82038861 13.5745883,2.54079993 13.5745883,2.02386258 L13.5745883,0.843153546 L13.962954,0.843153546 L13.962954,2.01581686 C13.962954,2.30948555 14.1335995,2.45631989 14.3670112,2.45631989 C14.6043458,2.45631989 14.7730299,2.30948555 14.7730299,2.01581686 L14.7730299,0.843153546 L15.1613956,0.843153546 L15.1613956,2.02386258 C15.1613956,2.54079993 14.8201046,2.82038861 14.3670112,2.82038861 Z" id="Path-Copy-9" transform="translate(14.367992, 1.831771) scale(1, -1) translate(-14.367992, -1.831771) "></path>
                        <path d="M13.1619007,2.82038861 C12.7088073,2.82038861 12.3694777,2.54079993 12.3694777,2.02386258 L12.3694777,0.843153546 L12.7578434,0.843153546 L12.7578434,2.01581686 C12.7578434,2.30948555 12.928489,2.45631989 13.1619007,2.45631989 C13.3992353,2.45631989 13.5679194,2.30948555 13.5679194,2.01581686 L13.5679194,0.843153546 L13.9562851,0.843153546 L13.9562851,2.02386258 C13.9562851,2.54079993 13.614994,2.82038861 13.1619007,2.82038861 Z" id="Path-Copy-10" transform="translate(13.162881, 1.831771) scale(1, -1) translate(-13.162881, -1.831771) "></path>
                        <path d="M19.1640518,2.86061719 C18.8502209,2.86061719 18.5344286,2.69567999 18.4226264,2.39396558 L18.779609,2.25316553 C18.814915,2.41810273 18.9894834,2.51666277 19.156206,2.51666277 C19.3072372,2.51666277 19.4386538,2.42815988 19.4386538,2.27730268 C19.4386538,2.09225118 19.2523168,2.04397687 19.0502881,1.97961113 C18.7933391,1.89915396 18.4951998,1.80059392 18.4951998,1.42043377 C18.4951998,1.05837649 18.7874548,0.843153546 19.1405145,0.843153546 C19.4347309,0.843153546 19.6956029,1.00004504 19.7975979,1.27359943 L19.4406153,1.39629662 C19.4053093,1.24342799 19.2640854,1.17101653 19.124823,1.17101653 C18.9757533,1.17101653 18.8698354,1.25951942 18.8698354,1.39026233 C18.8698354,1.55721097 19.0502881,1.60548527 19.2562396,1.66783958 C19.5229959,1.75231962 19.8270195,1.8609368 19.8270195,2.25517696 C19.8270195,2.63734853 19.5249573,2.86061719 19.1640518,2.86061719 Z" id="Path-Copy-14"></path>
                        <path d="M21.1049789,0.895693022 L21.1049789,2.83269949 L20.7148319,2.83269949 L20.7148319,0.895693022 L21.1049789,0.895693022 Z M20.9099054,0.101178426 C21.051777,0.101178426 21.1562103,0.21180704 21.1562103,0.356629954 C21.1562103,0.501452868 21.051777,0.608058624 20.9099054,0.608058624 C20.7660633,0.608058624 20.6596596,0.501452868 20.6596596,0.356629954 C20.6596596,0.21180704 20.7660633,0.101178426 20.9099054,0.101178426 Z" id="Combined-Shape-Copy-3"></path>
                        <path d="M22.9931034,2.86061719 C22.4497837,2.86061719 22.008459,2.41005702 22.008459,1.85289108 C22.008459,1.29572515 22.4497837,0.843153546 22.9931034,0.843153546 C23.3736233,0.843153546 23.7109915,1.06642221 23.8757527,1.4083652 L23.5540761,1.58939384 C23.4540425,1.36411375 23.2363223,1.22130227 22.9931034,1.22130227 C22.6557352,1.22130227 22.3772103,1.50692523 22.3772103,1.85289108 C22.3772103,2.19885693 22.6557352,2.4844799 22.9931034,2.4844799 C23.2363223,2.4844799 23.4540425,2.33965699 23.5501532,2.11638833 L23.8718298,2.30345126 C23.7149144,2.63935996 23.3657775,2.86061719 22.9931034,2.86061719 Z" id="Path-Copy-15"></path>
                    </g>
                </g>
            </g>
        </g>
    </g>
</svg>