<?xml version="1.0" encoding="UTF-8"?>
<svg width="264px" height="335px" viewBox="0 0 264 335" version="1.1" xmlns="http://www.w3.org/2000/svg" xmlns:xlink="http://www.w3.org/1999/xlink">
    <title>Combined Shape</title>
    <g id="Page-1" stroke="none" stroke-width="1" fill="none" fill-rule="evenodd">
        <g id="反馈-成功" transform="translate(-508.000000, -32.000000)" fill="#FFFFFF">
            <g id="Feedback-picture" transform="translate(508.000000, 32.000000)">
                <path d="M264,324 L260.814836,324 L260.814836,333.538838 L257.568086,333.538838 L257.568086,330.5 L254.664519,330.5 L254.664519,324 L252.504833,324 L252.504833,325.218819 L250.699744,325.218819 L250.699744,329.54788 L248.5,329.54788 L248.5,328.045438 L246.444892,328.045438 L246.444892,324 L244.42916,324 L244.42916,332.173068 L242.502227,332.173068 L242.502227,328.899428 L239.338594,328.899428 L239.338594,324 L237,324 L237,326.994423 L235.340873,326.994423 L235.340873,332.173068 L232.076437,332.173068 L232.076437,328.899428 L230.042357,328.899428 L230.042357,325.218819 L227.770286,325.218819 L227.770286,330.5 L225.513451,330.5 L225.513451,334.143147 L221.889652,334.143147 L221.889652,326.994423 L218.495921,326.994423 L218.495921,324 L215.030554,324 L215.030554,328.899428 L212.940677,328.899428 L212.940677,325.218819 L210.950292,325.218819 L210.950292,324 L209.523923,324 L209.523923,325.997116 L206.604647,325.997116 L206.604647,329.54788 L202.961477,329.54788 L202.961477,324 L200.838409,324 L200.838409,325.997116 L198.799181,325.997116 L198.799181,328.899428 L194.718175,328.899428 L194.718175,324 L190.076093,324 L190.076093,331.244189 L186.64676,331.244189 L186.64676,328.045438 L184.999317,328.045438 L184.999317,324 L180.713517,324 L180.713517,325.997116 L177.317795,325.997116 L177.317795,328.045438 L171.299634,328.045438 L171.299634,324 L169.220964,324 L169.220964,330.5 L166.669832,330.5 L166.669832,325.218819 L164.08104,325.218819 L164.08104,326.994423 L161.794809,326.994423 L161.794809,329.54788 L157.600166,329.54788 L157.600166,324 L155.414825,324 L155.414825,326.994423 L151.313091,326.994423 L151.313091,328.899428 L148.070303,328.899428 L148.070303,324 L144.876235,324 L144.876235,325.218819 L141.854132,325.218819 L141.854132,328.045438 L139.502527,328.045438 L139.502527,324 L136.093339,324 L136.093339,331.244189 L132.899343,331.244189 L132.899343,326.994423 L130.579509,326.994423 L130.579509,324 L129.234673,324 L129.234673,329.54788 L126.91491,329.54788 L126.91491,333.538838 L124.326109,333.538838 L124.326109,324 L121.459093,324 L121.459093,330.5 L119.273725,330.5 L119.273725,326.994423 L117.155616,326.994423 L117.155616,324 L114,324 L114,329.54788 L109.355546,329.54788 L109.355546,325.218819 L107.322383,325.218819 L107.322383,328.045438 L103.960274,328.045438 L103.960274,324 L99.9930061,324 L99.9930061,330.5 L96.0593412,330.5 L96.0593412,326.994423 L92.630008,326.994423 L92.630008,324 L89.3351494,324 L89.3351494,332.173068 L85.8049535,332.173068 L85.8049535,328.045438 L81.8376766,328.045438 L81.8376766,324 L77.9494471,324 L77.9494471,325.997116 L74.9908067,325.997116 L74.9908067,329.54788 L72.2338558,329.54788 L72.2338558,324 L69,324 L69,326.994423 L66.053479,326.994423 L66.053479,332.173068 L62.9939758,332.173068 L62.9939758,330.5 L60.6893407,330.5 L60.6893407,324 L59,324 L59,325.997116 L57.1463097,325.997116 L57.1463097,328.899428 L50.9455412,328.899428 L50.9455412,324 L44.4865649,324 L44.4865649,332.173068 L39.6148182,332.173068 L39.6148182,324 L34.6725348,324 L34.6725348,328.899428 L30.8397417,328.899428 L30.8397417,325.218819 L27,325.218819 L27,326.994423 L24.0542063,326.994423 L24.0542063,324 L20.4157591,324 L20.4157591,330.5 L16.9821974,330.5 L16.9821974,324 L14,324 L14,325.997116 L9.9959301,325.997116 L9.9959301,328.899428 L4.68928504,328.899428 L4.68928504,324 L0,324 L0,0 L264,0 L264,324 Z" id="Combined-Shape"></path>
            </g>
        </g>
    </g>
</svg>