<?xml version="1.0" encoding="UTF-8"?>
<svg width="754px" height="390px" viewBox="0 0 754 390" version="1.1" xmlns="http://www.w3.org/2000/svg" xmlns:xlink="http://www.w3.org/1999/xlink">
    <title>Text background</title>
    <defs>
        <rect id="path-1" x="0" y="0" width="754" height="390"></rect>
    </defs>
    <g id="Page-1" stroke="none" stroke-width="1" fill="none" fill-rule="evenodd">
        <g id="编辑信息" transform="translate(-90.000000, 0.000000)">
            <g id="Text-background" transform="translate(90.000000, 0.000000)">
                <mask id="mask-2" fill="white">
                    <use xlink:href="#path-1"></use>
                </mask>
                <g id="Mask"></g>
                <g id="Back-text" mask="url(#mask-2)">
                    <g transform="translate(-39.000000, 0.000000)">
                        <path d="M11.1285247,22.7817259 L16.2054064,0.812182741 L7.22947954,0.812182741 L5.68434189e-14,22.7817259 L11.1285247,22.7817259 Z M28.4305375,22.7817259 L33.5074192,0.812182741 L24.5314924,0.812182741 L17.3020128,22.7817259 L28.4305375,22.7817259 Z M61.2068857,63.1878173 C82.0830233,63.1878173 96.4607522,51.5329949 96.4607522,31.8375635 C96.4607522,12.3045685 82.0017932,0.812182741 61.2068857,0.812182741 L44.0673331,0.812182741 L44.0673331,63.1878173 L61.2068857,63.1878173 Z M61.2068857,51.5329949 L56.6173847,51.5329949 L56.6173847,12.4670051 L61.2068857,12.4670051 C75.5846147,12.4670051 83.9919308,18.8426396 83.9919308,31.8375635 C83.9919308,44.7918782 75.5846147,51.5329949 61.2068857,51.5329949 Z M117.49935,63.1878173 L117.49935,0.812182741 L105.030529,0.812182741 L105.030529,63.1878173 L117.49935,63.1878173 Z M136.872731,63.1878173 L140.812391,53.035533 L165.628188,53.035533 L169.567849,63.1878173 L183.133277,63.1878173 L157.099027,0.812182741 L149.382167,0.812182741 L123.226073,63.1878173 L136.872731,63.1878173 Z M161.282378,41.8274112 L145.117586,41.8274112 L153.199982,20.9543147 L161.282378,41.8274112 Z M225.169857,63.1878173 L225.169857,51.5329949 L201.369436,51.5329949 L201.369436,0.812182741 L188.900614,0.812182741 L188.900614,63.1878173 L225.169857,63.1878173 Z M259.042812,64 C276.669745,64 291.209934,49.7055838 291.209934,32 C291.209934,14.3756345 276.669745,0 259.042812,0 C241.375263,0 226.835074,14.3756345 226.835074,32 C226.835074,49.7055838 241.375263,64 259.042812,64 Z M259.042812,51.5329949 C248.279822,51.5329949 239.303896,42.7208122 239.303896,32 C239.303896,21.2791878 248.117362,12.4670051 259.042812,12.4670051 C269.765186,12.4670051 278.741113,21.2791878 278.741113,32 C278.741113,42.7208122 269.765186,51.5329949 259.042812,51.5329949 Z M327.073026,64 C332.068678,64 337.104945,62.8629442 340.800915,59.3705584 L341.369525,63.1878173 L353.026046,63.1878173 L353.026046,27.857868 L326.788721,27.857868 L326.788721,39.4720812 L340.516609,39.4720812 L340.516609,46.1725888 C336.983099,49.5025381 332.231138,51.5329949 327.073026,51.5329949 C316.310037,51.5329949 307.33411,42.7208122 307.33411,32 C307.33411,21.2791878 316.147577,12.4670051 327.073026,12.4670051 C333.44959,12.4670051 339.298158,15.6345178 342.872282,20.4263959 L351.929439,11.7766497 C346.040256,4.54822335 337.023715,0 327.073026,0 C309.405478,0 294.865289,14.3756345 294.865289,32 C294.865289,49.7055838 309.405478,64 327.073026,64 Z M387.630071,64 C401.236114,64 412.567714,57.6243655 412.567714,42.071066 L412.567714,0.812182741 L399.855202,0.812182741 L399.855202,40.4060914 C399.855202,48.5685279 395.346931,51.7766497 387.630071,51.7766497 C379.953826,51.7766497 375.364325,48.5685279 375.364325,40.4060914 L375.364325,0.812182741 L362.651813,0.812182741 L362.651813,42.071066 C362.651813,57.6243655 374.227104,64 387.630071,64 Z M462.646075,63.1878173 L462.646075,51.5329949 L437.099207,51.5329949 L437.099207,37.6446701 L459.396871,37.6446701 L459.396871,26.0304569 L437.099207,26.0304569 L437.099207,12.4670051 L462.646075,12.4670051 L462.646075,0.812182741 L424.630385,0.812182741 L424.630385,63.1878173 L462.646075,63.1878173 Z M508.216165,63.1878173 L508.216165,0.812182741 L495.747344,0.812182741 L495.747344,63.1878173 L508.216165,63.1878173 Z M533.681804,63.2690355 L533.681804,25.6243655 L567.270453,63.1878173 L574.337473,63.1878173 L574.337473,0.812182741 L562.193572,0.812182741 L562.193572,39.3908629 L528.198772,0.812182741 L521.537903,0.812182741 L521.537903,63.2690355 L533.681804,63.2690355 Z M627.096427,64 C638.549872,64 648.703636,58.1116751 648.703636,45.6446701 C648.703636,34.680203 640.743085,30.7411168 632.74192,27.5736041 C626.081051,24.9340102 619.663872,23.1878173 619.663872,17.8680203 C619.663872,13.6040609 623.684763,11.2893401 627.583808,11.2893401 C631.726543,11.2893401 635.056978,13.8883249 636.478505,17.5431472 L647.525799,12.3857868 C643.707984,3.2893401 635.300668,0 627.665038,0 C616.780204,0 607.357511,6.70050761 607.357511,18.1116751 C607.357511,30.4974619 618.526651,34.3959391 626.243511,37.319797 C632.82315,39.8375635 636.234814,41.3807107 636.234814,45.6446701 C636.234814,50.2335025 632.335769,52.8730964 627.340117,52.8730964 C621.857085,52.8730964 616.861434,49.6243655 615.439907,44.2233503 L604.473842,49.3807107 C607.276281,58.680203 616.170978,64 627.096427,64 Z M669.742233,63.1878173 L669.742233,39.3908629 L683.307661,39.3908629 C695.370332,39.3908629 701.665665,30.0101523 701.665665,20.1015228 C701.665665,10.2741117 695.289102,0.812182741 683.307661,0.812182741 L657.273412,0.812182741 L657.273412,63.1878173 L669.742233,63.1878173 Z M681.073833,27.7766497 L669.742233,27.7766497 L669.742233,12.4670051 L681.073833,12.4670051 C686.556866,12.4670051 689.196844,15.4314721 689.196844,19.7766497 C689.196844,24.0812183 686.556866,27.7766497 681.073833,27.7766497 Z M715.393554,63.1878173 L719.333214,53.035533 L744.149012,53.035533 L748.088672,63.1878173 L761.6541,63.1878173 L735.61985,0.812182741 L727.90299,0.812182741 L701.746896,63.1878173 L715.393554,63.1878173 Z M739.803201,41.8274112 L723.638409,41.8274112 L731.720805,20.9543147 L739.803201,41.8274112 Z M794.795983,64 C804.909132,64 814.006904,59.2893401 819.896086,51.9796954 L810.757699,43.4111675 C807.102345,48.284264 801.253777,51.5329949 794.795983,51.5329949 C784.032994,51.5329949 775.057067,42.7208122 775.057067,32 C775.057067,21.2791878 783.870534,12.4670051 794.795983,12.4670051 C801.172547,12.4670051 807.021114,15.6345178 810.595239,20.4263959 L819.652396,11.7766497 C813.763213,4.54822335 804.746671,0 794.795983,0 C777.128435,0 762.588246,14.3756345 762.588246,32 C762.588246,49.7055838 777.128435,64 794.795983,64 Z M864.653875,63.1878173 L864.653875,51.5329949 L839.107007,51.5329949 L839.107007,37.6446701 L861.404671,37.6446701 L861.404671,26.0304569 L839.107007,26.0304569 L839.107007,12.4670051 L864.653875,12.4670051 L864.653875,0.812182741 L826.638185,0.812182741 L826.638185,63.1878173 L864.653875,63.1878173 Z M881.427893,22.7817259 L888.697987,0.812182741 L877.528847,0.812182741 L872.451966,22.7817259 L881.427893,22.7817259 Z M898.729905,22.7817259 L906,0.812182741 L894.83086,0.812182741 L889.753979,22.7817259 L898.729905,22.7817259 Z" id="“DIALOGUEINSPACE”" stroke="#FFFFFF" stroke-width="0.5" opacity="0.502290289" fill-rule="nonzero"></path>
                        <g id="Group-5" opacity="0.500979469" stroke="none" stroke-width="1" fill-rule="evenodd" transform="translate(71.000000, 350.000000) rotate(-90.000000) translate(-71.000000, -350.000000) translate(-151.000000, 318.000000)">
                            <path d="M179.020189,64 C196.544479,64 211,49.7055838 211,32 C211,14.3756345 196.544479,0 179.020189,0 C161.455521,0 147,14.3756345 147,32 C147,49.7055838 161.455521,64 179.020189,64 Z" id="Path" stroke="#FFFFFF" stroke-width="0.5" fill-rule="nonzero"></path>
                            <path d="M179.020597,53 C168.104016,53 159,44.2027027 159,33.5 C159,22.7972973 167.939238,14 179.020597,14 C189.895984,14 199,22.7972973 199,33.5 C199,44.2027027 189.895984,53 179.020597,53 Z" id="Path" stroke="#FFFFFF" stroke-width="0.5" fill-rule="nonzero"></path>
                            <path d="M225.102041,64 C233.22449,64 238,60.3560411 238,47.1973008 L238,1 L225.469388,1 L225.469388,46.9543702 C225.469388,50.3553985 223.55102,51.812982 220.693878,51.812982 C218.77551,51.812982 216.489796,51.1651671 214,49.9100257 L214,62.4614396 C218.163265,63.433162 221.877551,64 225.102041,64 Z" id="Path" stroke="#FFFFFF" stroke-width="0.5" fill-rule="nonzero"></path>
                            <polygon id="Path" stroke="#FFFFFF" stroke-width="0.5" fill-rule="nonzero" points="289 64 289 52.2285156 263.463675 52.2285156 263.463675 38.2011719 285.752137 38.2011719 285.752137 26.4707031 263.463675 26.4707031 263.463675 12.7714844 289 12.7714844 289 1 251 1 251 64"></polygon>
                            <path d="M327.034727,64 C337.093551,64 346.142452,59.2893401 352,51.9796954 L342.910702,43.4111675 C339.274982,48.284264 333.457831,51.5329949 327.034727,51.5329949 C316.329554,51.5329949 307.401843,42.7208122 307.401843,32 C307.401843,21.2791878 316.167966,12.4670051 327.034727,12.4670051 C333.377038,12.4670051 339.194189,15.6345178 342.749114,20.4263959 L351.757619,11.7766497 C345.900071,4.54822335 336.931963,0 327.034727,0 C309.462084,0 295,14.3756345 295,32 C295,49.7055838 309.462084,64 327.034727,64 Z" id="Path" stroke="#FFFFFF" stroke-width="0.5" fill-rule="nonzero"></path>
                            <polygon id="Path" stroke="#FFFFFF" stroke-width="0.5" fill-rule="nonzero" points="382.190955 64 382.190955 12.7714844 400 12.7714844 400 1 352 1 352 12.7714844 369.768844 12.7714844 369.768844 64"></polygon>
                            <polygon id="Path" stroke="#FFFFFF" stroke-width="0.5" fill-rule="nonzero" points="418.84 23 426 1 415 1 410 23"></polygon>
                            <polygon id="Path" stroke="#FFFFFF" stroke-width="0.5" fill-rule="nonzero" points="436.84 23 444 1 433 1 428 23"></polygon>
                        </g>
                        <g id="Group-6" opacity="0.503698" stroke="none" stroke-width="1" fill-rule="evenodd" transform="translate(761.000000, 296.500000) rotate(-90.000000) translate(-761.000000, -296.500000) translate(659.000000, 265.000000)">
                            <polygon id="Path-Copy-8" stroke="#FFFFFF" stroke-width="0.5" fill-rule="nonzero" points="10.9874687 22 16 0 7.13784461 0 0 22"></polygon>
                            <polygon id="Path-Copy-9" stroke="#FFFFFF" stroke-width="0.5" fill-rule="nonzero" points="27.9874687 22 33 0 24.1378446 0 17 22"></polygon>
                            <polygon id="Path-Copy" stroke="#FFFFFF" stroke-width="0.5" fill-rule="nonzero" points="38.8955932 63 42.9071186 52.7460938 68.1755932 52.7460938 72.1871186 63 86 63 59.4908475 0 51.6332203 0 25 63"></polygon>
                            <polygon id="Path-Copy-2" stroke="#FFFFFF" stroke-width="0.5" fill-rule="nonzero" points="63 42 47 42 55 21"></polygon>
                            <polygon id="Path-Copy-3" stroke="#FFFFFF" stroke-width="0.5" fill-rule="nonzero" points="104 63 104 0 91 0 91 63"></polygon>
                            <path d="M129.310147,63 L129.310147,37.734375 L139.896072,37.734375 L152.126023,63 L166,63 L152.126023,35.9296875 C157.98036,33.0585938 161.909984,26.9472656 161.909984,18.6621094 C161.909984,6.890625 152.968085,0 142.542553,0 L117,0 L117,63 L129.310147,63 Z" id="Path-Copy-4" stroke="#FFFFFF" stroke-width="0.5" fill-rule="nonzero"></path>
                            <path d="M140.781496,27 L129,27 L129,12 L140.781496,12 C147.354331,12 150,14.7459016 150,19.6229508 C150,24.4180328 147.354331,27 140.781496,27 Z" id="Path-Copy-5" stroke="#FFFFFF" stroke-width="0.5" fill-rule="nonzero"></path>
                            <polygon id="Path-Copy-6" stroke="#FFFFFF" stroke-width="0.5" fill-rule="nonzero" points="178.84 22 186 0 175 0 170 22"></polygon>
                            <polygon id="Path-Copy-7" stroke="#FFFFFF" stroke-width="0.5" fill-rule="nonzero" points="196.84 22 204 0 193 0 188 22"></polygon>
                        </g>
                    </g>
                </g>
            </g>
        </g>
    </g>
</svg>