<?xml version="1.0" encoding="UTF-8"?>
<svg width="321px" height="76px" viewBox="0 0 321 76" version="1.1" xmlns="http://www.w3.org/2000/svg" xmlns:xlink="http://www.w3.org/1999/xlink">
    <title>feedback title</title>
    <g id="Page-1" stroke="none" stroke-width="1" fill="none" fill-rule="evenodd">
        <g id="反馈-成功EN" transform="translate(-162.000000, -205.000000)" fill="#FFFFFF" fill-rule="nonzero">
            <path d="M168.948,220 L168.948,208.894 L172.728,208.894 L172.728,206.662 L162.54,206.662 L162.54,208.894 L166.284,208.894 L166.284,220 L168.948,220 Z M176.948,220 L176.948,213.07 C177.32,212.698 177.659,212.416 177.965,212.224 C178.271,212.032 178.628,211.936 179.036,211.936 C179.528,211.936 179.888,212.092 180.116,212.404 C180.344,212.716 180.458,213.262 180.458,214.042 L180.458,214.042 L180.458,220 L183.104,220 L183.104,213.718 C183.104,212.446 182.858,211.453 182.366,210.739 C181.874,210.025 181.082,209.668 179.99,209.668 C179.306,209.668 178.709,209.818 178.199,210.118 C177.689,210.418 177.23,210.76 176.822,211.144 L176.822,211.144 L176.948,209.254 L176.948,205.636 L174.302,205.636 L174.302,220 L176.948,220 Z M187.936,220.252 C188.512,220.252 189.052,220.123 189.556,219.865 C190.06,219.607 190.534,219.292 190.978,218.92 L190.978,218.92 L191.05,218.92 L191.23,220 L193.39,220 L193.39,214.114 C193.39,212.65 193.066,211.543 192.418,210.793 C191.77,210.043 190.804,209.668 189.52,209.668 C188.728,209.668 187.978,209.797 187.27,210.055 C186.562,210.313 185.908,210.628 185.308,211 L185.308,211 L186.262,212.746 C186.73,212.47 187.192,212.242 187.648,212.062 C188.104,211.882 188.566,211.792 189.034,211.792 C189.658,211.792 190.096,211.96 190.348,212.296 C190.6,212.632 190.738,213.046 190.762,213.538 C188.734,213.754 187.258,214.159 186.334,214.753 C185.41,215.347 184.948,216.184 184.948,217.264 C184.948,217.828 185.071,218.338 185.317,218.794 C185.563,219.25 185.911,219.607 186.361,219.865 C186.811,220.123 187.336,220.252 187.936,220.252 Z M188.8,218.182 C188.416,218.182 188.098,218.092 187.846,217.912 C187.594,217.732 187.468,217.444 187.468,217.048 C187.468,216.592 187.708,216.202 188.188,215.878 C188.668,215.554 189.526,215.314 190.762,215.158 L190.762,215.158 L190.762,217.192 C190.438,217.504 190.126,217.747 189.826,217.921 C189.526,218.095 189.184,218.182 188.8,218.182 Z M198.366,220 L198.366,213.07 C198.738,212.698 199.077,212.416 199.383,212.224 C199.689,212.032 200.046,211.936 200.454,211.936 C200.946,211.936 201.306,212.092 201.534,212.404 C201.762,212.716 201.876,213.262 201.876,214.042 L201.876,214.042 L201.876,220 L204.522,220 L204.522,213.718 C204.522,212.446 204.276,211.453 203.784,210.739 C203.292,210.025 202.5,209.668 201.408,209.668 C200.724,209.668 200.118,209.824 199.59,210.136 C199.062,210.448 198.576,210.82 198.132,211.252 L198.132,211.252 L198.078,211.252 L197.88,209.92 L195.72,209.92 L195.72,220 L198.366,220 Z M209.498,220 L209.498,217.444 L210.92,215.824 L213.368,220 L216.23,220 L212.45,214.078 L215.906,209.92 L213.008,209.92 L209.57,214.258 L209.498,214.258 L209.498,205.636 L206.888,205.636 L206.888,220 L209.498,220 Z M222.006,224.05 C222.762,224.05 223.398,223.903 223.914,223.609 C224.43,223.315 224.871,222.889 225.237,222.331 C225.603,221.773 225.93,221.098 226.218,220.306 L226.218,220.306 L229.8,209.92 L227.262,209.92 L225.876,214.6 C225.756,215.068 225.636,215.542 225.516,216.022 C225.396,216.502 225.276,216.976 225.156,217.444 L225.156,217.444 L225.066,217.444 C224.922,216.952 224.784,216.466 224.652,215.986 C224.52,215.506 224.376,215.044 224.22,214.6 L224.22,214.6 L222.618,209.92 L219.954,209.92 L223.878,219.82 L223.698,220.414 C223.554,220.858 223.332,221.224 223.032,221.512 C222.732,221.8 222.324,221.944 221.808,221.944 C221.688,221.944 221.565,221.929 221.439,221.899 C221.313,221.869 221.202,221.842 221.106,221.818 L221.106,221.818 L220.62,223.852 C220.824,223.912 221.031,223.96 221.241,223.996 C221.451,224.032 221.706,224.05 222.006,224.05 Z M235.154,220.252 C235.994,220.252 236.783,220.045 237.521,219.631 C238.259,219.217 238.856,218.614 239.312,217.822 C239.768,217.03 239.996,216.076 239.996,214.96 C239.996,213.844 239.768,212.893 239.312,212.107 C238.856,211.321 238.259,210.718 237.521,210.298 C236.783,209.878 235.994,209.668 235.154,209.668 C234.314,209.668 233.525,209.878 232.787,210.298 C232.049,210.718 231.452,211.321 230.996,212.107 C230.54,212.893 230.312,213.844 230.312,214.96 C230.312,216.076 230.54,217.03 230.996,217.822 C231.452,218.614 232.049,219.217 232.787,219.631 C233.525,220.045 234.314,220.252 235.154,220.252 Z M235.154,218.092 C234.47,218.092 233.942,217.807 233.57,217.237 C233.198,216.667 233.012,215.908 233.012,214.96 C233.012,214.012 233.198,213.253 233.57,212.683 C233.942,212.113 234.47,211.828 235.154,211.828 C235.838,211.828 236.366,212.113 236.738,212.683 C237.11,213.253 237.296,214.012 237.296,214.96 C237.296,215.908 237.11,216.667 236.738,217.237 C236.366,217.807 235.838,218.092 235.154,218.092 Z M244.846,220.252 C245.53,220.252 246.127,220.099 246.637,219.793 C247.147,219.487 247.618,219.076 248.05,218.56 L248.05,218.56 L248.122,218.56 L248.32,220 L250.48,220 L250.48,209.92 L247.834,209.92 L247.834,216.724 C247.498,217.168 247.177,217.489 246.871,217.687 C246.565,217.885 246.202,217.984 245.782,217.984 C245.302,217.984 244.948,217.825 244.72,217.507 C244.492,217.189 244.378,216.646 244.378,215.878 L244.378,215.878 L244.378,209.92 L241.732,209.92 L241.732,216.22 C241.732,217.48 241.978,218.467 242.47,219.181 C242.962,219.895 243.754,220.252 244.846,220.252 Z M255.708,215.464 L256.086,208.822 L256.176,206.32 L253.512,206.32 L253.602,208.822 L253.98,215.464 L255.708,215.464 Z M254.844,220.252 C255.312,220.252 255.705,220.084 256.023,219.748 C256.341,219.412 256.5,219.004 256.5,218.524 C256.5,218.032 256.341,217.621 256.023,217.291 C255.705,216.961 255.312,216.796 254.844,216.796 C254.376,216.796 253.986,216.961 253.674,217.291 C253.362,217.621 253.206,218.032 253.206,218.524 C253.206,219.004 253.362,219.412 253.674,219.748 C253.986,220.084 254.376,220.252 254.844,220.252 Z M166.302,248 L166.302,243.266 L168.084,243.266 C169.044,243.266 169.911,243.11 170.685,242.798 C171.459,242.486 172.077,242.003 172.539,241.349 C173.001,240.695 173.232,239.864 173.232,238.856 C173.232,237.8 173.001,236.969 172.539,236.363 C172.077,235.757 171.453,235.322 170.667,235.058 C169.881,234.794 168.996,234.662 168.012,234.662 L168.012,234.662 L163.638,234.662 L163.638,248 L166.302,248 Z M167.904,241.16 L166.302,241.16 L166.302,236.786 L167.814,236.786 C168.738,236.786 169.437,236.936 169.911,237.236 C170.385,237.536 170.622,238.076 170.622,238.856 C170.622,240.392 169.716,241.16 167.904,241.16 L167.904,241.16 Z M177.542,248.252 C177.854,248.252 178.121,248.228 178.343,248.18 C178.565,248.132 178.754,248.078 178.91,248.018 L178.91,248.018 L178.586,246.056 C178.502,246.068 178.436,246.077 178.388,246.083 C178.34,246.089 178.286,246.092 178.226,246.092 C178.106,246.092 177.989,246.032 177.875,245.912 C177.761,245.792 177.704,245.582 177.704,245.282 L177.704,245.282 L177.704,233.636 L175.058,233.636 L175.058,245.174 C175.058,246.11 175.244,246.857 175.616,247.415 C175.988,247.973 176.63,248.252 177.542,248.252 Z M184.75,248.252 C185.374,248.252 185.992,248.15 186.604,247.946 C187.216,247.742 187.768,247.472 188.26,247.136 L188.26,247.136 L187.36,245.516 C187,245.744 186.637,245.918 186.271,246.038 C185.905,246.158 185.512,246.218 185.092,246.218 C184.348,246.218 183.724,246.005 183.22,245.579 C182.716,245.153 182.41,244.526 182.302,243.698 L182.302,243.698 L188.512,243.698 C188.596,243.422 188.638,243.014 188.638,242.474 C188.638,241.55 188.479,240.725 188.161,239.999 C187.843,239.273 187.372,238.703 186.748,238.289 C186.124,237.875 185.35,237.668 184.426,237.668 C183.826,237.668 183.247,237.791 182.689,238.037 C182.131,238.283 181.63,238.637 181.186,239.099 C180.742,239.561 180.388,240.116 180.124,240.764 C179.86,241.412 179.728,242.144 179.728,242.96 C179.728,244.064 179.95,245.012 180.394,245.804 C180.838,246.596 181.441,247.202 182.203,247.622 C182.965,248.042 183.814,248.252 184.75,248.252 Z M186.37,241.934 L182.266,241.934 C182.362,241.202 182.62,240.65 183.04,240.278 C183.46,239.906 183.934,239.72 184.462,239.72 C185.11,239.72 185.59,239.921 185.902,240.323 C186.214,240.725 186.37,241.262 186.37,241.934 L186.37,241.934 Z M192.678,248.252 C193.254,248.252 193.794,248.123 194.298,247.865 C194.802,247.607 195.276,247.292 195.72,246.92 L195.72,246.92 L195.792,246.92 L195.972,248 L198.132,248 L198.132,242.114 C198.132,240.65 197.808,239.543 197.16,238.793 C196.512,238.043 195.546,237.668 194.262,237.668 C193.47,237.668 192.72,237.797 192.012,238.055 C191.304,238.313 190.65,238.628 190.05,239 L190.05,239 L191.004,240.746 C191.472,240.47 191.934,240.242 192.39,240.062 C192.846,239.882 193.308,239.792 193.776,239.792 C194.4,239.792 194.838,239.96 195.09,240.296 C195.342,240.632 195.48,241.046 195.504,241.538 C193.476,241.754 192,242.159 191.076,242.753 C190.152,243.347 189.69,244.184 189.69,245.264 C189.69,245.828 189.813,246.338 190.059,246.794 C190.305,247.25 190.653,247.607 191.103,247.865 C191.553,248.123 192.078,248.252 192.678,248.252 Z M193.542,246.182 C193.158,246.182 192.84,246.092 192.588,245.912 C192.336,245.732 192.21,245.444 192.21,245.048 C192.21,244.592 192.45,244.202 192.93,243.878 C193.41,243.554 194.268,243.314 195.504,243.158 L195.504,243.158 L195.504,245.192 C195.18,245.504 194.868,245.747 194.568,245.921 C194.268,246.095 193.926,246.182 193.542,246.182 Z M203.342,248.252 C204.218,248.252 204.953,248.108 205.547,247.82 C206.141,247.532 206.591,247.148 206.897,246.668 C207.203,246.188 207.356,245.654 207.356,245.066 C207.356,244.442 207.215,243.938 206.933,243.554 C206.651,243.17 206.294,242.861 205.862,242.627 C205.43,242.393 204.992,242.192 204.548,242.024 C204.2,241.892 203.873,241.766 203.567,241.646 C203.261,241.526 203.015,241.385 202.829,241.223 C202.643,241.061 202.55,240.86 202.55,240.62 C202.55,240.332 202.661,240.098 202.883,239.918 C203.105,239.738 203.444,239.648 203.9,239.648 C204.272,239.648 204.635,239.726 204.989,239.882 C205.343,240.038 205.7,240.248 206.06,240.512 L206.06,240.512 L207.248,238.91 C206.84,238.598 206.351,238.313 205.781,238.055 C205.211,237.797 204.56,237.668 203.828,237.668 C203.06,237.668 202.394,237.8 201.83,238.064 C201.266,238.328 200.831,238.691 200.525,239.153 C200.219,239.615 200.066,240.146 200.066,240.746 C200.066,241.31 200.201,241.781 200.471,242.159 C200.741,242.537 201.086,242.846 201.506,243.086 C201.926,243.326 202.346,243.53 202.766,243.698 C203.126,243.83 203.465,243.965 203.783,244.103 C204.101,244.241 204.362,244.397 204.566,244.571 C204.77,244.745 204.872,244.958 204.872,245.21 C204.872,245.522 204.755,245.777 204.521,245.975 C204.287,246.173 203.918,246.272 203.414,246.272 C202.946,246.272 202.493,246.176 202.055,245.984 C201.617,245.792 201.17,245.522 200.714,245.174 L200.714,245.174 L199.508,246.83 C200.012,247.238 200.609,247.577 201.299,247.847 C201.989,248.117 202.67,248.252 203.342,248.252 Z M213.394,248.252 C214.018,248.252 214.636,248.15 215.248,247.946 C215.86,247.742 216.412,247.472 216.904,247.136 L216.904,247.136 L216.004,245.516 C215.644,245.744 215.281,245.918 214.915,246.038 C214.549,246.158 214.156,246.218 213.736,246.218 C212.992,246.218 212.368,246.005 211.864,245.579 C211.36,245.153 211.054,244.526 210.946,243.698 L210.946,243.698 L217.156,243.698 C217.24,243.422 217.282,243.014 217.282,242.474 C217.282,241.55 217.123,240.725 216.805,239.999 C216.487,239.273 216.016,238.703 215.392,238.289 C214.768,237.875 213.994,237.668 213.07,237.668 C212.47,237.668 211.891,237.791 211.333,238.037 C210.775,238.283 210.274,238.637 209.83,239.099 C209.386,239.561 209.032,240.116 208.768,240.764 C208.504,241.412 208.372,242.144 208.372,242.96 C208.372,244.064 208.594,245.012 209.038,245.804 C209.482,246.596 210.085,247.202 210.847,247.622 C211.609,248.042 212.458,248.252 213.394,248.252 Z M215.014,241.934 L210.91,241.934 C211.006,241.202 211.264,240.65 211.684,240.278 C212.104,239.906 212.578,239.72 213.106,239.72 C213.754,239.72 214.234,239.921 214.546,240.323 C214.858,240.725 215.014,241.262 215.014,241.934 L215.014,241.934 Z M225.29,248.252 C225.866,248.252 226.406,248.123 226.91,247.865 C227.414,247.607 227.888,247.292 228.332,246.92 L228.332,246.92 L228.404,246.92 L228.584,248 L230.744,248 L230.744,242.114 C230.744,240.65 230.42,239.543 229.772,238.793 C229.124,238.043 228.158,237.668 226.874,237.668 C226.082,237.668 225.332,237.797 224.624,238.055 C223.916,238.313 223.262,238.628 222.662,239 L222.662,239 L223.616,240.746 C224.084,240.47 224.546,240.242 225.002,240.062 C225.458,239.882 225.92,239.792 226.388,239.792 C227.012,239.792 227.45,239.96 227.702,240.296 C227.954,240.632 228.092,241.046 228.116,241.538 C226.088,241.754 224.612,242.159 223.688,242.753 C222.764,243.347 222.302,244.184 222.302,245.264 C222.302,245.828 222.425,246.338 222.671,246.794 C222.917,247.25 223.265,247.607 223.715,247.865 C224.165,248.123 224.69,248.252 225.29,248.252 Z M226.154,246.182 C225.77,246.182 225.452,246.092 225.2,245.912 C224.948,245.732 224.822,245.444 224.822,245.048 C224.822,244.592 225.062,244.202 225.542,243.878 C226.022,243.554 226.88,243.314 228.116,243.158 L228.116,243.158 L228.116,245.192 C227.792,245.504 227.48,245.747 227.18,245.921 C226.88,246.095 226.538,246.182 226.154,246.182 Z M237.358,248.252 C237.922,248.252 238.495,248.153 239.077,247.955 C239.659,247.757 240.19,247.448 240.67,247.028 L240.67,247.028 L239.608,245.282 C239.332,245.51 239.026,245.702 238.69,245.858 C238.354,246.014 238.006,246.092 237.646,246.092 C236.926,246.092 236.329,245.807 235.855,245.237 C235.381,244.667 235.144,243.908 235.144,242.96 C235.144,242.012 235.384,241.253 235.864,240.683 C236.344,240.113 236.968,239.828 237.736,239.828 C238.012,239.828 238.273,239.885 238.519,239.999 C238.765,240.113 239.014,240.278 239.266,240.494 L239.266,240.494 L240.526,238.784 C240.154,238.472 239.728,238.208 239.248,237.992 C238.768,237.776 238.216,237.668 237.592,237.668 C236.68,237.668 235.834,237.878 235.054,238.298 C234.274,238.718 233.644,239.321 233.164,240.107 C232.684,240.893 232.444,241.844 232.444,242.96 C232.444,244.076 232.66,245.03 233.092,245.822 C233.524,246.614 234.109,247.217 234.847,247.631 C235.585,248.045 236.422,248.252 237.358,248.252 Z M245.934,248.252 C246.498,248.252 247.071,248.153 247.653,247.955 C248.235,247.757 248.766,247.448 249.246,247.028 L249.246,247.028 L248.184,245.282 C247.908,245.51 247.602,245.702 247.266,245.858 C246.93,246.014 246.582,246.092 246.222,246.092 C245.502,246.092 244.905,245.807 244.431,245.237 C243.957,244.667 243.72,243.908 243.72,242.96 C243.72,242.012 243.96,241.253 244.44,240.683 C244.92,240.113 245.544,239.828 246.312,239.828 C246.588,239.828 246.849,239.885 247.095,239.999 C247.341,240.113 247.59,240.278 247.842,240.494 L247.842,240.494 L249.102,238.784 C248.73,238.472 248.304,238.208 247.824,237.992 C247.344,237.776 246.792,237.668 246.168,237.668 C245.256,237.668 244.41,237.878 243.63,238.298 C242.85,238.718 242.22,239.321 241.74,240.107 C241.26,240.893 241.02,241.844 241.02,242.96 C241.02,244.076 241.236,245.03 241.668,245.822 C242.1,246.614 242.685,247.217 243.423,247.631 C244.161,248.045 244.998,248.252 245.934,248.252 Z M254.618,248.252 C255.242,248.252 255.86,248.15 256.472,247.946 C257.084,247.742 257.636,247.472 258.128,247.136 L258.128,247.136 L257.228,245.516 C256.868,245.744 256.505,245.918 256.139,246.038 C255.773,246.158 255.38,246.218 254.96,246.218 C254.216,246.218 253.592,246.005 253.088,245.579 C252.584,245.153 252.278,244.526 252.17,243.698 L252.17,243.698 L258.38,243.698 C258.464,243.422 258.506,243.014 258.506,242.474 C258.506,241.55 258.347,240.725 258.029,239.999 C257.711,239.273 257.24,238.703 256.616,238.289 C255.992,237.875 255.218,237.668 254.294,237.668 C253.694,237.668 253.115,237.791 252.557,238.037 C251.999,238.283 251.498,238.637 251.054,239.099 C250.61,239.561 250.256,240.116 249.992,240.764 C249.728,241.412 249.596,242.144 249.596,242.96 C249.596,244.064 249.818,245.012 250.262,245.804 C250.706,246.596 251.309,247.202 252.071,247.622 C252.833,248.042 253.682,248.252 254.618,248.252 Z M256.238,241.934 L252.134,241.934 C252.23,241.202 252.488,240.65 252.908,240.278 C253.328,239.906 253.802,239.72 254.33,239.72 C254.978,239.72 255.458,239.921 255.77,240.323 C256.082,240.725 256.238,241.262 256.238,241.934 L256.238,241.934 Z M262.96,251.87 L262.96,248.81 L262.87,247.154 C263.254,247.502 263.656,247.772 264.076,247.964 C264.496,248.156 264.928,248.252 265.372,248.252 C266.116,248.252 266.812,248.039 267.46,247.613 C268.108,247.187 268.636,246.566 269.044,245.75 C269.452,244.934 269.656,243.95 269.656,242.798 C269.656,241.766 269.5,240.866 269.188,240.098 C268.876,239.33 268.423,238.733 267.829,238.307 C267.235,237.881 266.524,237.668 265.696,237.668 C265.156,237.668 264.631,237.794 264.121,238.046 C263.611,238.298 263.146,238.604 262.726,238.964 L262.726,238.964 L262.672,238.964 L262.474,237.92 L260.314,237.92 L260.314,251.87 L262.96,251.87 Z M264.778,246.074 C264.514,246.074 264.223,246.017 263.905,245.903 C263.587,245.789 263.272,245.594 262.96,245.318 L262.96,245.318 L262.96,240.89 C263.644,240.194 264.304,239.846 264.94,239.846 C265.636,239.846 266.143,240.104 266.461,240.62 C266.779,241.136 266.938,241.874 266.938,242.834 C266.938,243.926 266.731,244.739 266.317,245.273 C265.903,245.807 265.39,246.074 264.778,246.074 Z M274.722,248.252 C275.166,248.252 275.565,248.21 275.919,248.126 C276.273,248.042 276.582,247.958 276.846,247.874 L276.846,247.874 L276.414,245.948 C276.282,245.996 276.126,246.044 275.946,246.092 C275.766,246.14 275.592,246.164 275.424,246.164 C274.512,246.164 274.056,245.6 274.056,244.472 L274.056,244.472 L274.056,240.008 L276.54,240.008 L276.54,237.92 L274.056,237.92 L274.056,235.202 L271.86,235.202 L271.554,237.92 L269.988,238.046 L269.988,240.008 L271.41,240.008 L271.41,244.472 C271.41,245.216 271.521,245.873 271.743,246.443 C271.965,247.013 272.319,247.457 272.805,247.775 C273.291,248.093 273.93,248.252 274.722,248.252 Z M285.628,248.252 C286.072,248.252 286.471,248.21 286.825,248.126 C287.179,248.042 287.488,247.958 287.752,247.874 L287.752,247.874 L287.32,245.948 C287.188,245.996 287.032,246.044 286.852,246.092 C286.672,246.14 286.498,246.164 286.33,246.164 C285.418,246.164 284.962,245.6 284.962,244.472 L284.962,244.472 L284.962,240.008 L287.446,240.008 L287.446,237.92 L284.962,237.92 L284.962,235.202 L282.766,235.202 L282.46,237.92 L280.894,238.046 L280.894,240.008 L282.316,240.008 L282.316,244.472 C282.316,245.216 282.427,245.873 282.649,246.443 C282.871,247.013 283.225,247.457 283.711,247.775 C284.197,248.093 284.836,248.252 285.628,248.252 Z M291.774,248 L291.774,241.07 C292.146,240.698 292.485,240.416 292.791,240.224 C293.097,240.032 293.454,239.936 293.862,239.936 C294.354,239.936 294.714,240.092 294.942,240.404 C295.17,240.716 295.284,241.262 295.284,242.042 L295.284,242.042 L295.284,248 L297.93,248 L297.93,241.718 C297.93,240.446 297.684,239.453 297.192,238.739 C296.7,238.025 295.908,237.668 294.816,237.668 C294.132,237.668 293.535,237.818 293.025,238.118 C292.515,238.418 292.056,238.76 291.648,239.144 L291.648,239.144 L291.774,237.254 L291.774,233.636 L289.128,233.636 L289.128,248 L291.774,248 Z M304.67,248.252 C305.294,248.252 305.912,248.15 306.524,247.946 C307.136,247.742 307.688,247.472 308.18,247.136 L308.18,247.136 L307.28,245.516 C306.92,245.744 306.557,245.918 306.191,246.038 C305.825,246.158 305.432,246.218 305.012,246.218 C304.268,246.218 303.644,246.005 303.14,245.579 C302.636,245.153 302.33,244.526 302.222,243.698 L302.222,243.698 L308.432,243.698 C308.516,243.422 308.558,243.014 308.558,242.474 C308.558,241.55 308.399,240.725 308.081,239.999 C307.763,239.273 307.292,238.703 306.668,238.289 C306.044,237.875 305.27,237.668 304.346,237.668 C303.746,237.668 303.167,237.791 302.609,238.037 C302.051,238.283 301.55,238.637 301.106,239.099 C300.662,239.561 300.308,240.116 300.044,240.764 C299.78,241.412 299.648,242.144 299.648,242.96 C299.648,244.064 299.87,245.012 300.314,245.804 C300.758,246.596 301.361,247.202 302.123,247.622 C302.885,248.042 303.734,248.252 304.67,248.252 Z M306.29,241.934 L302.186,241.934 C302.282,241.202 302.54,240.65 302.96,240.278 C303.38,239.906 303.854,239.72 304.382,239.72 C305.03,239.72 305.51,239.921 305.822,240.323 C306.134,240.725 306.29,241.262 306.29,241.934 L306.29,241.934 Z M318.474,248.252 C319.098,248.252 319.716,248.15 320.328,247.946 C320.94,247.742 321.492,247.472 321.984,247.136 L321.984,247.136 L321.084,245.516 C320.724,245.744 320.361,245.918 319.995,246.038 C319.629,246.158 319.236,246.218 318.816,246.218 C318.072,246.218 317.448,246.005 316.944,245.579 C316.44,245.153 316.134,244.526 316.026,243.698 L316.026,243.698 L322.236,243.698 C322.32,243.422 322.362,243.014 322.362,242.474 C322.362,241.55 322.203,240.725 321.885,239.999 C321.567,239.273 321.096,238.703 320.472,238.289 C319.848,237.875 319.074,237.668 318.15,237.668 C317.55,237.668 316.971,237.791 316.413,238.037 C315.855,238.283 315.354,238.637 314.91,239.099 C314.466,239.561 314.112,240.116 313.848,240.764 C313.584,241.412 313.452,242.144 313.452,242.96 C313.452,244.064 313.674,245.012 314.118,245.804 C314.562,246.596 315.165,247.202 315.927,247.622 C316.689,248.042 317.538,248.252 318.474,248.252 Z M320.094,241.934 L315.99,241.934 C316.086,241.202 316.344,240.65 316.764,240.278 C317.184,239.906 317.658,239.72 318.186,239.72 C318.834,239.72 319.314,239.921 319.626,240.323 C319.938,240.725 320.094,241.262 320.094,241.934 L320.094,241.934 Z M326.654,248.252 C326.966,248.252 327.233,248.228 327.455,248.18 C327.677,248.132 327.866,248.078 328.022,248.018 L328.022,248.018 L327.698,246.056 C327.614,246.068 327.548,246.077 327.5,246.083 C327.452,246.089 327.398,246.092 327.338,246.092 C327.218,246.092 327.101,246.032 326.987,245.912 C326.873,245.792 326.816,245.582 326.816,245.282 L326.816,245.282 L326.816,233.636 L324.17,233.636 L324.17,245.174 C324.17,246.11 324.356,246.857 324.728,247.415 C325.1,247.973 325.742,248.252 326.654,248.252 Z M333.862,248.252 C334.486,248.252 335.104,248.15 335.716,247.946 C336.328,247.742 336.88,247.472 337.372,247.136 L337.372,247.136 L336.472,245.516 C336.112,245.744 335.749,245.918 335.383,246.038 C335.017,246.158 334.624,246.218 334.204,246.218 C333.46,246.218 332.836,246.005 332.332,245.579 C331.828,245.153 331.522,244.526 331.414,243.698 L331.414,243.698 L337.624,243.698 C337.708,243.422 337.75,243.014 337.75,242.474 C337.75,241.55 337.591,240.725 337.273,239.999 C336.955,239.273 336.484,238.703 335.86,238.289 C335.236,237.875 334.462,237.668 333.538,237.668 C332.938,237.668 332.359,237.791 331.801,238.037 C331.243,238.283 330.742,238.637 330.298,239.099 C329.854,239.561 329.5,240.116 329.236,240.764 C328.972,241.412 328.84,242.144 328.84,242.96 C328.84,244.064 329.062,245.012 329.506,245.804 C329.95,246.596 330.553,247.202 331.315,247.622 C332.077,248.042 332.926,248.252 333.862,248.252 Z M335.482,241.934 L331.378,241.934 C331.474,241.202 331.732,240.65 332.152,240.278 C332.572,239.906 333.046,239.72 333.574,239.72 C334.222,239.72 334.702,239.921 335.014,240.323 C335.326,240.725 335.482,241.262 335.482,241.934 L335.482,241.934 Z M343.842,248.252 C344.406,248.252 344.979,248.153 345.561,247.955 C346.143,247.757 346.674,247.448 347.154,247.028 L347.154,247.028 L346.092,245.282 C345.816,245.51 345.51,245.702 345.174,245.858 C344.838,246.014 344.49,246.092 344.13,246.092 C343.41,246.092 342.813,245.807 342.339,245.237 C341.865,244.667 341.628,243.908 341.628,242.96 C341.628,242.012 341.868,241.253 342.348,240.683 C342.828,240.113 343.452,239.828 344.22,239.828 C344.496,239.828 344.757,239.885 345.003,239.999 C345.249,240.113 345.498,240.278 345.75,240.494 L345.75,240.494 L347.01,238.784 C346.638,238.472 346.212,238.208 345.732,237.992 C345.252,237.776 344.7,237.668 344.076,237.668 C343.164,237.668 342.318,237.878 341.538,238.298 C340.758,238.718 340.128,239.321 339.648,240.107 C339.168,240.893 338.928,241.844 338.928,242.96 C338.928,244.076 339.144,245.03 339.576,245.822 C340.008,246.614 340.593,247.217 341.331,247.631 C342.069,248.045 342.906,248.252 343.842,248.252 Z M352.148,248.252 C352.592,248.252 352.991,248.21 353.345,248.126 C353.699,248.042 354.008,247.958 354.272,247.874 L354.272,247.874 L353.84,245.948 C353.708,245.996 353.552,246.044 353.372,246.092 C353.192,246.14 353.018,246.164 352.85,246.164 C351.938,246.164 351.482,245.6 351.482,244.472 L351.482,244.472 L351.482,240.008 L353.966,240.008 L353.966,237.92 L351.482,237.92 L351.482,235.202 L349.286,235.202 L348.98,237.92 L347.414,238.046 L347.414,240.008 L348.836,240.008 L348.836,244.472 C348.836,245.216 348.947,245.873 349.169,246.443 C349.391,247.013 349.745,247.457 350.231,247.775 C350.717,248.093 351.356,248.252 352.148,248.252 Z M358.294,248 L358.294,241.988 C358.57,241.256 358.924,240.743 359.356,240.449 C359.788,240.155 360.202,240.008 360.598,240.008 C360.802,240.008 360.985,240.02 361.147,240.044 C361.309,240.068 361.48,240.11 361.66,240.17 L361.66,240.17 L362.11,237.884 C361.954,237.824 361.786,237.773 361.606,237.731 C361.426,237.689 361.198,237.668 360.922,237.668 C360.406,237.668 359.893,237.842 359.383,238.19 C358.873,238.538 358.432,239.042 358.06,239.702 L358.06,239.702 L358.006,239.702 L357.808,237.92 L355.648,237.92 L355.648,248 L358.294,248 Z M367.122,248.252 C367.962,248.252 368.751,248.045 369.489,247.631 C370.227,247.217 370.824,246.614 371.28,245.822 C371.736,245.03 371.964,244.076 371.964,242.96 C371.964,241.844 371.736,240.893 371.28,240.107 C370.824,239.321 370.227,238.718 369.489,238.298 C368.751,237.878 367.962,237.668 367.122,237.668 C366.282,237.668 365.493,237.878 364.755,238.298 C364.017,238.718 363.42,239.321 362.964,240.107 C362.508,240.893 362.28,241.844 362.28,242.96 C362.28,244.076 362.508,245.03 362.964,245.822 C363.42,246.614 364.017,247.217 364.755,247.631 C365.493,248.045 366.282,248.252 367.122,248.252 Z M367.122,246.092 C366.438,246.092 365.91,245.807 365.538,245.237 C365.166,244.667 364.98,243.908 364.98,242.96 C364.98,242.012 365.166,241.253 365.538,240.683 C365.91,240.113 366.438,239.828 367.122,239.828 C367.806,239.828 368.334,240.113 368.706,240.683 C369.078,241.253 369.264,242.012 369.264,242.96 C369.264,243.908 369.078,244.667 368.706,245.237 C368.334,245.807 367.806,246.092 367.122,246.092 Z M376.454,248 L376.454,241.07 C377.162,240.314 377.804,239.936 378.38,239.936 C378.86,239.936 379.217,240.092 379.451,240.404 C379.685,240.716 379.802,241.262 379.802,242.042 L379.802,242.042 L379.802,248 L382.43,248 L382.43,241.07 C383.15,240.314 383.798,239.936 384.374,239.936 C384.854,239.936 385.208,240.092 385.436,240.404 C385.664,240.716 385.778,241.262 385.778,242.042 L385.778,242.042 L385.778,248 L388.424,248 L388.424,241.718 C388.424,240.446 388.169,239.453 387.659,238.739 C387.149,238.025 386.36,237.668 385.292,237.668 C384.632,237.668 384.047,237.839 383.537,238.181 C383.027,238.523 382.544,238.94 382.088,239.432 C381.848,238.868 381.506,238.433 381.062,238.127 C380.618,237.821 380.036,237.668 379.316,237.668 C378.656,237.668 378.08,237.824 377.588,238.136 C377.096,238.448 376.64,238.826 376.22,239.27 L376.22,239.27 L376.166,239.27 L375.968,237.92 L373.808,237.92 L373.808,248 L376.454,248 Z M393.274,248.252 C393.85,248.252 394.39,248.123 394.894,247.865 C395.398,247.607 395.872,247.292 396.316,246.92 L396.316,246.92 L396.388,246.92 L396.568,248 L398.728,248 L398.728,242.114 C398.728,240.65 398.404,239.543 397.756,238.793 C397.108,238.043 396.142,237.668 394.858,237.668 C394.066,237.668 393.316,237.797 392.608,238.055 C391.9,238.313 391.246,238.628 390.646,239 L390.646,239 L391.6,240.746 C392.068,240.47 392.53,240.242 392.986,240.062 C393.442,239.882 393.904,239.792 394.372,239.792 C394.996,239.792 395.434,239.96 395.686,240.296 C395.938,240.632 396.076,241.046 396.1,241.538 C394.072,241.754 392.596,242.159 391.672,242.753 C390.748,243.347 390.286,244.184 390.286,245.264 C390.286,245.828 390.409,246.338 390.655,246.794 C390.901,247.25 391.249,247.607 391.699,247.865 C392.149,248.123 392.674,248.252 393.274,248.252 Z M394.138,246.182 C393.754,246.182 393.436,246.092 393.184,245.912 C392.932,245.732 392.806,245.444 392.806,245.048 C392.806,244.592 393.046,244.202 393.526,243.878 C394.006,243.554 394.864,243.314 396.1,243.158 L396.1,243.158 L396.1,245.192 C395.776,245.504 395.464,245.747 395.164,245.921 C394.864,246.095 394.522,246.182 394.138,246.182 Z M404.604,252.374 C405.732,252.374 406.704,252.218 407.52,251.906 C408.336,251.594 408.969,251.165 409.419,250.619 C409.869,250.073 410.094,249.464 410.094,248.792 C410.094,247.904 409.77,247.262 409.122,246.866 C408.474,246.47 407.544,246.272 406.332,246.272 L406.332,246.272 L404.622,246.272 C404.034,246.272 403.623,246.2 403.389,246.056 C403.155,245.912 403.038,245.708 403.038,245.444 C403.038,245.24 403.077,245.075 403.155,244.949 C403.233,244.823 403.338,244.7 403.47,244.58 C403.938,244.736 404.37,244.814 404.766,244.814 C405.486,244.814 406.14,244.688 406.728,244.436 C407.316,244.184 407.784,243.803 408.132,243.293 C408.48,242.783 408.654,242.15 408.654,241.394 C408.654,241.082 408.612,240.791 408.528,240.521 C408.444,240.251 408.336,240.032 408.204,239.864 L408.204,239.864 L409.914,239.864 L409.914,237.92 L406.278,237.92 C406.074,237.848 405.84,237.788 405.576,237.74 C405.312,237.692 405.042,237.668 404.766,237.668 C404.058,237.668 403.392,237.806 402.768,238.082 C402.144,238.358 401.643,238.766 401.265,239.306 C400.887,239.846 400.698,240.512 400.698,241.304 C400.698,241.892 400.836,242.417 401.112,242.879 C401.388,243.341 401.7,243.698 402.048,243.95 L402.048,243.95 L402.048,244.022 C401.748,244.238 401.484,244.511 401.256,244.841 C401.028,245.171 400.914,245.528 400.914,245.912 C400.914,246.32 401.001,246.662 401.175,246.938 C401.349,247.214 401.568,247.436 401.832,247.604 L401.832,247.604 L401.832,247.694 C401.376,247.958 401.022,248.267 400.77,248.621 C400.518,248.975 400.392,249.362 400.392,249.782 C400.392,250.37 400.578,250.856 400.95,251.24 C401.322,251.624 401.826,251.909 402.462,252.095 C403.098,252.281 403.812,252.374 404.604,252.374 Z M404.766,243.176 C404.322,243.176 403.947,243.014 403.641,242.69 C403.335,242.366 403.182,241.904 403.182,241.304 C403.182,240.716 403.335,240.263 403.641,239.945 C403.947,239.627 404.322,239.468 404.766,239.468 C405.222,239.468 405.6,239.627 405.9,239.945 C406.2,240.263 406.35,240.716 406.35,241.304 C406.35,241.904 406.197,242.366 405.891,242.69 C405.585,243.014 405.21,243.176 404.766,243.176 Z M405,250.7 C404.268,250.7 403.686,250.583 403.254,250.349 C402.822,250.115 402.606,249.788 402.606,249.368 C402.606,248.936 402.822,248.546 403.254,248.198 C403.434,248.246 403.638,248.282 403.866,248.306 C404.094,248.33 404.358,248.342 404.658,248.342 L404.658,248.342 L405.882,248.342 C406.422,248.342 406.836,248.402 407.124,248.522 C407.412,248.642 407.556,248.882 407.556,249.242 C407.556,249.638 407.319,249.98 406.845,250.268 C406.371,250.556 405.756,250.7 405,250.7 Z M414.08,248 L414.08,241.07 C414.452,240.698 414.791,240.416 415.097,240.224 C415.403,240.032 415.76,239.936 416.168,239.936 C416.66,239.936 417.02,240.092 417.248,240.404 C417.476,240.716 417.59,241.262 417.59,242.042 L417.59,242.042 L417.59,248 L420.236,248 L420.236,241.718 C420.236,240.446 419.99,239.453 419.498,238.739 C419.006,238.025 418.214,237.668 417.122,237.668 C416.438,237.668 415.832,237.824 415.304,238.136 C414.776,238.448 414.29,238.82 413.846,239.252 L413.846,239.252 L413.792,239.252 L413.594,237.92 L411.434,237.92 L411.434,248 L414.08,248 Z M426.994,248.252 C427.618,248.252 428.236,248.15 428.848,247.946 C429.46,247.742 430.012,247.472 430.504,247.136 L430.504,247.136 L429.604,245.516 C429.244,245.744 428.881,245.918 428.515,246.038 C428.149,246.158 427.756,246.218 427.336,246.218 C426.592,246.218 425.968,246.005 425.464,245.579 C424.96,245.153 424.654,244.526 424.546,243.698 L424.546,243.698 L430.756,243.698 C430.84,243.422 430.882,243.014 430.882,242.474 C430.882,241.55 430.723,240.725 430.405,239.999 C430.087,239.273 429.616,238.703 428.992,238.289 C428.368,237.875 427.594,237.668 426.67,237.668 C426.07,237.668 425.491,237.791 424.933,238.037 C424.375,238.283 423.874,238.637 423.43,239.099 C422.986,239.561 422.632,240.116 422.368,240.764 C422.104,241.412 421.972,242.144 421.972,242.96 C421.972,244.064 422.194,245.012 422.638,245.804 C423.082,246.596 423.685,247.202 424.447,247.622 C425.209,248.042 426.058,248.252 426.994,248.252 Z M428.614,241.934 L424.51,241.934 C424.606,241.202 424.864,240.65 425.284,240.278 C425.704,239.906 426.178,239.72 426.706,239.72 C427.354,239.72 427.834,239.921 428.146,240.323 C428.458,240.725 428.614,241.262 428.614,241.934 L428.614,241.934 Z M436.164,248.252 C436.608,248.252 437.007,248.21 437.361,248.126 C437.715,248.042 438.024,247.958 438.288,247.874 L438.288,247.874 L437.856,245.948 C437.724,245.996 437.568,246.044 437.388,246.092 C437.208,246.14 437.034,246.164 436.866,246.164 C435.954,246.164 435.498,245.6 435.498,244.472 L435.498,244.472 L435.498,240.008 L437.982,240.008 L437.982,237.92 L435.498,237.92 L435.498,235.202 L433.302,235.202 L432.996,237.92 L431.43,238.046 L431.43,240.008 L432.852,240.008 L432.852,244.472 C432.852,245.216 432.963,245.873 433.185,246.443 C433.407,247.013 433.761,247.457 434.247,247.775 C434.733,248.093 435.372,248.252 436.164,248.252 Z M440.996,236.3 C441.452,236.3 441.821,236.168 442.103,235.904 C442.385,235.64 442.526,235.286 442.526,234.842 C442.526,234.41 442.385,234.062 442.103,233.798 C441.821,233.534 441.452,233.402 440.996,233.402 C440.54,233.402 440.168,233.534 439.88,233.798 C439.592,234.062 439.448,234.41 439.448,234.842 C439.448,235.286 439.592,235.64 439.88,235.904 C440.168,236.168 440.54,236.3 440.996,236.3 Z M442.31,248 L442.31,237.92 L439.664,237.92 L439.664,248 L442.31,248 Z M449.05,248.252 C449.614,248.252 450.187,248.153 450.769,247.955 C451.351,247.757 451.882,247.448 452.362,247.028 L452.362,247.028 L451.3,245.282 C451.024,245.51 450.718,245.702 450.382,245.858 C450.046,246.014 449.698,246.092 449.338,246.092 C448.618,246.092 448.021,245.807 447.547,245.237 C447.073,244.667 446.836,243.908 446.836,242.96 C446.836,242.012 447.076,241.253 447.556,240.683 C448.036,240.113 448.66,239.828 449.428,239.828 C449.704,239.828 449.965,239.885 450.211,239.999 C450.457,240.113 450.706,240.278 450.958,240.494 L450.958,240.494 L452.218,238.784 C451.846,238.472 451.42,238.208 450.94,237.992 C450.46,237.776 449.908,237.668 449.284,237.668 C448.372,237.668 447.526,237.878 446.746,238.298 C445.966,238.718 445.336,239.321 444.856,240.107 C444.376,240.893 444.136,241.844 444.136,242.96 C444.136,244.076 444.352,245.03 444.784,245.822 C445.216,246.614 445.801,247.217 446.539,247.631 C447.277,248.045 448.114,248.252 449.05,248.252 Z M166.302,276.252 C167.178,276.252 167.913,276.108 168.507,275.82 C169.101,275.532 169.551,275.148 169.857,274.668 C170.163,274.188 170.316,273.654 170.316,273.066 C170.316,272.442 170.175,271.938 169.893,271.554 C169.611,271.17 169.254,270.861 168.822,270.627 C168.39,270.393 167.952,270.192 167.508,270.024 C167.16,269.892 166.833,269.766 166.527,269.646 C166.221,269.526 165.975,269.385 165.789,269.223 C165.603,269.061 165.51,268.86 165.51,268.62 C165.51,268.332 165.621,268.098 165.843,267.918 C166.065,267.738 166.404,267.648 166.86,267.648 C167.232,267.648 167.595,267.726 167.949,267.882 C168.303,268.038 168.66,268.248 169.02,268.512 L169.02,268.512 L170.208,266.91 C169.8,266.598 169.311,266.313 168.741,266.055 C168.171,265.797 167.52,265.668 166.788,265.668 C166.02,265.668 165.354,265.8 164.79,266.064 C164.226,266.328 163.791,266.691 163.485,267.153 C163.179,267.615 163.026,268.146 163.026,268.746 C163.026,269.31 163.161,269.781 163.431,270.159 C163.701,270.537 164.046,270.846 164.466,271.086 C164.886,271.326 165.306,271.53 165.726,271.698 C166.086,271.83 166.425,271.965 166.743,272.103 C167.061,272.241 167.322,272.397 167.526,272.571 C167.73,272.745 167.832,272.958 167.832,273.21 C167.832,273.522 167.715,273.777 167.481,273.975 C167.247,274.173 166.878,274.272 166.374,274.272 C165.906,274.272 165.453,274.176 165.015,273.984 C164.577,273.792 164.13,273.522 163.674,273.174 L163.674,273.174 L162.468,274.83 C162.972,275.238 163.569,275.577 164.259,275.847 C164.949,276.117 165.63,276.252 166.302,276.252 Z M173.294,264.3 C173.75,264.3 174.119,264.168 174.401,263.904 C174.683,263.64 174.824,263.286 174.824,262.842 C174.824,262.41 174.683,262.062 174.401,261.798 C174.119,261.534 173.75,261.402 173.294,261.402 C172.838,261.402 172.466,261.534 172.178,261.798 C171.89,262.062 171.746,262.41 171.746,262.842 C171.746,263.286 171.89,263.64 172.178,263.904 C172.466,264.168 172.838,264.3 173.294,264.3 Z M174.608,276 L174.608,265.92 L171.962,265.92 L171.962,276 L174.608,276 Z M180.61,280.374 C181.738,280.374 182.71,280.218 183.526,279.906 C184.342,279.594 184.975,279.165 185.425,278.619 C185.875,278.073 186.1,277.464 186.1,276.792 C186.1,275.904 185.776,275.262 185.128,274.866 C184.48,274.47 183.55,274.272 182.338,274.272 L182.338,274.272 L180.628,274.272 C180.04,274.272 179.629,274.2 179.395,274.056 C179.161,273.912 179.044,273.708 179.044,273.444 C179.044,273.24 179.083,273.075 179.161,272.949 C179.239,272.823 179.344,272.7 179.476,272.58 C179.944,272.736 180.376,272.814 180.772,272.814 C181.492,272.814 182.146,272.688 182.734,272.436 C183.322,272.184 183.79,271.803 184.138,271.293 C184.486,270.783 184.66,270.15 184.66,269.394 C184.66,269.082 184.618,268.791 184.534,268.521 C184.45,268.251 184.342,268.032 184.21,267.864 L184.21,267.864 L185.92,267.864 L185.92,265.92 L182.284,265.92 C182.08,265.848 181.846,265.788 181.582,265.74 C181.318,265.692 181.048,265.668 180.772,265.668 C180.064,265.668 179.398,265.806 178.774,266.082 C178.15,266.358 177.649,266.766 177.271,267.306 C176.893,267.846 176.704,268.512 176.704,269.304 C176.704,269.892 176.842,270.417 177.118,270.879 C177.394,271.341 177.706,271.698 178.054,271.95 L178.054,271.95 L178.054,272.022 C177.754,272.238 177.49,272.511 177.262,272.841 C177.034,273.171 176.92,273.528 176.92,273.912 C176.92,274.32 177.007,274.662 177.181,274.938 C177.355,275.214 177.574,275.436 177.838,275.604 L177.838,275.604 L177.838,275.694 C177.382,275.958 177.028,276.267 176.776,276.621 C176.524,276.975 176.398,277.362 176.398,277.782 C176.398,278.37 176.584,278.856 176.956,279.24 C177.328,279.624 177.832,279.909 178.468,280.095 C179.104,280.281 179.818,280.374 180.61,280.374 Z M180.772,271.176 C180.328,271.176 179.953,271.014 179.647,270.69 C179.341,270.366 179.188,269.904 179.188,269.304 C179.188,268.716 179.341,268.263 179.647,267.945 C179.953,267.627 180.328,267.468 180.772,267.468 C181.228,267.468 181.606,267.627 181.906,267.945 C182.206,268.263 182.356,268.716 182.356,269.304 C182.356,269.904 182.203,270.366 181.897,270.69 C181.591,271.014 181.216,271.176 180.772,271.176 Z M181.006,278.7 C180.274,278.7 179.692,278.583 179.26,278.349 C178.828,278.115 178.612,277.788 178.612,277.368 C178.612,276.936 178.828,276.546 179.26,276.198 C179.44,276.246 179.644,276.282 179.872,276.306 C180.1,276.33 180.364,276.342 180.664,276.342 L180.664,276.342 L181.888,276.342 C182.428,276.342 182.842,276.402 183.13,276.522 C183.418,276.642 183.562,276.882 183.562,277.242 C183.562,277.638 183.325,277.98 182.851,278.268 C182.377,278.556 181.762,278.7 181.006,278.7 Z M190.086,276 L190.086,269.07 C190.458,268.698 190.797,268.416 191.103,268.224 C191.409,268.032 191.766,267.936 192.174,267.936 C192.666,267.936 193.026,268.092 193.254,268.404 C193.482,268.716 193.596,269.262 193.596,270.042 L193.596,270.042 L193.596,276 L196.242,276 L196.242,269.718 C196.242,268.446 195.996,267.453 195.504,266.739 C195.012,266.025 194.22,265.668 193.128,265.668 C192.444,265.668 191.838,265.824 191.31,266.136 C190.782,266.448 190.296,266.82 189.852,267.252 L189.852,267.252 L189.798,267.252 L189.6,265.92 L187.44,265.92 L187.44,276 L190.086,276 Z M201.092,276.252 C201.668,276.252 202.208,276.123 202.712,275.865 C203.216,275.607 203.69,275.292 204.134,274.92 L204.134,274.92 L204.206,274.92 L204.386,276 L206.546,276 L206.546,270.114 C206.546,268.65 206.222,267.543 205.574,266.793 C204.926,266.043 203.96,265.668 202.676,265.668 C201.884,265.668 201.134,265.797 200.426,266.055 C199.718,266.313 199.064,266.628 198.464,267 L198.464,267 L199.418,268.746 C199.886,268.47 200.348,268.242 200.804,268.062 C201.26,267.882 201.722,267.792 202.19,267.792 C202.814,267.792 203.252,267.96 203.504,268.296 C203.756,268.632 203.894,269.046 203.918,269.538 C201.89,269.754 200.414,270.159 199.49,270.753 C198.566,271.347 198.104,272.184 198.104,273.264 C198.104,273.828 198.227,274.338 198.473,274.794 C198.719,275.25 199.067,275.607 199.517,275.865 C199.967,276.123 200.492,276.252 201.092,276.252 Z M201.956,274.182 C201.572,274.182 201.254,274.092 201.002,273.912 C200.75,273.732 200.624,273.444 200.624,273.048 C200.624,272.592 200.864,272.202 201.344,271.878 C201.824,271.554 202.682,271.314 203.918,271.158 L203.918,271.158 L203.918,273.192 C203.594,273.504 203.282,273.747 202.982,273.921 C202.682,274.095 202.34,274.182 201.956,274.182 Z M211.36,276.252 C211.672,276.252 211.939,276.228 212.161,276.18 C212.383,276.132 212.572,276.078 212.728,276.018 L212.728,276.018 L212.404,274.056 C212.32,274.068 212.254,274.077 212.206,274.083 C212.158,274.089 212.104,274.092 212.044,274.092 C211.924,274.092 211.807,274.032 211.693,273.912 C211.579,273.792 211.522,273.582 211.522,273.282 L211.522,273.282 L211.522,261.636 L208.876,261.636 L208.876,273.174 C208.876,274.11 209.062,274.857 209.434,275.415 C209.806,275.973 210.448,276.252 211.36,276.252 Z M220.988,276 L220.988,268.008 L222.878,268.008 L222.878,265.92 L220.988,265.92 L220.988,265.056 C220.988,264.492 221.093,264.087 221.303,263.841 C221.513,263.595 221.816,263.472 222.212,263.472 C222.38,263.472 222.557,263.49 222.743,263.526 C222.929,263.562 223.106,263.616 223.274,263.688 L223.274,263.688 L223.76,261.726 C223.532,261.642 223.253,261.564 222.923,261.492 C222.593,261.42 222.236,261.384 221.852,261.384 C221.012,261.384 220.334,261.549 219.818,261.879 C219.302,262.209 218.927,262.653 218.693,263.211 C218.459,263.769 218.342,264.402 218.342,265.11 L218.342,265.11 L218.342,265.938 L216.992,266.046 L216.992,268.008 L218.342,268.008 L218.342,276 L220.988,276 Z M226.864,276 L226.864,269.988 C227.14,269.256 227.494,268.743 227.926,268.449 C228.358,268.155 228.772,268.008 229.168,268.008 C229.372,268.008 229.555,268.02 229.717,268.044 C229.879,268.068 230.05,268.11 230.23,268.17 L230.23,268.17 L230.68,265.884 C230.524,265.824 230.356,265.773 230.176,265.731 C229.996,265.689 229.768,265.668 229.492,265.668 C228.976,265.668 228.463,265.842 227.953,266.19 C227.443,266.538 227.002,267.042 226.63,267.702 L226.63,267.702 L226.576,267.702 L226.378,265.92 L224.218,265.92 L224.218,276 L226.864,276 Z M233.622,276.252 C234.198,276.252 234.738,276.123 235.242,275.865 C235.746,275.607 236.22,275.292 236.664,274.92 L236.664,274.92 L236.736,274.92 L236.916,276 L239.076,276 L239.076,270.114 C239.076,268.65 238.752,267.543 238.104,266.793 C237.456,266.043 236.49,265.668 235.206,265.668 C234.414,265.668 233.664,265.797 232.956,266.055 C232.248,266.313 231.594,266.628 230.994,267 L230.994,267 L231.948,268.746 C232.416,268.47 232.878,268.242 233.334,268.062 C233.79,267.882 234.252,267.792 234.72,267.792 C235.344,267.792 235.782,267.96 236.034,268.296 C236.286,268.632 236.424,269.046 236.448,269.538 C234.42,269.754 232.944,270.159 232.02,270.753 C231.096,271.347 230.634,272.184 230.634,273.264 C230.634,273.828 230.757,274.338 231.003,274.794 C231.249,275.25 231.597,275.607 232.047,275.865 C232.497,276.123 233.022,276.252 233.622,276.252 Z M234.486,274.182 C234.102,274.182 233.784,274.092 233.532,273.912 C233.28,273.732 233.154,273.444 233.154,273.048 C233.154,272.592 233.394,272.202 233.874,271.878 C234.354,271.554 235.212,271.314 236.448,271.158 L236.448,271.158 L236.448,273.192 C236.124,273.504 235.812,273.747 235.512,273.921 C235.212,274.095 234.87,274.182 234.486,274.182 Z M244.952,280.374 C246.08,280.374 247.052,280.218 247.868,279.906 C248.684,279.594 249.317,279.165 249.767,278.619 C250.217,278.073 250.442,277.464 250.442,276.792 C250.442,275.904 250.118,275.262 249.47,274.866 C248.822,274.47 247.892,274.272 246.68,274.272 L246.68,274.272 L244.97,274.272 C244.382,274.272 243.971,274.2 243.737,274.056 C243.503,273.912 243.386,273.708 243.386,273.444 C243.386,273.24 243.425,273.075 243.503,272.949 C243.581,272.823 243.686,272.7 243.818,272.58 C244.286,272.736 244.718,272.814 245.114,272.814 C245.834,272.814 246.488,272.688 247.076,272.436 C247.664,272.184 248.132,271.803 248.48,271.293 C248.828,270.783 249.002,270.15 249.002,269.394 C249.002,269.082 248.96,268.791 248.876,268.521 C248.792,268.251 248.684,268.032 248.552,267.864 L248.552,267.864 L250.262,267.864 L250.262,265.92 L246.626,265.92 C246.422,265.848 246.188,265.788 245.924,265.74 C245.66,265.692 245.39,265.668 245.114,265.668 C244.406,265.668 243.74,265.806 243.116,266.082 C242.492,266.358 241.991,266.766 241.613,267.306 C241.235,267.846 241.046,268.512 241.046,269.304 C241.046,269.892 241.184,270.417 241.46,270.879 C241.736,271.341 242.048,271.698 242.396,271.95 L242.396,271.95 L242.396,272.022 C242.096,272.238 241.832,272.511 241.604,272.841 C241.376,273.171 241.262,273.528 241.262,273.912 C241.262,274.32 241.349,274.662 241.523,274.938 C241.697,275.214 241.916,275.436 242.18,275.604 L242.18,275.604 L242.18,275.694 C241.724,275.958 241.37,276.267 241.118,276.621 C240.866,276.975 240.74,277.362 240.74,277.782 C240.74,278.37 240.926,278.856 241.298,279.24 C241.67,279.624 242.174,279.909 242.81,280.095 C243.446,280.281 244.16,280.374 244.952,280.374 Z M245.114,271.176 C244.67,271.176 244.295,271.014 243.989,270.69 C243.683,270.366 243.53,269.904 243.53,269.304 C243.53,268.716 243.683,268.263 243.989,267.945 C244.295,267.627 244.67,267.468 245.114,267.468 C245.57,267.468 245.948,267.627 246.248,267.945 C246.548,268.263 246.698,268.716 246.698,269.304 C246.698,269.904 246.545,270.366 246.239,270.69 C245.933,271.014 245.558,271.176 245.114,271.176 Z M245.348,278.7 C244.616,278.7 244.034,278.583 243.602,278.349 C243.17,278.115 242.954,277.788 242.954,277.368 C242.954,276.936 243.17,276.546 243.602,276.198 C243.782,276.246 243.986,276.282 244.214,276.306 C244.442,276.33 244.706,276.342 245.006,276.342 L245.006,276.342 L246.23,276.342 C246.77,276.342 247.184,276.402 247.472,276.522 C247.76,276.642 247.904,276.882 247.904,277.242 C247.904,277.638 247.667,277.98 247.193,278.268 C246.719,278.556 246.104,278.7 245.348,278.7 Z M254.428,276 L254.428,269.07 C255.136,268.314 255.778,267.936 256.354,267.936 C256.834,267.936 257.191,268.092 257.425,268.404 C257.659,268.716 257.776,269.262 257.776,270.042 L257.776,270.042 L257.776,276 L260.404,276 L260.404,269.07 C261.124,268.314 261.772,267.936 262.348,267.936 C262.828,267.936 263.182,268.092 263.41,268.404 C263.638,268.716 263.752,269.262 263.752,270.042 L263.752,270.042 L263.752,276 L266.398,276 L266.398,269.718 C266.398,268.446 266.143,267.453 265.633,266.739 C265.123,266.025 264.334,265.668 263.266,265.668 C262.606,265.668 262.021,265.839 261.511,266.181 C261.001,266.523 260.518,266.94 260.062,267.432 C259.822,266.868 259.48,266.433 259.036,266.127 C258.592,265.821 258.01,265.668 257.29,265.668 C256.63,265.668 256.054,265.824 255.562,266.136 C255.07,266.448 254.614,266.826 254.194,267.27 L254.194,267.27 L254.14,267.27 L253.942,265.92 L251.782,265.92 L251.782,276 L254.428,276 Z M273.156,276.252 C273.78,276.252 274.398,276.15 275.01,275.946 C275.622,275.742 276.174,275.472 276.666,275.136 L276.666,275.136 L275.766,273.516 C275.406,273.744 275.043,273.918 274.677,274.038 C274.311,274.158 273.918,274.218 273.498,274.218 C272.754,274.218 272.13,274.005 271.626,273.579 C271.122,273.153 270.816,272.526 270.708,271.698 L270.708,271.698 L276.918,271.698 C277.002,271.422 277.044,271.014 277.044,270.474 C277.044,269.55 276.885,268.725 276.567,267.999 C276.249,267.273 275.778,266.703 275.154,266.289 C274.53,265.875 273.756,265.668 272.832,265.668 C272.232,265.668 271.653,265.791 271.095,266.037 C270.537,266.283 270.036,266.637 269.592,267.099 C269.148,267.561 268.794,268.116 268.53,268.764 C268.266,269.412 268.134,270.144 268.134,270.96 C268.134,272.064 268.356,273.012 268.8,273.804 C269.244,274.596 269.847,275.202 270.609,275.622 C271.371,276.042 272.22,276.252 273.156,276.252 Z M274.776,269.934 L270.672,269.934 C270.768,269.202 271.026,268.65 271.446,268.278 C271.866,267.906 272.34,267.72 272.868,267.72 C273.516,267.72 273.996,267.921 274.308,268.323 C274.62,268.725 274.776,269.262 274.776,269.934 L274.776,269.934 Z M281.498,276 L281.498,269.07 C281.87,268.698 282.209,268.416 282.515,268.224 C282.821,268.032 283.178,267.936 283.586,267.936 C284.078,267.936 284.438,268.092 284.666,268.404 C284.894,268.716 285.008,269.262 285.008,270.042 L285.008,270.042 L285.008,276 L287.654,276 L287.654,269.718 C287.654,268.446 287.408,267.453 286.916,266.739 C286.424,266.025 285.632,265.668 284.54,265.668 C283.856,265.668 283.25,265.824 282.722,266.136 C282.194,266.448 281.708,266.82 281.264,267.252 L281.264,267.252 L281.21,267.252 L281.012,265.92 L278.852,265.92 L278.852,276 L281.498,276 Z M293.71,276.252 C294.154,276.252 294.553,276.21 294.907,276.126 C295.261,276.042 295.57,275.958 295.834,275.874 L295.834,275.874 L295.402,273.948 C295.27,273.996 295.114,274.044 294.934,274.092 C294.754,274.14 294.58,274.164 294.412,274.164 C293.5,274.164 293.044,273.6 293.044,272.472 L293.044,272.472 L293.044,268.008 L295.528,268.008 L295.528,265.92 L293.044,265.92 L293.044,263.202 L290.848,263.202 L290.542,265.92 L288.976,266.046 L288.976,268.008 L290.398,268.008 L290.398,272.472 C290.398,273.216 290.509,273.873 290.731,274.443 C290.953,275.013 291.307,275.457 291.793,275.775 C292.279,276.093 292.918,276.252 293.71,276.252 Z M299.874,276.252 C300.75,276.252 301.485,276.108 302.079,275.82 C302.673,275.532 303.123,275.148 303.429,274.668 C303.735,274.188 303.888,273.654 303.888,273.066 C303.888,272.442 303.747,271.938 303.465,271.554 C303.183,271.17 302.826,270.861 302.394,270.627 C301.962,270.393 301.524,270.192 301.08,270.024 C300.732,269.892 300.405,269.766 300.099,269.646 C299.793,269.526 299.547,269.385 299.361,269.223 C299.175,269.061 299.082,268.86 299.082,268.62 C299.082,268.332 299.193,268.098 299.415,267.918 C299.637,267.738 299.976,267.648 300.432,267.648 C300.804,267.648 301.167,267.726 301.521,267.882 C301.875,268.038 302.232,268.248 302.592,268.512 L302.592,268.512 L303.78,266.91 C303.372,266.598 302.883,266.313 302.313,266.055 C301.743,265.797 301.092,265.668 300.36,265.668 C299.592,265.668 298.926,265.8 298.362,266.064 C297.798,266.328 297.363,266.691 297.057,267.153 C296.751,267.615 296.598,268.146 296.598,268.746 C296.598,269.31 296.733,269.781 297.003,270.159 C297.273,270.537 297.618,270.846 298.038,271.086 C298.458,271.326 298.878,271.53 299.298,271.698 C299.658,271.83 299.997,271.965 300.315,272.103 C300.633,272.241 300.894,272.397 301.098,272.571 C301.302,272.745 301.404,272.958 301.404,273.21 C301.404,273.522 301.287,273.777 301.053,273.975 C300.819,274.173 300.45,274.272 299.946,274.272 C299.478,274.272 299.025,274.176 298.587,273.984 C298.149,273.792 297.702,273.522 297.246,273.174 L297.246,273.174 L296.04,274.83 C296.544,275.238 297.141,275.577 297.831,275.847 C298.521,276.117 299.202,276.252 299.874,276.252 Z M313.948,276 L314.974,271.608 C315.082,271.14 315.178,270.666 315.262,270.186 C315.346,269.706 315.436,269.202 315.532,268.674 L315.532,268.674 L315.622,268.674 C315.718,269.202 315.811,269.703 315.901,270.177 C315.991,270.651 316.09,271.128 316.198,271.608 L316.198,271.608 L317.26,276 L320.374,276 L322.858,265.92 L320.41,265.92 L319.312,270.888 C319.228,271.38 319.147,271.869 319.069,272.355 C318.991,272.841 318.904,273.336 318.808,273.84 L318.808,273.84 L318.718,273.84 C318.61,273.336 318.508,272.841 318.412,272.355 C318.316,271.869 318.208,271.38 318.088,270.888 L318.088,270.888 L316.828,265.92 L314.488,265.92 L313.264,270.888 C313.144,271.368 313.033,271.854 312.931,272.346 C312.829,272.838 312.73,273.336 312.634,273.84 L312.634,273.84 L312.562,273.84 C312.478,273.336 312.397,272.841 312.319,272.355 C312.241,271.869 312.154,271.38 312.058,270.888 L312.058,270.888 L310.96,265.92 L308.314,265.92 L310.924,276 L313.948,276 Z M328.662,276.252 C329.286,276.252 329.904,276.15 330.516,275.946 C331.128,275.742 331.68,275.472 332.172,275.136 L332.172,275.136 L331.272,273.516 C330.912,273.744 330.549,273.918 330.183,274.038 C329.817,274.158 329.424,274.218 329.004,274.218 C328.26,274.218 327.636,274.005 327.132,273.579 C326.628,273.153 326.322,272.526 326.214,271.698 L326.214,271.698 L332.424,271.698 C332.508,271.422 332.55,271.014 332.55,270.474 C332.55,269.55 332.391,268.725 332.073,267.999 C331.755,267.273 331.284,266.703 330.66,266.289 C330.036,265.875 329.262,265.668 328.338,265.668 C327.738,265.668 327.159,265.791 326.601,266.037 C326.043,266.283 325.542,266.637 325.098,267.099 C324.654,267.561 324.3,268.116 324.036,268.764 C323.772,269.412 323.64,270.144 323.64,270.96 C323.64,272.064 323.862,273.012 324.306,273.804 C324.75,274.596 325.353,275.202 326.115,275.622 C326.877,276.042 327.726,276.252 328.662,276.252 Z M330.282,269.934 L326.178,269.934 C326.274,269.202 326.532,268.65 326.952,268.278 C327.372,267.906 327.846,267.72 328.374,267.72 C329.022,267.72 329.502,267.921 329.814,268.323 C330.126,268.725 330.282,269.262 330.282,269.934 L330.282,269.934 Z M341.62,276.252 C342.148,276.252 342.652,276.126 343.132,275.874 C343.612,275.622 344.038,275.316 344.41,274.956 L344.41,274.956 L344.482,274.956 L344.68,276 L346.822,276 L346.822,261.636 L344.194,261.636 L344.194,265.182 L344.284,266.766 C343.924,266.43 343.549,266.163 343.159,265.965 C342.769,265.767 342.292,265.668 341.728,265.668 C341.008,265.668 340.324,265.881 339.676,266.307 C339.028,266.733 338.503,267.342 338.101,268.134 C337.699,268.926 337.498,269.868 337.498,270.96 C337.498,272.064 337.669,273.012 338.011,273.804 C338.353,274.596 338.833,275.202 339.451,275.622 C340.069,276.042 340.792,276.252 341.62,276.252 Z M342.304,274.074 C341.644,274.074 341.131,273.813 340.765,273.291 C340.399,272.769 340.216,271.986 340.216,270.942 C340.216,269.934 340.423,269.166 340.837,268.638 C341.251,268.11 341.74,267.846 342.304,267.846 C342.616,267.846 342.934,267.903 343.258,268.017 C343.582,268.131 343.894,268.326 344.194,268.602 L344.194,268.602 L344.194,273.03 C343.894,273.402 343.591,273.669 343.285,273.831 C342.979,273.993 342.652,274.074 342.304,274.074 Z M353.688,276.252 C354.312,276.252 354.93,276.15 355.542,275.946 C356.154,275.742 356.706,275.472 357.198,275.136 L357.198,275.136 L356.298,273.516 C355.938,273.744 355.575,273.918 355.209,274.038 C354.843,274.158 354.45,274.218 354.03,274.218 C353.286,274.218 352.662,274.005 352.158,273.579 C351.654,273.153 351.348,272.526 351.24,271.698 L351.24,271.698 L357.45,271.698 C357.534,271.422 357.576,271.014 357.576,270.474 C357.576,269.55 357.417,268.725 357.099,267.999 C356.781,267.273 356.31,266.703 355.686,266.289 C355.062,265.875 354.288,265.668 353.364,265.668 C352.764,265.668 352.185,265.791 351.627,266.037 C351.069,266.283 350.568,266.637 350.124,267.099 C349.68,267.561 349.326,268.116 349.062,268.764 C348.798,269.412 348.666,270.144 348.666,270.96 C348.666,272.064 348.888,273.012 349.332,273.804 C349.776,274.596 350.379,275.202 351.141,275.622 C351.903,276.042 352.752,276.252 353.688,276.252 Z M355.308,269.934 L351.204,269.934 C351.3,269.202 351.558,268.65 351.978,268.278 C352.398,267.906 352.872,267.72 353.4,267.72 C354.048,267.72 354.528,267.921 354.84,268.323 C355.152,268.725 355.308,269.262 355.308,269.934 L355.308,269.934 Z M362.264,276.252 C363.14,276.252 363.875,276.108 364.469,275.82 C365.063,275.532 365.513,275.148 365.819,274.668 C366.125,274.188 366.278,273.654 366.278,273.066 C366.278,272.442 366.137,271.938 365.855,271.554 C365.573,271.17 365.216,270.861 364.784,270.627 C364.352,270.393 363.914,270.192 363.47,270.024 C363.122,269.892 362.795,269.766 362.489,269.646 C362.183,269.526 361.937,269.385 361.751,269.223 C361.565,269.061 361.472,268.86 361.472,268.62 C361.472,268.332 361.583,268.098 361.805,267.918 C362.027,267.738 362.366,267.648 362.822,267.648 C363.194,267.648 363.557,267.726 363.911,267.882 C364.265,268.038 364.622,268.248 364.982,268.512 L364.982,268.512 L366.17,266.91 C365.762,266.598 365.273,266.313 364.703,266.055 C364.133,265.797 363.482,265.668 362.75,265.668 C361.982,265.668 361.316,265.8 360.752,266.064 C360.188,266.328 359.753,266.691 359.447,267.153 C359.141,267.615 358.988,268.146 358.988,268.746 C358.988,269.31 359.123,269.781 359.393,270.159 C359.663,270.537 360.008,270.846 360.428,271.086 C360.848,271.326 361.268,271.53 361.688,271.698 C362.048,271.83 362.387,271.965 362.705,272.103 C363.023,272.241 363.284,272.397 363.488,272.571 C363.692,272.745 363.794,272.958 363.794,273.21 C363.794,273.522 363.677,273.777 363.443,273.975 C363.209,274.173 362.84,274.272 362.336,274.272 C361.868,274.272 361.415,274.176 360.977,273.984 C360.539,273.792 360.092,273.522 359.636,273.174 L359.636,273.174 L358.43,274.83 C358.934,275.238 359.531,275.577 360.221,275.847 C360.911,276.117 361.592,276.252 362.264,276.252 Z M369.256,264.3 C369.712,264.3 370.081,264.168 370.363,263.904 C370.645,263.64 370.786,263.286 370.786,262.842 C370.786,262.41 370.645,262.062 370.363,261.798 C370.081,261.534 369.712,261.402 369.256,261.402 C368.8,261.402 368.428,261.534 368.14,261.798 C367.852,262.062 367.708,262.41 367.708,262.842 C367.708,263.286 367.852,263.64 368.14,263.904 C368.428,264.168 368.8,264.3 369.256,264.3 Z M370.57,276 L370.57,265.92 L367.924,265.92 L367.924,276 L370.57,276 Z M376.572,280.374 C377.7,280.374 378.672,280.218 379.488,279.906 C380.304,279.594 380.937,279.165 381.387,278.619 C381.837,278.073 382.062,277.464 382.062,276.792 C382.062,275.904 381.738,275.262 381.09,274.866 C380.442,274.47 379.512,274.272 378.3,274.272 L378.3,274.272 L376.59,274.272 C376.002,274.272 375.591,274.2 375.357,274.056 C375.123,273.912 375.006,273.708 375.006,273.444 C375.006,273.24 375.045,273.075 375.123,272.949 C375.201,272.823 375.306,272.7 375.438,272.58 C375.906,272.736 376.338,272.814 376.734,272.814 C377.454,272.814 378.108,272.688 378.696,272.436 C379.284,272.184 379.752,271.803 380.1,271.293 C380.448,270.783 380.622,270.15 380.622,269.394 C380.622,269.082 380.58,268.791 380.496,268.521 C380.412,268.251 380.304,268.032 380.172,267.864 L380.172,267.864 L381.882,267.864 L381.882,265.92 L378.246,265.92 C378.042,265.848 377.808,265.788 377.544,265.74 C377.28,265.692 377.01,265.668 376.734,265.668 C376.026,265.668 375.36,265.806 374.736,266.082 C374.112,266.358 373.611,266.766 373.233,267.306 C372.855,267.846 372.666,268.512 372.666,269.304 C372.666,269.892 372.804,270.417 373.08,270.879 C373.356,271.341 373.668,271.698 374.016,271.95 L374.016,271.95 L374.016,272.022 C373.716,272.238 373.452,272.511 373.224,272.841 C372.996,273.171 372.882,273.528 372.882,273.912 C372.882,274.32 372.969,274.662 373.143,274.938 C373.317,275.214 373.536,275.436 373.8,275.604 L373.8,275.604 L373.8,275.694 C373.344,275.958 372.99,276.267 372.738,276.621 C372.486,276.975 372.36,277.362 372.36,277.782 C372.36,278.37 372.546,278.856 372.918,279.24 C373.29,279.624 373.794,279.909 374.43,280.095 C375.066,280.281 375.78,280.374 376.572,280.374 Z M376.734,271.176 C376.29,271.176 375.915,271.014 375.609,270.69 C375.303,270.366 375.15,269.904 375.15,269.304 C375.15,268.716 375.303,268.263 375.609,267.945 C375.915,267.627 376.29,267.468 376.734,267.468 C377.19,267.468 377.568,267.627 377.868,267.945 C378.168,268.263 378.318,268.716 378.318,269.304 C378.318,269.904 378.165,270.366 377.859,270.69 C377.553,271.014 377.178,271.176 376.734,271.176 Z M376.968,278.7 C376.236,278.7 375.654,278.583 375.222,278.349 C374.79,278.115 374.574,277.788 374.574,277.368 C374.574,276.936 374.79,276.546 375.222,276.198 C375.402,276.246 375.606,276.282 375.834,276.306 C376.062,276.33 376.326,276.342 376.626,276.342 L376.626,276.342 L377.85,276.342 C378.39,276.342 378.804,276.402 379.092,276.522 C379.38,276.642 379.524,276.882 379.524,277.242 C379.524,277.638 379.287,277.98 378.813,278.268 C378.339,278.556 377.724,278.7 376.968,278.7 Z M386.048,276 L386.048,269.07 C386.42,268.698 386.759,268.416 387.065,268.224 C387.371,268.032 387.728,267.936 388.136,267.936 C388.628,267.936 388.988,268.092 389.216,268.404 C389.444,268.716 389.558,269.262 389.558,270.042 L389.558,270.042 L389.558,276 L392.204,276 L392.204,269.718 C392.204,268.446 391.958,267.453 391.466,266.739 C390.974,266.025 390.182,265.668 389.09,265.668 C388.406,265.668 387.8,265.824 387.272,266.136 C386.744,266.448 386.258,266.82 385.814,267.252 L385.814,267.252 L385.76,267.252 L385.562,265.92 L383.402,265.92 L383.402,276 L386.048,276 Z M398.962,276.252 C399.586,276.252 400.204,276.15 400.816,275.946 C401.428,275.742 401.98,275.472 402.472,275.136 L402.472,275.136 L401.572,273.516 C401.212,273.744 400.849,273.918 400.483,274.038 C400.117,274.158 399.724,274.218 399.304,274.218 C398.56,274.218 397.936,274.005 397.432,273.579 C396.928,273.153 396.622,272.526 396.514,271.698 L396.514,271.698 L402.724,271.698 C402.808,271.422 402.85,271.014 402.85,270.474 C402.85,269.55 402.691,268.725 402.373,267.999 C402.055,267.273 401.584,266.703 400.96,266.289 C400.336,265.875 399.562,265.668 398.638,265.668 C398.038,265.668 397.459,265.791 396.901,266.037 C396.343,266.283 395.842,266.637 395.398,267.099 C394.954,267.561 394.6,268.116 394.336,268.764 C394.072,269.412 393.94,270.144 393.94,270.96 C393.94,272.064 394.162,273.012 394.606,273.804 C395.05,274.596 395.653,275.202 396.415,275.622 C397.177,276.042 398.026,276.252 398.962,276.252 Z M400.582,269.934 L396.478,269.934 C396.574,269.202 396.832,268.65 397.252,268.278 C397.672,267.906 398.146,267.72 398.674,267.72 C399.322,267.72 399.802,267.921 400.114,268.323 C400.426,268.725 400.582,269.262 400.582,269.934 L400.582,269.934 Z M408.204,276.252 C408.732,276.252 409.236,276.126 409.716,275.874 C410.196,275.622 410.622,275.316 410.994,274.956 L410.994,274.956 L411.066,274.956 L411.264,276 L413.406,276 L413.406,261.636 L410.778,261.636 L410.778,265.182 L410.868,266.766 C410.508,266.43 410.133,266.163 409.743,265.965 C409.353,265.767 408.876,265.668 408.312,265.668 C407.592,265.668 406.908,265.881 406.26,266.307 C405.612,266.733 405.087,267.342 404.685,268.134 C404.283,268.926 404.082,269.868 404.082,270.96 C404.082,272.064 404.253,273.012 404.595,273.804 C404.937,274.596 405.417,275.202 406.035,275.622 C406.653,276.042 407.376,276.252 408.204,276.252 Z M408.888,274.074 C408.228,274.074 407.715,273.813 407.349,273.291 C406.983,272.769 406.8,271.986 406.8,270.942 C406.8,269.934 407.007,269.166 407.421,268.638 C407.835,268.11 408.324,267.846 408.888,267.846 C409.2,267.846 409.518,267.903 409.842,268.017 C410.166,268.131 410.478,268.326 410.778,268.602 L410.778,268.602 L410.778,273.03 C410.478,273.402 410.175,273.669 409.869,273.831 C409.563,273.993 409.236,274.074 408.888,274.074 Z M422.692,276 L422.692,268.008 L424.582,268.008 L424.582,265.92 L422.692,265.92 L422.692,265.056 C422.692,264.492 422.797,264.087 423.007,263.841 C423.217,263.595 423.52,263.472 423.916,263.472 C424.084,263.472 424.261,263.49 424.447,263.526 C424.633,263.562 424.81,263.616 424.978,263.688 L424.978,263.688 L425.464,261.726 C425.236,261.642 424.957,261.564 424.627,261.492 C424.297,261.42 423.94,261.384 423.556,261.384 C422.716,261.384 422.038,261.549 421.522,261.879 C421.006,262.209 420.631,262.653 420.397,263.211 C420.163,263.769 420.046,264.402 420.046,265.11 L420.046,265.11 L420.046,265.938 L418.696,266.046 L418.696,268.008 L420.046,268.008 L420.046,276 L422.692,276 Z M429.918,276.252 C430.758,276.252 431.547,276.045 432.285,275.631 C433.023,275.217 433.62,274.614 434.076,273.822 C434.532,273.03 434.76,272.076 434.76,270.96 C434.76,269.844 434.532,268.893 434.076,268.107 C433.62,267.321 433.023,266.718 432.285,266.298 C431.547,265.878 430.758,265.668 429.918,265.668 C429.078,265.668 428.289,265.878 427.551,266.298 C426.813,266.718 426.216,267.321 425.76,268.107 C425.304,268.893 425.076,269.844 425.076,270.96 C425.076,272.076 425.304,273.03 425.76,273.822 C426.216,274.614 426.813,275.217 427.551,275.631 C428.289,276.045 429.078,276.252 429.918,276.252 Z M429.918,274.092 C429.234,274.092 428.706,273.807 428.334,273.237 C427.962,272.667 427.776,271.908 427.776,270.96 C427.776,270.012 427.962,269.253 428.334,268.683 C428.706,268.113 429.234,267.828 429.918,267.828 C430.602,267.828 431.13,268.113 431.502,268.683 C431.874,269.253 432.06,270.012 432.06,270.96 C432.06,271.908 431.874,272.667 431.502,273.237 C431.13,273.807 430.602,274.092 429.918,274.092 Z M439.25,276 L439.25,269.988 C439.526,269.256 439.88,268.743 440.312,268.449 C440.744,268.155 441.158,268.008 441.554,268.008 C441.758,268.008 441.941,268.02 442.103,268.044 C442.265,268.068 442.436,268.11 442.616,268.17 L442.616,268.17 L443.066,265.884 C442.91,265.824 442.742,265.773 442.562,265.731 C442.382,265.689 442.154,265.668 441.878,265.668 C441.362,265.668 440.849,265.842 440.339,266.19 C439.829,266.538 439.388,267.042 439.016,267.702 L439.016,267.702 L438.962,267.702 L438.764,265.92 L436.604,265.92 L436.604,276 L439.25,276 Z M448.68,280.05 C449.436,280.05 450.072,279.903 450.588,279.609 C451.104,279.315 451.545,278.889 451.911,278.331 C452.277,277.773 452.604,277.098 452.892,276.306 L452.892,276.306 L456.474,265.92 L453.936,265.92 L452.55,270.6 C452.43,271.068 452.31,271.542 452.19,272.022 C452.07,272.502 451.95,272.976 451.83,273.444 L451.83,273.444 L451.74,273.444 C451.596,272.952 451.458,272.466 451.326,271.986 C451.194,271.506 451.05,271.044 450.894,270.6 L450.894,270.6 L449.292,265.92 L446.628,265.92 L450.552,275.82 L450.372,276.414 C450.228,276.858 450.006,277.224 449.706,277.512 C449.406,277.8 448.998,277.944 448.482,277.944 C448.362,277.944 448.239,277.929 448.113,277.899 C447.987,277.869 447.876,277.842 447.78,277.818 L447.78,277.818 L447.294,279.852 C447.498,279.912 447.705,279.96 447.915,279.996 C448.125,280.032 448.38,280.05 448.68,280.05 Z M461.828,276.252 C462.668,276.252 463.457,276.045 464.195,275.631 C464.933,275.217 465.53,274.614 465.986,273.822 C466.442,273.03 466.67,272.076 466.67,270.96 C466.67,269.844 466.442,268.893 465.986,268.107 C465.53,267.321 464.933,266.718 464.195,266.298 C463.457,265.878 462.668,265.668 461.828,265.668 C460.988,265.668 460.199,265.878 459.461,266.298 C458.723,266.718 458.126,267.321 457.67,268.107 C457.214,268.893 456.986,269.844 456.986,270.96 C456.986,272.076 457.214,273.03 457.67,273.822 C458.126,274.614 458.723,275.217 459.461,275.631 C460.199,276.045 460.988,276.252 461.828,276.252 Z M461.828,274.092 C461.144,274.092 460.616,273.807 460.244,273.237 C459.872,272.667 459.686,271.908 459.686,270.96 C459.686,270.012 459.872,269.253 460.244,268.683 C460.616,268.113 461.144,267.828 461.828,267.828 C462.512,267.828 463.04,268.113 463.412,268.683 C463.784,269.253 463.97,270.012 463.97,270.96 C463.97,271.908 463.784,272.667 463.412,273.237 C463.04,273.807 462.512,274.092 461.828,274.092 Z M471.52,276.252 C472.204,276.252 472.801,276.099 473.311,275.793 C473.821,275.487 474.292,275.076 474.724,274.56 L474.724,274.56 L474.796,274.56 L474.994,276 L477.154,276 L477.154,265.92 L474.508,265.92 L474.508,272.724 C474.172,273.168 473.851,273.489 473.545,273.687 C473.239,273.885 472.876,273.984 472.456,273.984 C471.976,273.984 471.622,273.825 471.394,273.507 C471.166,273.189 471.052,272.646 471.052,271.878 L471.052,271.878 L471.052,265.92 L468.406,265.92 L468.406,272.22 C468.406,273.48 468.652,274.467 469.144,275.181 C469.636,275.895 470.428,276.252 471.52,276.252 Z M481.104,276.252 C481.584,276.252 481.98,276.084 482.292,275.748 C482.604,275.412 482.76,275.004 482.76,274.524 C482.76,274.032 482.604,273.621 482.292,273.291 C481.98,272.961 481.584,272.796 481.104,272.796 C480.636,272.796 480.246,272.961 479.934,273.291 C479.622,273.621 479.466,274.032 479.466,274.524 C479.466,275.004 479.622,275.412 479.934,275.748 C480.246,276.084 480.636,276.252 481.104,276.252 Z" id="feedback-title"></path>
        </g>
    </g>
</svg>