<?xml version="1.0" encoding="UTF-8"?>
<svg width="278px" height="51px" viewBox="0 0 278 51" version="1.1" xmlns="http://www.w3.org/2000/svg" xmlns:xlink="http://www.w3.org/1999/xlink">
    <title>感谢您的参与，请收下属于您的电磁波信号碎片</title>
    <g id="Page-1" stroke="none" stroke-width="1" fill="none" fill-rule="evenodd">
        <g id="反馈-成功" transform="translate(-162.000000, -229.000000)" fill="#FFFFFF" fill-rule="nonzero">
            <path d="M172.602494,244.268025 L174.239657,242.869122 C173.946831,242.522727 173.534213,242.146356 173.001802,241.740008 C172.469391,241.33366 171.93698,240.983934 171.40457,240.690831 L171.40457,240.690831 L172.682355,240.690831 L172.682355,240.331113 C172.90863,240.530956 173.131577,240.747453 173.351196,240.980603 C173.570816,241.213754 173.740522,241.416928 173.860314,241.590125 C174.193071,241.363636 174.515845,241.123824 174.828636,240.87069 C175.141428,240.617555 175.444236,240.344436 175.737062,240.051332 C176.162991,240.584248 176.62885,241.003918 177.13464,241.310345 C177.640431,241.616771 178.179496,241.769984 178.751838,241.769984 C179.284249,241.769984 179.72016,241.676724 180.059572,241.490204 C180.398984,241.303683 180.675172,240.957288 180.888136,240.451019 C181.1011,239.944749 181.260824,239.218652 181.367306,238.272727 C181.08779,238.179467 180.781654,238.036246 180.448897,237.843064 C180.116141,237.649882 179.823315,237.446708 179.570419,237.233542 C179.517178,238.086207 179.443972,238.695729 179.3508,239.062108 C179.257628,239.428487 179.097905,239.618339 178.87163,239.631661 C178.592115,239.631661 178.312599,239.521748 178.033083,239.30192 C177.753568,239.082092 177.480707,238.772335 177.214502,238.372649 C177.693672,237.719828 178.129583,237.030368 178.522236,236.304271 C178.914889,235.578174 179.250973,234.808777 179.530489,233.996082 L179.530489,233.996082 L177.334294,233.476489 C177.187881,233.94279 177.01152,234.395768 176.805211,234.835423 C176.598902,235.275078 176.3693,235.701411 176.116405,236.11442 C175.956682,235.648119 175.806941,235.151842 175.667183,234.625588 C175.527425,234.099334 175.404305,233.549765 175.297823,232.976881 L175.297823,232.976881 L180.728413,232.976881 L180.728413,231.098354 L178.891596,231.098354 L179.490558,230.378918 C179.184422,230.125784 178.761821,229.87598 178.222755,229.629506 C177.683689,229.383033 177.181226,229.193182 176.715367,229.059953 L176.715367,229.059953 L175.537408,230.358934 C175.803613,230.452194 176.076474,230.562108 176.35599,230.688676 C176.635505,230.815243 176.901711,230.951803 177.154606,231.098354 L177.154606,231.098354 L175.018308,231.098354 C174.965067,230.512147 174.925136,229.892633 174.898515,229.239812 L174.898515,229.239812 L172.682355,229.239812 C172.708976,229.852665 172.748907,230.472179 172.802148,231.098354 L172.802148,231.098354 L164.316852,231.098354 L164.316852,234.096003 C164.316852,234.762147 164.280248,235.498237 164.207042,236.304271 C164.133835,237.110306 163.967457,237.909679 163.707907,238.70239 C163.448357,239.495102 163.045721,240.22453 162.5,240.890674 C162.659723,240.970611 162.852722,241.097179 163.078997,241.270376 C163.305271,241.443574 163.524891,241.626763 163.737855,241.819945 C163.950819,242.013127 164.110543,242.182994 164.217025,242.329545 C164.855918,241.570141 165.338415,240.710815 165.664516,239.751567 C165.990618,238.79232 166.210237,237.819749 166.323375,236.833856 C166.436512,235.847962 166.493081,234.948668 166.493081,234.135972 L166.493081,234.135972 L166.493081,232.976881 L173.061698,232.976881 C173.381145,234.922022 173.88028,236.634013 174.559103,238.112853 C174.266277,238.405956 173.966796,238.679075 173.66066,238.93221 C173.354524,239.185345 173.028422,239.425157 172.682355,239.651646 L172.682355,239.651646 L172.682355,236.374216 L167.032146,236.374216 L167.032146,240.690831 L170.985296,240.690831 L169.627649,241.829937 C170.000336,242.043103 170.376351,242.292908 170.755694,242.57935 C171.135037,242.865792 171.491086,243.155564 171.823843,243.448668 C172.1566,243.741771 172.41615,244.01489 172.602494,244.268025 L172.602494,244.268025 Z M172.822113,235.414969 L172.822113,233.89616 L166.952285,233.89616 L166.952285,235.414969 L172.822113,235.414969 Z M170.745711,239.152038 L168.92886,239.152038 L168.92886,237.893025 L170.745711,237.893025 L170.745711,239.152038 Z M179.191077,247.285658 L181.34734,246.206505 C181.174307,245.76685 180.918084,245.300549 180.578672,244.807602 C180.23926,244.314655 179.859918,243.82837 179.440644,243.348746 C179.021371,242.869122 178.592115,242.436129 178.152876,242.049765 L178.152876,242.049765 L176.156336,243.048981 C176.595574,243.461991 177.018175,243.92163 177.424139,244.4279 C177.830102,244.934169 178.189479,245.433777 178.50227,245.926724 C178.815062,246.419671 179.044664,246.872649 179.191077,247.285658 L179.191077,247.285658 Z M164.636298,247.485502 C165.315122,246.952586 165.860843,246.296434 166.273461,245.517045 C166.686079,244.737657 167.005526,243.934953 167.2318,243.108934 L167.2318,243.108934 L165.115468,242.34953 C164.915814,243.082288 164.60635,243.785071 164.187077,244.457876 C163.767803,245.130682 163.26534,245.700235 162.679689,246.166536 L162.679689,246.166536 L164.636298,247.485502 Z M174.159795,247.645376 C174.811998,247.645376 175.331099,247.562108 175.717097,247.395572 C176.103095,247.229036 176.39592,246.92261 176.595574,246.476293 C176.795228,246.029976 176.934986,245.40047 177.014848,244.587774 C176.708712,244.52116 176.342679,244.407915 175.916751,244.248041 C175.490822,244.088166 175.164721,243.92163 174.938446,243.748433 C174.911825,244.268025 174.868567,244.654389 174.808671,244.907524 C174.748775,245.160658 174.652275,245.327194 174.519173,245.407132 C174.38607,245.487069 174.193071,245.527038 173.940176,245.527038 L173.940176,245.527038 L171.224881,245.527038 C170.772332,245.527038 170.479506,245.49373 170.346403,245.427116 C170.213301,245.360502 170.146749,245.193966 170.146749,244.927508 L170.146749,244.927508 L170.146749,242.369514 L167.790832,242.369514 L167.790832,244.947492 C167.790832,245.626959 167.877349,246.163205 168.050382,246.55623 C168.223416,246.949255 168.539534,247.229036 168.998739,247.395572 C169.457943,247.562108 170.113474,247.645376 170.965331,247.645376 L170.965331,247.645376 L174.159795,247.645376 Z M191.190284,247.805251 C191.775936,247.805251 192.281726,247.781936 192.707655,247.735306 C193.133583,247.688676 193.486305,247.585423 193.765821,247.425549 C194.071957,247.252351 194.274939,247.025862 194.374766,246.746082 C194.474593,246.466301 194.524506,246.086599 194.524506,245.606975 L194.524506,245.606975 L194.524506,231.478056 L192.46807,231.478056 C192.614483,231.17163 192.754241,230.858542 192.887343,230.538793 L192.887343,230.538793 L193.286651,229.579545 L190.970665,229.239812 C190.917423,229.559561 190.847545,229.915948 190.761028,230.308973 C190.674511,230.701998 190.578012,231.091693 190.471529,231.478056 L190.471529,231.478056 L188.654678,231.478056 L188.654678,239.571708 L187.716304,239.571708 L187.716304,241.530172 L190.850872,241.530172 C190.438254,242.342868 189.929136,243.102273 189.323519,243.808386 C188.717902,244.514498 188.075681,245.107367 187.396857,245.586991 C187.52996,245.706897 187.683028,245.86344 187.856062,246.056622 C188.029095,246.249804 188.198801,246.446317 188.365179,246.64616 C188.531558,246.846003 188.654678,247.005878 188.734539,247.125784 C189.466604,246.5529 190.165393,245.853448 190.830907,245.027429 C191.49642,244.201411 192.075417,243.3221 192.567897,242.389498 L192.567897,242.389498 L192.567897,245.586991 C192.567897,245.800157 192.461415,245.90674 192.24845,245.90674 C192.128658,245.920063 191.905711,245.926724 191.579609,245.926724 C191.253508,245.926724 190.910768,245.920063 190.551391,245.90674 C190.697804,246.159875 190.830907,246.472962 190.950699,246.846003 C191.070492,247.219044 191.150353,247.538793 191.190284,247.805251 Z M196.401254,247.805251 C197.053457,247.805251 197.615816,247.778605 198.088331,247.725313 C198.560845,247.672022 198.956826,247.558777 199.276272,247.38558 C199.595719,247.19906 199.815338,246.955917 199.93513,246.656152 C200.054923,246.356387 200.114819,245.933386 200.114819,245.387147 L200.114819,245.387147 L200.114819,235.554859 L201.232882,235.554859 L201.232882,233.356583 L200.114819,233.356583 L200.114819,229.399687 L197.978521,229.399687 L197.978521,233.356583 L195.003676,233.356583 L195.003676,235.554859 L197.978521,235.554859 L197.978521,245.387147 C197.978521,245.533699 197.9519,245.633621 197.898659,245.686912 C197.845418,245.740204 197.745591,245.773511 197.599178,245.786834 C197.452765,245.786834 197.193215,245.783503 196.820528,245.776842 C196.44784,245.77018 196.048532,245.760188 195.622603,245.746865 C195.782327,246.026646 195.938722,246.36971 196.09179,246.776058 C196.244858,247.182406 196.348013,247.52547 196.401254,247.805251 Z M186.119072,234.235893 L187.7762,232.817006 C187.589856,232.51058 187.340289,232.164185 187.027497,231.777821 C186.714706,231.391458 186.378622,230.998433 186.019245,230.598746 C185.659867,230.19906 185.320456,229.83268 185.001009,229.499608 L185.001009,229.499608 L183.443708,230.738636 C183.763154,231.098354 184.095911,231.488049 184.441978,231.907719 C184.788045,232.32739 185.110819,232.7404 185.4103,233.146748 C185.709781,233.553096 185.946038,233.916144 186.119072,234.235893 L186.119072,234.235893 Z M192.567897,234.235893 L190.571356,234.235893 L190.571356,233.316614 L192.567897,233.316614 L192.567897,234.235893 Z M184.921147,247.585423 C184.987699,247.47884 185.084198,247.352273 185.210646,247.205721 C185.337093,247.059169 185.526765,246.869318 185.77966,246.636168 C186.032555,246.403017 186.378622,246.089929 186.817861,245.696904 C187.2571,245.303879 187.822786,244.80094 188.51492,244.188088 C188.421748,243.961599 188.325249,243.64518 188.225422,243.238832 C188.125595,242.832484 188.055716,242.482759 188.015785,242.189655 L188.015785,242.189655 L186.797895,243.208856 L186.797895,235.375 L182.784849,235.375 L182.784849,237.653213 L184.741459,237.653213 L184.741459,243.668495 C184.741459,244.161442 184.615011,244.607759 184.362116,245.007445 C184.109221,245.407132 183.882947,245.700235 183.683292,245.886755 C183.803085,246.006661 183.94617,246.169867 184.112549,246.376371 C184.278927,246.582876 184.43865,246.796042 184.591718,247.01587 C184.744786,247.235697 184.854596,247.425549 184.921147,247.585423 Z M192.567897,236.85384 L190.571356,236.85384 L190.571356,235.874608 L192.567897,235.874608 L192.567897,236.85384 Z M196.001946,241.909875 L197.838763,241.330329 C197.785522,240.91732 197.685695,240.444357 197.539282,239.911442 C197.392869,239.378527 197.223163,238.832288 197.030164,238.272727 C196.837165,237.713166 196.634184,237.193574 196.42122,236.71395 L196.42122,236.71395 L194.704195,237.233542 C194.903849,237.739812 195.09352,238.279389 195.273209,238.852273 C195.452898,239.425157 195.609293,239.978056 195.742396,240.510972 C195.875499,241.043887 195.962015,241.510188 196.001946,241.909875 L196.001946,241.909875 Z M192.567897,239.571708 L190.571356,239.571708 L190.571356,238.492555 L192.567897,238.492555 L192.567897,239.571708 Z M207.621811,240.910658 L207.621811,232.457288 C207.914636,232.057602 208.190825,231.644592 208.450375,231.21826 C208.709925,230.791928 208.946182,230.372257 209.159147,229.959248 L209.159147,229.959248 L207.062779,229.239812 C206.530369,230.265674 205.848217,231.26156 205.016326,232.227469 C204.184434,233.193378 203.315939,234.009404 202.41084,234.675549 C202.557253,234.8221 202.723632,235.015282 202.909975,235.255094 C203.096319,235.494906 203.27268,235.738049 203.439059,235.984522 C203.605437,236.230995 203.735212,236.434169 203.828384,236.594044 C204.081279,236.394201 204.334174,236.177704 204.587069,235.944553 C204.839964,235.711403 205.09286,235.46826 205.345755,235.215125 L205.345755,235.215125 L205.345755,240.910658 L207.621811,240.910658 Z M212.693023,243.808386 L214.390082,242.309561 C214.217049,242.083072 213.990774,241.856583 213.711258,241.630094 C213.431743,241.403605 213.132262,241.177116 212.812815,240.950627 C213.291985,240.937304 213.717914,240.907328 214.090601,240.860697 C214.463289,240.814067 214.796045,240.724138 215.088871,240.590909 C215.448249,240.417712 215.684506,240.1779 215.797643,239.871473 C215.91078,239.565047 215.967349,239.158699 215.967349,238.652429 L215.967349,238.652429 L215.967349,232.956897 L218.243405,232.956897 C218.150233,233.236677 218.053734,233.509796 217.953907,233.776254 C217.85408,234.042712 217.75758,234.282524 217.664408,234.49569 L217.664408,234.49569 L216.426553,235.035266 C216.706069,235.474922 216.988912,235.957876 217.275083,236.48413 C217.561254,237.010384 217.820804,237.523315 218.053734,238.022923 C218.286663,238.522531 218.463024,238.965517 218.582817,239.351881 L218.582817,239.351881 L220.619288,238.392633 C220.446254,237.899687 220.196687,237.336795 219.870585,236.703958 C219.544484,236.071121 219.195089,235.46826 218.822402,234.895376 L218.822402,234.895376 L219.621018,235.055251 C219.860603,234.575627 220.113498,233.986089 220.379703,233.286638 C220.645908,232.587187 220.885493,231.904389 221.098458,231.238245 L221.098458,231.238245 L219.441329,230.878527 L219.061986,230.958464 L212.712988,230.958464 C212.79285,230.771944 212.869384,230.582092 212.94259,230.388911 C213.015797,230.195729 213.085676,229.999216 213.152227,229.799373 L213.152227,229.799373 L210.975998,229.259796 C210.696483,230.125784 210.30383,230.955133 209.798039,231.747845 C209.292249,232.540556 208.726563,233.196708 208.10098,233.716301 C208.274014,233.836207 208.47034,233.98942 208.68996,234.17594 C208.909579,234.362461 209.125871,234.548981 209.338835,234.735502 C209.5518,234.922022 209.718178,235.081897 209.83797,235.215125 C210.157417,234.908699 210.470208,234.565635 210.776344,234.185933 C211.08248,233.80623 211.375306,233.396552 211.654822,232.956897 L211.654822,232.956897 L213.691293,232.956897 L213.691293,238.612461 C213.691293,238.798981 213.584811,238.898903 213.371847,238.912226 L213.371847,238.912226 L213.23983,238.91141 C213.10537,238.910051 212.90979,238.906992 212.653092,238.902234 C212.293715,238.895572 211.927682,238.88558 211.554995,238.872257 C211.674787,239.085423 211.79458,239.345219 211.914372,239.651646 C212.034165,239.958072 212.127337,240.251176 212.193888,240.530956 C211.994234,240.384404 211.791252,240.251176 211.584943,240.13127 C211.378634,240.011364 211.175652,239.898119 210.975998,239.791536 L210.975998,239.791536 L209.398731,241.15047 C209.81135,241.390282 210.230623,241.663401 210.656552,241.969828 C211.08248,242.276254 211.475133,242.589342 211.834511,242.909091 C212.193888,243.22884 212.480059,243.528605 212.693023,243.808386 L212.693023,243.808386 Z M210.416967,239.112069 C210.882826,238.605799 211.358668,237.976293 211.844493,237.22355 C212.330318,236.470807 212.719643,235.708072 213.012469,234.935345 L213.012469,234.935345 L210.856206,234.355799 C210.603311,234.995298 210.270554,235.634796 209.857936,236.274295 C209.445317,236.913793 209.006079,237.446708 208.540219,237.873041 C208.793114,238.019592 209.115888,238.216105 209.508541,238.462578 C209.901194,238.709052 210.204003,238.925549 210.416967,239.112069 Z M219.141848,247.105799 L221.278146,245.926724 C221.091802,245.460423 220.812287,244.960815 220.439599,244.4279 C220.066912,243.894984 219.647638,243.362069 219.181779,242.829154 C218.715919,242.296238 218.25006,241.809953 217.784201,241.370298 L217.784201,241.370298 L215.827591,242.449451 C216.293451,242.902429 216.749327,243.405368 217.195221,243.958268 C217.641115,244.511168 218.037096,245.060737 218.383163,245.606975 C218.72923,246.153213 218.982125,246.652821 219.141848,247.105799 L219.141848,247.105799 Z M214.070636,247.52547 C214.736149,247.52547 215.261905,247.438871 215.647903,247.265674 C216.0339,247.092476 216.330054,246.772727 216.536363,246.306426 C216.742672,245.840125 216.885758,245.173981 216.965619,244.307994 C216.646173,244.241379 216.273485,244.124804 215.847557,243.958268 C215.421628,243.791732 215.095526,243.621865 214.869252,243.448668 C214.842631,244.021552 214.799373,244.447884 214.739477,244.727665 C214.679581,245.007445 214.583081,245.193966 214.449978,245.287226 C214.316876,245.380486 214.123877,245.427116 213.870982,245.427116 L213.870982,245.427116 L211.155687,245.427116 C210.703138,245.427116 210.410312,245.390478 210.277209,245.317202 C210.144106,245.243926 210.077555,245.060737 210.077555,244.767633 L210.077555,244.767633 L210.077555,241.690047 L207.721638,241.690047 L207.721638,244.807602 C207.721638,245.500392 207.808154,246.043299 207.981188,246.436324 C208.154221,246.82935 208.47034,247.10913 208.929544,247.275666 C209.388749,247.442202 210.044279,247.52547 210.896137,247.52547 L210.896137,247.52547 L214.070636,247.52547 Z M204.567104,247.285658 C205.325789,246.712774 205.921424,246 206.354007,245.147335 C206.786591,244.294671 207.129331,243.402038 207.382226,242.469436 L207.382226,242.469436 L205.265893,241.75 C205.052929,242.589342 204.7235,243.378723 204.277606,244.118143 C203.831712,244.857563 203.276008,245.467085 202.610494,245.946708 L202.610494,245.946708 L204.567104,247.285658 Z M236.082492,247.735306 C236.648179,247.741967 237.117366,247.718652 237.490053,247.665361 C237.889361,247.598746 238.238756,247.492163 238.538237,247.345611 C238.837718,247.19906 239.127216,246.939263 239.406732,246.566223 C239.606386,246.299765 239.776092,245.880094 239.91585,245.30721 C240.055608,244.734326 240.172072,243.944945 240.265244,242.939067 C240.358416,241.93319 240.438278,240.650862 240.504829,239.092085 C240.571381,237.533307 240.637932,235.634796 240.704483,233.396552 C240.717793,233.303292 240.724449,233.170063 240.724449,232.996865 L240.724449,232.996865 L240.724449,232.317398 L235.11417,232.317398 C235.420307,231.464734 235.679857,230.61873 235.892821,229.779389 L235.892821,229.779389 L233.616765,229.259796 C233.323939,230.43221 232.947924,231.58797 232.48872,232.727077 C232.029516,233.866183 231.507088,234.855408 230.921436,235.694749 L230.921436,235.694749 L230.921436,232.457288 L227.826798,232.457288 C227.999832,232.030956 228.172865,231.571317 228.345899,231.07837 L228.345899,231.07837 L228.864999,229.59953 L226.269497,229.239812 C226.229566,229.706113 226.15636,230.232367 226.049877,230.818574 C225.943395,231.404781 225.823603,231.951019 225.6905,232.457288 L225.6905,232.457288 L223.43441,232.457288 L223.43441,247.305643 L225.590673,247.305643 L225.590673,245.846787 L230.921436,245.846787 L230.921436,236.514107 C231.187641,236.687304 231.470484,236.880486 231.769965,237.093652 C232.069446,237.306818 232.299049,237.486677 232.458772,237.633229 C232.764908,237.206897 233.071044,236.723942 233.37718,236.184365 C233.683317,235.644788 233.962832,235.075235 234.215727,234.475705 L234.215727,234.475705 L238.488323,234.475705 C238.421772,236.820533 238.341911,238.742359 238.248739,240.241183 C238.155567,241.740008 238.045757,242.882445 237.919309,243.668495 C237.792862,244.454545 237.629811,244.954154 237.430157,245.16732 C237.203883,245.393809 236.911057,245.507053 236.551679,245.507053 C236.298784,245.507053 235.899476,245.500392 235.353755,245.487069 C234.808034,245.473746 234.215727,245.440439 233.576834,245.387147 C233.789799,245.720219 233.969487,246.106583 234.1159,246.546238 C234.262313,246.985893 234.342175,247.372257 234.355485,247.705329 C234.941137,247.718652 235.516806,247.728644 236.082492,247.735306 Z M228.765172,237.773119 L225.590673,237.773119 L225.590673,234.535658 L228.765172,234.535658 L228.765172,237.773119 Z M235.393686,242.669279 L237.410192,241.430251 C237.210538,241.043887 236.941005,240.59424 236.601593,240.081309 C236.262181,239.568378 235.906131,239.038793 235.533444,238.492555 C235.160756,237.946317 234.808034,237.446708 234.475277,236.99373 L234.475277,236.99373 L232.618495,238.0529 C232.951252,238.532524 233.293991,239.055447 233.646713,239.621669 C233.999435,240.187892 234.332192,240.737461 234.644983,241.270376 C234.957775,241.803292 235.207342,242.269592 235.393686,242.669279 L235.393686,242.669279 Z M228.765172,243.748433 L225.590673,243.748433 L225.590673,239.831505 L228.765172,239.831505 L228.765172,243.748433 Z M259.751478,242.769201 C259.937821,242.476097 260.184061,242.136364 260.490197,241.75 C260.796334,241.363636 261.082504,241.05721 261.34871,240.830721 C260.470232,240.497649 259.615047,240.051332 258.783156,239.491771 C257.951264,238.93221 257.222527,238.326019 256.596944,237.673197 L256.596944,237.673197 L260.949402,237.673197 L260.949402,235.594828 L251.206285,235.594828 C251.312767,235.368339 251.415922,235.14185 251.515749,234.915361 C251.615576,234.688871 251.712075,234.455721 251.805247,234.215909 L251.805247,234.215909 L256.936356,234.016066 C257.388905,234.429075 257.754937,234.795455 258.034453,235.115204 L258.034453,235.115204 L260.030993,233.776254 C259.658306,233.363245 259.179136,232.913597 258.593484,232.427312 C258.007832,231.941027 257.392232,231.461403 256.746684,230.98844 C256.101136,230.515478 255.485536,230.092476 254.899885,229.719436 L254.899885,229.719436 L253.043102,230.918495 C253.322618,231.091693 253.608789,231.288205 253.901615,231.508033 C254.19444,231.727861 254.487266,231.951019 254.780092,232.177508 L254.780092,232.177508 L249.22971,232.317398 C249.762121,231.984326 250.287877,231.637931 250.806977,231.278213 C251.326078,230.918495 251.825213,230.545455 252.304382,230.159091 L252.304382,230.159091 L250.168084,229 C249.715535,229.452978 249.219728,229.87931 248.680662,230.278997 C248.141596,230.678683 247.642461,231.018417 247.183256,231.298197 C246.724052,231.577978 246.387968,231.777821 246.175004,231.897727 C245.882178,232.070925 245.612645,232.214146 245.366405,232.32739 C245.120165,232.440635 244.877252,232.517241 244.637668,232.55721 C244.730839,232.757053 244.824011,232.996865 244.917183,233.276646 C245.010355,233.556426 245.093544,233.826215 245.166751,234.086011 C245.239957,234.345807 245.289871,234.555643 245.316491,234.715517 C245.502835,234.648903 245.722454,234.595611 245.97535,234.555643 C246.228245,234.515674 246.597605,234.479036 247.083429,234.445729 C247.569254,234.412422 248.24475,234.375784 249.109918,234.335815 C248.936884,234.748824 248.730575,235.168495 248.49099,235.594828 L248.49099,235.594828 L242.880712,235.594828 L242.880712,237.673197 L247.013551,237.673197 C245.722454,239.085423 244.185118,240.157915 242.401542,240.890674 C242.587886,241.050549 242.794195,241.247061 243.02047,241.480212 C243.246745,241.713362 243.466364,241.946513 243.679328,242.179663 C243.892293,242.412813 244.058671,242.609326 244.178463,242.769201 C245.349767,242.182994 246.427899,241.456897 247.412859,240.590909 C247.585892,240.764107 247.745615,240.943966 247.892028,241.130486 C248.038441,241.317006 248.164889,241.490204 248.271371,241.650078 C248.936884,241.503527 249.639001,241.317006 250.377721,241.090517 C251.116441,240.864028 251.84185,240.600901 252.55395,240.301136 C253.266049,240.001371 253.90827,239.684953 254.480611,239.351881 L254.480611,239.351881 L252.543967,238.292712 C252.051487,238.545846 251.425905,238.79565 250.667219,239.042124 C249.908534,239.288597 249.143194,239.505094 248.371198,239.691614 C248.98347,239.065439 249.529191,238.392633 250.008361,237.673197 L250.008361,237.673197 L253.861684,237.673197 C254.593748,238.752351 255.475554,239.738245 256.5071,240.630878 C257.538645,241.523511 258.620105,242.236285 259.751478,242.769201 Z M247.732305,244.667712 C248.743885,244.481191 249.758793,244.241379 250.777029,243.948276 C251.795265,243.655172 252.760259,243.305447 253.672012,242.899099 C254.583766,242.492751 255.385709,242.029781 256.077843,241.510188 L256.077843,241.510188 L254.101269,240.530956 C253.555548,240.903997 252.853431,241.24373 251.994919,241.550157 C251.136406,241.856583 250.221325,242.11971 249.249676,242.339538 C248.278026,242.559365 247.339652,242.729232 246.434554,242.849138 C246.687449,243.102273 246.933689,243.402038 247.173274,243.748433 C247.412859,244.094828 247.599202,244.401254 247.732305,244.667712 Z M246.175004,247.945141 C247.905339,247.731975 249.545829,247.452194 251.096475,247.105799 C252.647122,246.759404 254.064665,246.299765 255.349106,245.726881 C256.633547,245.153997 257.728317,244.434561 258.633415,243.568574 L258.633415,243.568574 L256.437221,242.549373 C255.705156,243.215517 254.750144,243.771748 253.572185,244.218064 C252.394227,244.664381 251.07651,245.017437 249.619036,245.277234 C248.161561,245.53703 246.647518,245.726881 245.076906,245.846787 C245.289871,246.126567 245.499507,246.46297 245.705817,246.855995 C245.912126,247.24902 246.068521,247.612069 246.175004,247.945141 Z M273.777173,247.175745 C274.449342,247.182406 274.991735,247.165752 275.404353,247.125784 C275.936764,247.085815 276.385986,246.999216 276.752018,246.865987 C277.118051,246.732759 277.467445,246.492947 277.800202,246.146552 C278.106338,245.826803 278.375871,245.327194 278.608801,244.647727 C278.84173,243.96826 279.054695,243.022335 279.247694,241.809953 C279.440692,240.597571 279.617053,239.052116 279.776777,237.173589 C279.790087,237.067006 279.803397,236.930447 279.816708,236.763911 C279.830018,236.597375 279.84,236.447492 279.846656,236.314263 C279.853311,236.181034 279.856638,236.11442 279.856638,236.11442 L279.856638,236.11442 L267.737639,236.11442 L267.737639,233.416536 L279.377469,233.416536 L279.377469,231.138323 L267.737639,231.138323 L267.737639,229 L265.321825,229 L265.321825,238.312696 L277.241171,238.312696 C277.041517,240.231191 276.821897,241.700039 276.582312,242.71924 C276.342727,243.73844 276.056557,244.374608 275.7238,244.627743 C275.577387,244.747649 275.420991,244.820925 275.254613,244.847571 C275.088235,244.874216 274.885253,244.887539 274.645668,244.887539 L274.645668,244.887539 L274.394252,244.886552 C274.066425,244.88425 273.61782,244.877917 273.048436,244.867555 C272.316371,244.854232 271.557686,244.807602 270.77238,244.727665 C271.025275,245.060737 271.234912,245.453762 271.40129,245.90674 C271.567669,246.359718 271.664168,246.766066 271.690789,247.125784 C272.409543,247.152429 273.105005,247.169083 273.777173,247.175745 Z M275.284561,243.268809 L275.284561,240.990596 L262.86608,240.990596 L262.86608,243.268809 L275.284561,243.268809 Z M289.919201,247.565439 C291.157056,247.205721 292.122051,246.592868 292.814185,245.726881 C293.506319,244.860893 293.852386,243.861677 293.852386,242.729232 C293.852386,241.88989 293.66937,241.223746 293.303337,240.730799 C292.937305,240.237853 292.401566,239.991379 291.696122,239.991379 C291.163711,239.991379 290.704507,240.151254 290.318509,240.471003 C289.932512,240.790752 289.739513,241.230408 289.739513,241.789969 C289.739513,242.362853 289.932512,242.802508 290.318509,243.108934 C290.704507,243.415361 291.143746,243.568574 291.636226,243.568574 C291.742708,243.568574 291.815915,243.561912 291.855845,243.548589 C291.736053,244.654389 290.877541,245.460423 289.280308,245.966693 L289.280308,245.966693 L289.919201,247.565439 Z M181.287444,269.228448 L181.287444,267.529781 L176.236197,267.529781 L176.236197,266.670455 L180.069555,266.670455 L180.069555,265.071708 L176.236197,265.071708 L176.236197,264.272335 L180.688482,264.272335 L180.688482,262.573668 L176.236197,262.573668 L176.236197,261.214734 L173.88028,261.214734 L173.88028,262.573668 L169.547787,262.573668 L169.547787,264.272335 L173.88028,264.272335 L173.88028,265.071708 L170.086853,265.071708 L170.086853,266.670455 L173.88028,266.670455 L173.88028,267.529781 L168.948825,267.529781 L168.948825,269.228448 L181.287444,269.228448 Z M166.772596,266.170846 L168.409759,264.512147 C168.183485,264.219044 167.884004,263.895964 167.511316,263.542908 C167.138629,263.189851 166.749303,262.836795 166.34334,262.483738 C165.937377,262.130682 165.554707,261.807602 165.195329,261.514498 L165.195329,261.514498 L163.677959,262.95337 C164.037336,263.273119 164.416679,263.626176 164.815987,264.012539 C165.215295,264.398903 165.59131,264.781936 165.944032,265.161638 C166.296754,265.54134 166.572942,265.877743 166.772596,266.170846 L166.772596,266.170846 Z M165.335087,279.700235 C165.414949,279.580329 165.534741,279.44377 165.694464,279.290556 C165.854188,279.137343 166.093773,278.924177 166.413219,278.651058 C166.732665,278.377939 167.175232,278.018221 167.740918,277.571904 C168.306605,277.125588 169.041997,276.549373 169.947095,275.84326 C169.813993,275.603448 169.670907,275.280368 169.517839,274.87402 C169.364771,274.467672 169.248306,274.104624 169.168445,273.784875 L169.168445,273.784875 L167.45142,275.10384 L167.45142,267.349922 L162.739585,267.349922 L162.739585,269.628135 L165.175364,269.628135 L165.175364,275.803292 C165.175364,276.25627 165.062227,276.649295 164.835952,276.982367 C164.609678,277.315439 164.390058,277.555251 164.177094,277.701803 C164.310197,277.835031 164.453282,278.024882 164.60635,278.271356 C164.759418,278.517829 164.902503,278.770964 165.035606,279.03076 C165.168709,279.290556 165.268536,279.513715 165.335087,279.700235 Z M172.502667,279.900078 L172.502667,276.982367 L177.673706,276.982367 L177.673706,277.561912 C177.673706,277.775078 177.553914,277.881661 177.314329,277.881661 L177.314329,277.881661 L176.50573,277.881661 C176.099767,277.881661 175.690476,277.868339 175.277858,277.841693 C175.424271,278.134796 175.557374,278.471199 175.677166,278.850901 C175.796958,279.230603 175.883475,279.567006 175.936716,279.86011 C176.62885,279.86011 177.224485,279.846787 177.72362,279.820141 C178.222755,279.793495 178.645356,279.693574 178.991423,279.520376 C179.36411,279.360502 179.613678,279.130682 179.740125,278.830917 C179.866573,278.531152 179.929797,278.121473 179.929797,277.601881 L179.929797,277.601881 L179.929797,269.987853 L170.306473,269.987853 L170.306473,279.900078 L172.502667,279.900078 Z M177.673706,272.74569 L172.502667,272.74569 L172.502667,271.726489 L177.673706,271.726489 L177.673706,272.74569 Z M177.673706,275.403605 L172.502667,275.403605 L172.502667,274.264498 L177.673706,274.264498 L177.673706,275.403605 Z M192.288381,279.960031 C193.885613,279.067398 195.20333,277.974922 196.241531,276.682602 C196.747321,277.3221 197.29637,277.904976 197.888677,278.43123 C198.480984,278.957484 199.123204,279.420455 199.815338,279.820141 C200.001682,279.500392 200.254577,279.147335 200.574023,278.760972 C200.89347,278.374608 201.179641,278.074843 201.432536,277.861677 C200.687161,277.475313 199.998354,277.015674 199.366116,276.482759 C198.733879,275.949843 198.151554,275.350313 197.619144,274.684169 C198.204796,273.658307 198.700603,272.519201 199.106566,271.26685 C199.512529,270.014498 199.841959,268.648903 200.094854,267.170063 L200.094854,267.170063 L201.292778,267.170063 L201.292778,264.911834 L195.20333,264.911834 C195.349743,264.378918 195.479518,263.836011 195.592655,263.283111 C195.705793,262.730212 195.808947,262.173981 195.902119,261.61442 L195.902119,261.61442 L193.486305,261.214734 C193.24672,262.826803 192.887343,264.352273 192.408174,265.791144 C191.929004,267.230016 191.303421,268.435737 190.531426,269.408307 L190.531426,269.408307 L190.531426,261.534483 L188.175508,261.534483 L188.175508,272.485893 L186.059175,273.125392 L186.059175,263.373041 L183.723223,263.373041 L183.723223,273.005486 C183.723223,273.418495 183.646689,273.731583 183.493621,273.944749 C183.340553,274.157915 183.170847,274.31779 182.984503,274.424373 C183.104296,274.597571 183.224088,274.817398 183.343881,275.083856 C183.463673,275.350313 183.573483,275.620102 183.67331,275.893221 C183.773137,276.16634 183.849671,276.402821 183.902912,276.602665 C184.049325,276.482759 184.252306,276.352861 184.511857,276.21297 C184.771407,276.07308 185.184025,275.88989 185.749712,275.663401 C186.315398,275.436912 187.123997,275.137147 188.175508,274.764107 L188.175508,274.764107 L188.175508,279.920063 L190.531426,279.920063 L190.531426,269.887931 C190.797631,270.141066 191.070492,270.457484 191.350007,270.837187 C191.629523,271.216889 191.835832,271.519984 191.968935,271.746473 C192.155278,271.519984 192.334967,271.286834 192.508001,271.047022 C192.681034,270.80721 192.847412,270.560737 193.007136,270.307602 C193.499616,271.893025 194.131853,273.345219 194.903849,274.664185 C193.825717,276.076411 192.448104,277.195533 190.771011,278.021552 C190.930734,278.168103 191.110422,278.361285 191.310076,278.601097 C191.50973,278.840909 191.699402,279.084052 191.87909,279.330525 C192.058779,279.576998 192.195209,279.786834 192.288381,279.960031 Z M196.181635,272.505878 C195.782327,271.786442 195.422949,271.020376 195.103503,270.20768 C194.784057,269.394984 194.511196,268.562304 194.284921,267.709639 C194.311542,267.616379 194.344818,267.52645 194.384748,267.439851 C194.424679,267.353252 194.457955,267.263323 194.484575,267.170063 L194.484575,267.170063 L197.738936,267.170063 C197.579213,268.182602 197.372904,269.135188 197.120009,270.027821 C196.867114,270.920455 196.554322,271.746473 196.181635,272.505878 Z M212.812815,279.820141 L212.812815,270.327586 C213.491639,270.71395 214.17379,271.123629 214.859269,271.556622 C215.544748,271.989616 216.186968,272.412618 216.785931,272.825627 C217.384893,273.238636 217.877373,273.618339 218.26337,273.964734 L218.26337,273.964734 L220.020326,271.786442 C219.647638,271.480016 219.185106,271.146944 218.63273,270.787226 C218.080354,270.427508 217.488047,270.06779 216.855809,269.708072 C216.223572,269.348354 215.594661,268.998629 214.969079,268.658895 C214.343496,268.319161 213.757844,268.016066 213.212123,267.749608 L213.212123,267.749608 L212.812815,268.209248 L212.812815,265.071708 L220.838907,265.071708 L220.838907,262.673589 L203.049733,262.673589 L203.049733,265.071708 L210.257244,265.071708 L210.257244,279.820141 L212.812815,279.820141 Z M224.512541,279.86011 C225.031642,279.034091 225.450915,278.118143 225.770362,277.112265 C226.089808,276.106387 226.329393,275.063871 226.489116,273.984718 C226.64884,272.905564 226.758649,271.846395 226.818545,270.80721 C226.878442,269.768025 226.90839,268.808777 226.90839,267.929467 L226.90839,267.929467 L226.90839,266.830329 L239.885902,266.830329 L239.885902,262.054075 L224.512541,262.054075 L224.512541,267.929467 C224.512541,268.72884 224.492576,269.591497 224.452645,270.517437 C224.412714,271.443378 224.326198,272.385972 224.193095,273.345219 C224.059992,274.304467 223.853683,275.237069 223.574168,276.143025 C223.294652,277.048981 222.908654,277.881661 222.416174,278.641066 C222.615828,278.721003 222.848758,278.834248 223.114963,278.980799 C223.381169,279.127351 223.644046,279.280564 223.903597,279.440439 C224.163147,279.600313 224.366128,279.740204 224.512541,279.86011 Z M237.490053,265.03174 L226.90839,265.03174 L226.90839,263.872649 L237.490053,263.872649 L237.490053,265.03174 Z M229.424031,279.86011 L229.424031,275.56348 L232.418841,275.56348 L232.418841,276.722571 L229.763442,276.822492 L229.9032,278.461207 C230.768368,278.407915 231.73669,278.351293 232.808166,278.29134 C233.879643,278.231387 234.974413,278.168103 236.092475,278.101489 C236.119096,278.234718 236.149044,278.367947 236.182319,278.501176 C236.215595,278.634404 236.238888,278.75431 236.252198,278.860893 L236.252198,278.860893 L236.611576,278.760972 C236.691437,278.934169 236.764644,279.114028 236.831195,279.300549 C236.897746,279.487069 236.944332,279.673589 236.970953,279.86011 C237.516674,279.86011 237.992516,279.850118 238.398479,279.830133 C238.804442,279.810149 239.147182,279.733542 239.426697,279.600313 C239.732834,279.467085 239.932488,279.287226 240.02566,279.060737 C240.118831,278.834248 240.165417,278.494514 240.165417,278.041536 L240.165417,278.041536 L240.165417,274.024687 L234.575105,274.024687 L234.575105,273.205329 L239.247009,273.205329 L239.247009,269.708072 L234.575105,269.708072 L234.575105,268.848746 C235.440272,268.768809 236.265509,268.675549 237.050814,268.568966 C237.83612,268.462382 238.554875,268.342476 239.207078,268.209248 L239.207078,268.209248 L237.869396,266.870298 C237.283744,267.003527 236.59161,267.116771 235.792994,267.210031 C234.994378,267.303292 234.139193,267.383229 233.22744,267.449843 C232.315686,267.516458 231.383968,267.569749 230.432283,267.609718 C229.480599,267.649687 228.552208,267.676332 227.64711,267.689655 C227.753592,267.876176 227.850091,268.109326 227.936608,268.389107 C228.023125,268.668887 228.079693,268.915361 228.106314,269.128527 C228.785138,269.128527 229.490582,269.118534 230.222647,269.09855 C230.954711,269.078566 231.686776,269.041928 232.418841,268.988636 L232.418841,268.988636 L232.418841,269.708072 L227.966556,269.708072 L227.966556,273.205329 L232.418841,273.205329 L232.418841,274.024687 L229.424031,274.024687 L229.424031,273.525078 L227.327663,273.525078 L227.327663,274.024687 L226.788597,274.024687 L226.788597,275.56348 L227.327663,275.56348 L227.327663,279.86011 L229.424031,279.86011 Z M232.418841,271.906348 L230.062923,271.906348 L230.062923,271.007053 L232.418841,271.007053 L232.418841,271.906348 Z M237.030849,271.906348 L234.575105,271.906348 L234.575105,271.007053 L237.030849,271.007053 L237.030849,271.906348 Z M237.729638,278.281348 L237.649777,278.281348 C237.569915,277.894984 237.44014,277.465321 237.260451,276.992359 C237.080763,276.519397 236.877781,276.083072 236.651506,275.683386 L236.651506,275.683386 L235.293859,276.023119 C235.3471,276.116379 235.393686,276.21297 235.433617,276.312892 C235.473548,276.412813 235.513478,276.516066 235.553409,276.622649 L235.553409,276.622649 L234.575105,276.662618 L234.575105,275.56348 L237.989188,275.56348 L237.989188,278.041536 C237.989188,278.201411 237.902672,278.281348 237.729638,278.281348 L237.729638,278.281348 Z M247.672409,279.780172 C248.657369,279.780172 249.515881,279.753527 250.247946,279.700235 C250.980011,279.646944 251.578973,279.520376 252.044832,279.320533 C252.524002,279.134013 252.856758,278.850901 253.043102,278.471199 C253.229446,278.091497 253.322618,277.535266 253.322618,276.802508 L253.322618,276.802508 L253.322618,271.306818 L260.809644,271.306818 L260.809644,268.948668 L253.322618,268.948668 L253.322618,264.851881 L259.451997,264.851881 L259.451997,262.49373 L244.27829,262.49373 L244.27829,264.851881 L250.806977,264.851881 L250.806977,268.948668 L242.920643,268.948668 L242.920643,271.306818 L250.806977,271.306818 L250.806977,276.782524 C250.806977,276.982367 250.760391,277.118926 250.667219,277.192202 C250.574047,277.265478 250.414324,277.308777 250.18805,277.3221 C250.041637,277.3221 249.782086,277.325431 249.409399,277.332092 C249.036711,277.338754 248.610783,277.335423 248.131613,277.3221 C247.652443,277.308777 247.166619,277.288793 246.674139,277.262147 C246.873793,277.595219 247.073447,278.008229 247.273101,278.501176 C247.472755,278.994122 247.605857,279.420455 247.672409,279.780172 Z M267.518019,272.88558 L267.518019,264.43221 C267.810845,264.032524 268.087033,263.619514 268.346584,263.193182 C268.606134,262.76685 268.842391,262.347179 269.055355,261.934169 L269.055355,261.934169 L266.958988,261.214734 C266.426577,262.240596 265.744426,263.236481 264.912534,264.20239 C264.080642,265.168299 263.212147,265.984326 262.307049,266.65047 C262.453462,266.797022 262.61984,266.990204 262.806184,267.230016 C262.992528,267.469828 263.168889,267.71297 263.335267,267.959444 C263.501646,268.205917 263.631421,268.409091 263.724593,268.568966 C263.977488,268.369122 264.230383,268.152625 264.483278,267.919475 C264.736173,267.686324 264.989068,267.443182 265.241963,267.190047 L265.241963,267.190047 L265.241963,272.88558 L267.518019,272.88558 Z M272.589232,275.783307 L274.286291,274.284483 C274.113257,274.057994 273.886983,273.831505 273.607467,273.605016 C273.327952,273.378527 273.028471,273.152038 272.709024,272.925549 C273.188194,272.912226 273.614122,272.882249 273.98681,272.835619 C274.359497,272.788989 274.692254,272.69906 274.98508,272.565831 C275.344457,272.392633 275.580715,272.152821 275.693852,271.846395 C275.806989,271.539969 275.863558,271.133621 275.863558,270.627351 L275.863558,270.627351 L275.863558,264.931818 L278.139614,264.931818 C278.046442,265.211599 277.949942,265.484718 277.850115,265.751176 C277.750288,266.017633 277.653789,266.257445 277.560617,266.470611 L277.560617,266.470611 L276.322762,267.010188 C276.602278,267.449843 276.885121,267.932798 277.171292,268.459052 C277.457462,268.985306 277.717013,269.498237 277.949942,269.997845 C278.182872,270.497453 278.359233,270.940439 278.479026,271.326803 L278.479026,271.326803 L280.515497,270.367555 C280.342463,269.874608 280.092896,269.311716 279.766794,268.678879 C279.440692,268.046042 279.091298,267.443182 278.71861,266.870298 L278.71861,266.870298 L279.517226,267.030172 C279.756811,266.550549 280.009706,265.961011 280.275912,265.26156 C280.542117,264.562108 280.781702,263.87931 280.994666,263.213166 L280.994666,263.213166 L279.337538,262.853448 L278.958195,262.933386 L272.609197,262.933386 C272.689059,262.746865 272.765593,262.557014 272.838799,262.363832 C272.912006,262.17065 272.981885,261.974138 273.048436,261.774295 L273.048436,261.774295 L270.872207,261.234718 C270.592691,262.100705 270.200038,262.930055 269.694248,263.722766 C269.188458,264.515478 268.622772,265.17163 267.997189,265.691223 C268.170222,265.811129 268.366549,265.964342 268.586168,266.150862 C268.805788,266.337382 269.02208,266.523903 269.235044,266.710423 C269.448008,266.896944 269.614387,267.056818 269.734179,267.190047 C270.053625,266.883621 270.366417,266.540556 270.672553,266.160854 C270.978689,265.781152 271.271515,265.371473 271.551031,264.931818 L271.551031,264.931818 L273.587502,264.931818 L273.587502,270.587382 C273.587502,270.773903 273.48102,270.873824 273.268055,270.887147 L273.268055,270.887147 L273.136039,270.886332 C273.001578,270.884972 272.805999,270.881913 272.549301,270.877155 C272.189924,270.870494 271.823891,270.860502 271.451204,270.847179 C271.570996,271.060345 271.690789,271.320141 271.810581,271.626567 C271.930373,271.932994 272.023545,272.226097 272.090097,272.505878 C271.890443,272.359326 271.687461,272.226097 271.481152,272.106191 C271.274843,271.986285 271.071861,271.873041 270.872207,271.766458 L270.872207,271.766458 L269.29494,273.125392 C269.707559,273.365204 270.126832,273.638323 270.552761,273.944749 C270.978689,274.251176 271.371342,274.564263 271.730719,274.884013 C272.090097,275.203762 272.376267,275.503527 272.589232,275.783307 L272.589232,275.783307 Z M270.313176,271.086991 C270.779035,270.580721 271.254877,269.951215 271.740702,269.198472 C272.226527,268.445729 272.615852,267.682994 272.908678,266.910266 L272.908678,266.910266 L270.752415,266.330721 C270.499519,266.970219 270.166763,267.609718 269.754144,268.249216 C269.341526,268.888715 268.902287,269.42163 268.436428,269.847962 C268.689323,269.994514 269.012097,270.191027 269.40475,270.4375 C269.797403,270.683973 270.100211,270.90047 270.313176,271.086991 Z M279.038057,279.080721 L281.174355,277.901646 C280.988011,277.435345 280.708496,276.935737 280.335808,276.402821 C279.96312,275.869906 279.543847,275.336991 279.077988,274.804075 C278.612128,274.27116 278.146269,273.784875 277.680409,273.345219 L277.680409,273.345219 L275.7238,274.424373 C276.189659,274.877351 276.645536,275.38029 277.09143,275.93319 C277.537324,276.486089 277.933305,277.035658 278.279371,277.581897 C278.625438,278.128135 278.878334,278.627743 279.038057,279.080721 L279.038057,279.080721 Z M273.966844,279.500392 C274.632358,279.500392 275.158113,279.413793 275.544111,279.240596 C275.930109,279.067398 276.226263,278.747649 276.432572,278.281348 C276.638881,277.815047 276.781966,277.148903 276.861828,276.282915 C276.542381,276.216301 276.169694,276.099726 275.743765,275.93319 C275.317837,275.766654 274.991735,275.596787 274.765461,275.423589 C274.73884,275.996473 274.695582,276.422806 274.635685,276.702586 C274.575789,276.982367 274.47929,277.168887 274.346187,277.262147 C274.213084,277.355408 274.020086,277.402038 273.76719,277.402038 L273.76719,277.402038 L271.051896,277.402038 C270.599346,277.402038 270.306521,277.3654 270.173418,277.292124 C270.040315,277.218848 269.973764,277.035658 269.973764,276.742555 L269.973764,276.742555 L269.973764,273.664969 L267.617846,273.664969 L267.617846,276.782524 C267.617846,277.475313 267.704363,278.018221 267.877397,278.411246 C268.05043,278.804271 268.366549,279.084052 268.825753,279.250588 C269.284957,279.417124 269.940488,279.500392 270.792345,279.500392 L270.792345,279.500392 L273.966844,279.500392 Z M264.463313,279.26058 C265.221998,278.687696 265.817633,277.974922 266.250216,277.122257 C266.6828,276.269592 267.025539,275.376959 267.278434,274.444357 L267.278434,274.444357 L265.162102,273.724922 C264.949137,274.564263 264.619708,275.353644 264.173814,276.093064 C263.72792,276.832484 263.172217,277.442006 262.506703,277.92163 L262.506703,277.92163 L264.463313,279.26058 Z M295.978701,279.710227 C296.544388,279.716889 297.013575,279.693574 297.386262,279.640282 C297.78557,279.573668 298.134965,279.467085 298.434446,279.320533 C298.733927,279.173981 299.023425,278.914185 299.302941,278.541144 C299.502595,278.274687 299.672301,277.855016 299.812059,277.282132 C299.951816,276.709248 300.068281,275.919867 300.161453,274.913989 C300.254625,273.908111 300.334487,272.625784 300.401038,271.067006 C300.467589,269.508229 300.534141,267.609718 300.600692,265.371473 C300.614002,265.278213 300.620657,265.144984 300.620657,264.971787 L300.620657,264.971787 L300.620657,264.29232 L295.010379,264.29232 C295.316515,263.439655 295.576066,262.593652 295.78903,261.75431 L295.78903,261.75431 L293.512974,261.234718 C293.220148,262.407132 292.844133,263.562892 292.384929,264.701998 C291.925724,265.841105 291.403296,266.830329 290.817645,267.669671 L290.817645,267.669671 L290.817645,264.43221 L287.723007,264.43221 C287.896041,264.005878 288.069074,263.546238 288.242108,263.053292 L288.242108,263.053292 L288.761208,261.574451 L286.165706,261.214734 C286.125775,261.681034 286.052568,262.207288 285.946086,262.793495 C285.839604,263.379702 285.719812,263.92594 285.586709,264.43221 L285.586709,264.43221 L283.330618,264.43221 L283.330618,279.280564 L285.486882,279.280564 L285.486882,277.821708 L290.817645,277.821708 L290.817645,268.489028 C291.08385,268.662226 291.366693,268.855408 291.666174,269.068574 C291.965655,269.28174 292.195257,269.461599 292.354981,269.60815 C292.661117,269.181818 292.967253,268.698864 293.273389,268.159287 C293.579525,267.61971 293.859041,267.050157 294.111936,266.450627 L294.111936,266.450627 L298.384532,266.450627 C298.317981,268.795455 298.238119,270.717281 298.144947,272.216105 C298.051776,273.714929 297.941966,274.857367 297.815518,275.643417 C297.689071,276.429467 297.52602,276.929075 297.326366,277.142241 C297.100091,277.36873 296.807265,277.481975 296.447888,277.481975 C296.194993,277.481975 295.795685,277.475313 295.249964,277.461991 C294.704243,277.448668 294.111936,277.415361 293.473043,277.362069 C293.686007,277.695141 293.865696,278.081505 294.012109,278.52116 C294.158522,278.960815 294.238384,279.347179 294.251694,279.680251 C294.837346,279.693574 295.413015,279.703566 295.978701,279.710227 Z M288.661381,269.748041 L285.486882,269.748041 L285.486882,266.51058 L288.661381,266.51058 L288.661381,269.748041 Z M295.289895,274.644201 L297.3064,273.405172 C297.106746,273.018809 296.837213,272.569161 296.497802,272.05623 C296.15839,271.543299 295.80234,271.013715 295.429653,270.467476 C295.056965,269.921238 294.704243,269.42163 294.371486,268.968652 L294.371486,268.968652 L292.514704,270.027821 C292.84746,270.507445 293.1902,271.030368 293.542922,271.596591 C293.895644,272.162813 294.228401,272.712382 294.541192,273.245298 C294.853983,273.778213 295.103551,274.244514 295.289895,274.644201 L295.289895,274.644201 Z M288.661381,275.723354 L285.486882,275.723354 L285.486882,271.806426 L288.661381,271.806426 L288.661381,275.723354 Z M317.671111,279.660266 C318.483038,279.660266 319.121931,279.520376 319.58779,279.240596 C320.05365,278.960815 320.406372,278.504506 320.645956,277.871669 C320.885541,277.238832 321.058575,276.402821 321.165057,275.363636 C320.872231,275.297022 320.552785,275.19377 320.206718,275.053879 C319.860651,274.913989 319.534549,274.764107 319.228413,274.604232 L319.228413,274.604232 L319.228413,264.092476 L312.919346,264.092476 L312.919346,261.314655 L310.363774,261.314655 L310.363774,264.092476 L304.034741,264.092476 L304.034741,275.883229 L306.490486,275.883229 L306.490486,274.704154 L310.363774,274.704154 L310.363774,275.803292 C310.363774,276.815831 310.466929,277.601881 310.673238,278.161442 C310.879547,278.721003 311.238924,279.110697 311.751369,279.330525 C312.263815,279.550353 312.972587,279.660266 313.877685,279.660266 L313.877685,279.660266 L317.671111,279.660266 Z M310.363774,268.349138 L306.490486,268.349138 L306.490486,266.410658 L310.363774,266.410658 L310.363774,268.349138 Z M316.792634,268.349138 L312.919346,268.349138 L312.919346,266.410658 L316.792634,266.410658 L316.792634,268.349138 Z M310.363774,272.385972 L306.490486,272.385972 L306.490486,270.527429 L310.363774,270.527429 L310.363774,272.385972 Z M316.792634,272.385972 L312.919346,272.385972 L312.919346,270.527429 L316.792634,270.527429 L316.792634,272.385972 Z M317.431527,277.262147 L314.157201,277.262147 C313.797823,277.262147 313.52829,277.22884 313.348602,277.162226 C313.168913,277.095611 313.052448,276.959052 312.999207,276.752547 C312.945966,276.546042 312.919346,276.236285 312.919346,275.823276 L312.919346,275.823276 L312.919346,274.704154 L318.789174,274.704154 C318.735933,275.383621 318.662726,275.906544 318.569555,276.272923 C318.476383,276.639303 318.34328,276.895768 318.170247,277.04232 C317.997213,277.188871 317.750973,277.262147 317.431527,277.262147 L317.431527,277.262147 Z M339.573158,279.600313 L341.270218,279.220611 C341.216977,278.794279 341.13046,278.304663 341.010667,277.751763 C340.890875,277.198864 340.751117,276.632641 340.591394,276.053096 C340.431671,275.47355 340.258637,274.930643 340.072293,274.424373 L340.072293,274.424373 L338.475061,274.764107 C338.92761,273.951411 339.356867,273.112069 339.76283,272.246082 C340.168793,271.380094 340.538153,270.514107 340.87091,269.648119 L340.87091,269.648119 L338.854404,268.808777 C338.747922,269.208464 338.618147,269.614812 338.465079,270.027821 C338.31201,270.440831 338.155615,270.847179 337.995892,271.246865 L337.995892,271.246865 L336.738071,271.326803 C337.084138,270.71395 337.416895,270.061129 337.736341,269.368339 C338.055788,268.675549 338.321993,268.002743 338.534957,267.349922 L338.534957,267.349922 L337.137379,266.730408 L341.030633,266.730408 L341.030633,264.592085 L338.035822,264.592085 C338.262097,264.165752 338.498354,263.719436 338.744594,263.253135 C338.990834,262.786834 339.233747,262.320533 339.473331,261.854232 L339.473331,261.854232 L337.137379,261.234718 C337.004277,261.740987 336.817933,262.300549 336.578348,262.913401 C336.338763,263.526254 336.085868,264.085815 335.819663,264.592085 L335.819663,264.592085 L332.804887,264.592085 L333.982846,264.072492 C333.849743,263.672806 333.636779,263.203174 333.343953,262.663597 C333.051127,262.12402 332.738335,261.634404 332.405579,261.194749 L332.405579,261.194749 L330.508866,261.934169 C330.775071,262.347179 331.031294,262.793495 331.277534,263.273119 C331.523773,263.752743 331.7201,264.192398 331.866513,264.592085 L331.866513,264.592085 L328.911633,264.592085 L328.911633,266.730408 L330.688554,266.730408 C330.568762,267.289969 330.415694,267.842868 330.22935,268.389107 C330.043006,268.935345 329.866645,269.408307 329.700267,269.807994 C329.533888,270.20768 329.410768,270.487461 329.330907,270.647335 C329.038081,271.193574 328.75191,271.513323 328.472394,271.606583 C328.605497,271.859718 328.7386,272.186129 328.871702,272.585815 C329.004805,272.985502 329.097977,273.291928 329.151218,273.505094 C329.284321,273.43848 329.483975,273.375196 329.75018,273.315243 C330.016386,273.25529 330.4889,273.185345 331.167724,273.105408 C330.848277,273.731583 330.552124,274.284483 330.279263,274.764107 C330.006403,275.24373 329.796766,275.583464 329.650353,275.783307 C329.424079,276.156348 329.211114,276.469436 329.01146,276.722571 C328.811806,276.975705 328.605497,277.148903 328.392533,277.242163 L328.392533,277.242163 L328.392533,268.269201 L325.517515,268.269201 C325.836961,266.950235 326.096511,265.544671 326.296165,264.052508 L326.296165,264.052508 L328.592187,264.052508 L328.592187,262.153997 L322.462808,262.153997 L322.462808,264.052508 L324.319591,264.052508 C324.146557,265.624608 323.893662,267.11344 323.560905,268.519005 C323.228149,269.924569 322.755634,271.120298 322.143362,272.106191 C322.249844,272.279389 322.359654,272.519201 322.472791,272.825627 C322.585928,273.132053 322.689083,273.435149 322.782255,273.734914 C322.875426,274.034679 322.941978,274.27116 322.981909,274.444357 C323.101701,274.284483 323.218166,274.114616 323.331303,273.934757 C323.44444,273.754898 323.55425,273.571708 323.660732,273.385188 L323.660732,273.385188 L323.660732,278.960815 L325.437653,278.960815 L325.437653,277.422022 L328.312671,277.422022 C328.432464,277.701803 328.552256,278.018221 328.672048,278.371277 C328.791841,278.724334 328.878358,278.994122 328.931599,279.180643 C329.064701,279.114028 329.247718,279.044083 329.480647,278.970807 C329.713577,278.897531 330.099575,278.807602 330.638641,278.701019 C331.177707,278.594436 331.959685,278.467868 332.984575,278.321317 C333.037817,278.747649 333.077747,279.153997 333.104368,279.540361 L333.104368,279.540361 L334.761496,279.26058 C334.708255,278.701019 334.608428,278.06152 334.462015,277.342085 C334.581808,277.635188 334.704928,277.971591 334.831375,278.351293 C334.957823,278.730995 335.047667,279.014107 335.100908,279.200627 C335.100908,279.160658 335.107563,279.134013 335.120874,279.12069 L335.120874,279.12069 L335.120874,279.200627 C335.253976,279.134013 335.443648,279.064067 335.689888,278.990792 C335.936128,278.917516 336.342091,278.827586 336.907777,278.721003 C337.473464,278.61442 338.295373,278.481191 339.373504,278.321317 C339.426745,278.547806 339.470004,278.770964 339.50328,278.990792 C339.536555,279.210619 339.559848,279.413793 339.573158,279.600313 L339.573158,279.600313 Z M334.44205,277.242163 C334.348878,276.775862 334.249051,276.3029 334.142569,275.823276 C334.036087,275.343652 333.929605,274.890674 333.823122,274.464342 L333.823122,274.464342 L332.405579,274.684169 C332.871438,273.871473 333.323987,273.032132 333.763226,272.166144 C334.202465,271.300157 334.601773,270.427508 334.96115,269.548197 L334.96115,269.548197 L333.004541,268.72884 C332.871438,269.14185 332.721698,269.55819 332.555319,269.977861 C332.388941,270.397531 332.219235,270.813871 332.046202,271.226881 L332.046202,271.226881 L330.868243,271.306818 C331.21431,270.680643 331.550394,270.024491 331.876496,269.338362 C332.202597,268.652234 332.478785,267.982759 332.70506,267.329937 L332.70506,267.329937 L331.347412,266.730408 L336.458556,266.730408 C336.352073,267.289969 336.208988,267.839538 336.029299,268.379114 C335.849611,268.918691 335.679905,269.384992 335.520182,269.778017 C335.360458,270.171042 335.247321,270.447492 335.18077,270.607367 C335.047667,270.860502 334.914564,271.070337 334.781462,271.236873 C334.648359,271.403409 334.508601,271.513323 334.362188,271.566614 C334.481981,271.833072 334.611756,272.172806 334.751514,272.585815 C334.891271,272.998824 334.987771,273.311912 335.041012,273.525078 C335.187425,273.458464 335.400389,273.39185 335.679905,273.325235 C335.95942,273.258621 336.458556,273.185345 337.17731,273.105408 C336.884484,273.731583 336.611624,274.284483 336.358729,274.764107 C336.105833,275.24373 335.912835,275.576803 335.779732,275.763323 L335.624002,275.994741 C335.421686,276.292108 335.240666,276.54471 335.080943,276.752547 C334.881289,277.012343 334.668324,277.175549 334.44205,277.242163 Z M326.615612,275.583464 L325.437653,275.583464 L325.437653,270.107759 L326.615612,270.107759 L326.615612,275.583464 Z M337.217241,276.842476 C337.430205,276.522727 337.639842,276.189655 337.846151,275.84326 C338.05246,275.496865 338.262097,275.137147 338.475061,274.764107 C338.581543,275.05721 338.678043,275.360306 338.76456,275.673393 C338.851076,275.986481 338.934266,276.296238 339.014127,276.602665 L339.014127,276.602665 L337.217241,276.842476 Z M331.087862,276.802508 C331.287516,276.496082 331.490498,276.179663 331.696807,275.853252 C331.903116,275.526842 332.106098,275.1971 332.305752,274.864028 C332.372303,275.130486 332.438854,275.410266 332.505406,275.70337 C332.571957,275.996473 332.631853,276.296238 332.685094,276.602665 L332.685094,276.602665 L331.087862,276.802508 Z M351.013334,279.900078 C351.77202,279.606975 352.500757,279.253918 353.199546,278.840909 C353.898335,278.4279 354.553866,277.954937 355.166138,277.422022 C355.791721,277.941614 356.467217,278.407915 357.192626,278.820925 C357.918036,279.233934 358.70667,279.580329 359.558527,279.86011 C359.71825,279.553683 359.947852,279.200627 360.247333,278.80094 C360.546814,278.401254 360.823002,278.081505 361.075897,277.841693 C360.263971,277.615204 359.498631,277.3221 358.779876,276.962382 C358.061122,276.602665 357.395608,276.196317 356.783336,275.743339 C357.462159,274.890674 358.057794,273.934757 358.570239,272.875588 C359.082685,271.816418 359.491975,270.647335 359.798112,269.368339 L359.798112,269.368339 L358.320672,268.72884 L357.901398,268.808777 L355.645308,268.808777 L355.645308,266.030956 L358.041156,266.030956 C357.934674,266.377351 357.818209,266.710423 357.691762,267.030172 C357.565314,267.349922 357.448849,267.623041 357.342367,267.84953 L357.342367,267.84953 L359.398804,268.44906 C359.691629,267.902821 359.984455,267.240008 360.277281,266.460619 C360.570107,265.68123 360.823002,264.911834 361.035967,264.152429 L361.035967,264.152429 L359.298977,263.732759 L358.899668,263.83268 L355.645308,263.83268 L355.645308,261.194749 L353.28939,261.194749 L353.28939,263.83268 L348.717313,263.83268 L348.717313,268.928683 C348.717313,269.648119 348.697348,270.427508 348.657417,271.26685 C348.617486,272.106191 348.524314,272.962187 348.377901,273.834835 C348.231488,274.707484 348.011869,275.553487 347.719043,276.372845 C347.426217,277.192202 347.026909,277.954937 346.521119,278.66105 C346.720773,278.727665 346.947047,278.834248 347.199942,278.980799 C347.452837,279.127351 347.702405,279.277234 347.948645,279.430447 C348.194885,279.58366 348.384556,279.720219 348.517659,279.840125 C348.930277,279.253918 349.276344,278.627743 349.55586,277.961599 C349.715583,278.10815 349.888617,278.301332 350.07496,278.541144 C350.261304,278.780956 350.440993,279.024099 350.614026,279.270572 C350.78706,279.517045 350.920162,279.726881 351.013334,279.900078 Z M346.960358,265.231583 L348.357936,263.293103 C348.09173,263.106583 347.745663,262.896748 347.319735,262.663597 C346.893806,262.430447 346.457895,262.193966 346.012001,261.954154 C345.566107,261.714342 345.163471,261.501176 344.804094,261.314655 L344.804094,261.314655 L343.486377,263.053292 C343.859065,263.253135 344.265028,263.486285 344.704267,263.752743 C345.143506,264.019201 345.566107,264.282328 345.97207,264.542124 C346.378033,264.80192 346.707462,265.03174 346.960358,265.231583 L346.960358,265.231583 Z M353.28939,268.808777 L350.993369,268.808777 L350.993369,266.030956 L353.28939,266.030956 L353.28939,268.808777 Z M345.86226,270.567398 L347.239873,268.58895 C346.960358,268.402429 346.607635,268.195925 346.181707,267.969436 C345.755778,267.742947 345.316539,267.516458 344.86399,267.289969 C344.411441,267.06348 343.998823,266.870298 343.626135,266.710423 L343.626135,266.710423 L342.308419,268.469044 C342.694416,268.668887 343.11369,268.895376 343.566239,269.148511 C344.018788,269.401646 344.451372,269.65145 344.86399,269.897923 C345.276609,270.144397 345.609365,270.367555 345.86226,270.567398 L345.86226,270.567398 Z M355.106242,274.164577 C354.267695,273.205329 353.575561,272.119514 353.02984,270.907132 L353.02984,270.907132 L356.943059,270.907132 C356.50382,272.159483 355.891548,273.245298 355.106242,274.164577 Z M349.575825,277.901646 C350.001754,276.875784 350.317873,275.793299 350.524182,274.654193 C350.730491,273.515086 350.860266,272.405956 350.913507,271.326803 C351.259574,272.166144 351.6489,272.955525 352.081483,273.694945 C352.514067,274.434365 352.996564,275.130486 353.528975,275.783307 C352.357671,276.715909 351.039955,277.422022 349.575825,277.901646 Z M344.824059,279.660266 C345.32985,278.687696 345.842295,277.648511 346.361395,276.542712 C346.880496,275.436912 347.359666,274.351097 347.798904,273.285266 L347.798904,273.285266 L345.942122,271.866379 C345.609365,272.639107 345.253316,273.418495 344.873973,274.204545 C344.49463,274.990596 344.115288,275.730016 343.735945,276.422806 C343.356602,277.115596 343.007208,277.721787 342.687761,278.241379 L342.687761,278.241379 L344.824059,279.660266 Z M380.801715,266.250784 L380.801715,264.312304 L374.752198,264.312304 L375.890226,263.812696 C375.757124,263.452978 375.550814,263.026646 375.271299,262.533699 C374.991783,262.040752 374.712268,261.587774 374.432752,261.174765 L374.432752,261.174765 L372.416246,261.934169 C372.642521,262.293887 372.868795,262.686912 373.09507,263.113245 C373.321344,263.539577 373.507688,263.939263 373.654101,264.312304 L373.654101,264.312304 L367.943996,264.312304 L367.943996,266.250784 L380.801715,266.250784 Z M367.025587,279.960031 L367.025587,265.471395 C367.318413,264.885188 367.584619,264.29565 367.824204,263.702782 C368.063788,263.109914 368.290063,262.520376 368.503027,261.934169 L368.503027,261.934169 L366.386695,261.294671 C366.080558,262.227273 365.707871,263.153213 365.268632,264.072492 C364.829393,264.991771 364.346896,265.851097 363.82114,266.65047 C363.295385,267.449843 362.752991,268.155956 362.19396,268.768809 C362.327063,268.955329 362.473476,269.198472 362.633199,269.498237 C362.792922,269.798002 362.94599,270.094436 363.092403,270.387539 C363.238816,270.680643 363.345298,270.920455 363.41185,271.106975 C363.651434,270.827194 363.894347,270.524099 364.140587,270.197688 C364.386827,269.871277 364.629739,269.541536 364.869324,269.208464 L364.869324,269.208464 L364.869324,279.960031 L367.025587,279.960031 Z M379.344241,269.168495 L379.344241,267.309953 L369.341574,267.309953 L369.341574,269.168495 L379.344241,269.168495 Z M379.344241,272.066223 L379.344241,270.20768 L369.341574,270.20768 L369.341574,272.066223 L379.344241,272.066223 Z M371.058599,279.86011 L371.058599,279.240596 L377.507424,279.240596 L377.507424,279.800157 L379.603791,279.800157 L379.603791,273.185345 L369.042093,273.185345 L369.042093,279.86011 L371.058599,279.86011 Z M377.507424,277.342085 L371.058599,277.342085 L371.058599,275.083856 L377.507424,275.083856 L377.507424,277.342085 Z M398.131685,267.909483 L398.131685,261.894201 L385.114242,261.894201 L385.114242,267.909483 L398.131685,267.909483 Z M395.616044,265.851097 L387.490125,265.851097 L387.490125,263.972571 L395.616044,263.972571 L395.616044,265.851097 Z M392.394128,279.810773 L392.860819,279.810149 C393.473091,279.803487 393.972226,279.793495 394.358224,279.780172 C394.824083,279.753527 395.230047,279.690243 395.576114,279.590321 C395.922181,279.4904 396.241627,279.300549 396.534453,279.020768 C396.88052,278.687696 397.180001,278.118143 397.432896,277.312108 C397.685791,276.506074 397.912066,275.336991 398.11172,273.804859 C398.13834,273.644984 398.164961,273.43848 398.191581,273.185345 C398.210596,273.004534 398.22282,272.888299 398.228253,272.836639 L398.231512,272.805643 L388.668084,272.805643 C388.761256,272.552508 388.847773,272.302704 388.927634,272.05623 C389.007496,271.809757 389.087358,271.559953 389.167219,271.306818 L389.167219,271.306818 L400.427707,271.306818 L400.427707,269.168495 L382.73836,269.168495 L382.73836,271.306818 L386.47189,271.306818 C386.285546,271.959639 386.075909,272.605799 385.84298,273.245298 C385.61005,273.884796 385.393758,274.451019 385.194104,274.943966 L385.194104,274.943966 L386.651578,274.943966 L386.651578,274.96395 L395.37646,274.96395 C395.243357,275.683386 395.103599,276.242947 394.957186,276.642633 C394.810773,277.04232 394.644395,277.315439 394.458051,277.461991 C394.324948,277.541928 394.188518,277.591889 394.04876,277.611873 C393.909002,277.631857 393.725986,277.64185 393.499712,277.64185 C393.193576,277.64185 392.714406,277.631857 392.062203,277.611873 C391.41,277.591889 390.751141,277.555251 390.085628,277.501959 C390.311902,277.821708 390.498246,278.191418 390.644659,278.611089 C390.791072,279.03076 390.877589,279.413793 390.904209,279.760188 C391.596343,279.800157 392.248546,279.81681 392.860819,279.810149 L392.394128,279.810773 Z M420.353179,265.31152 L420.353179,263.193182 L416.599683,263.193182 C416.506511,262.886755 416.396701,262.547022 416.270254,262.173981 C416.143806,261.80094 416.014031,261.467868 415.880928,261.174765 L415.880928,261.174765 L413.74463,261.654389 C413.837802,261.894201 413.924319,262.144005 414.00418,262.403801 C414.084042,262.663597 414.157249,262.926724 414.2238,263.193182 L414.2238,263.193182 L409.951204,263.193182 L409.951204,265.31152 L420.353179,265.31152 Z M405.678607,278.940831 L405.678607,277.461991 L409.052761,277.461991 L409.052761,268.289185 L405.7984,268.289185 C406.024674,267.636364 406.224328,266.970219 406.397362,266.290752 C406.570395,265.611285 406.723464,264.931818 406.856566,264.252351 L406.856566,264.252351 L409.352242,264.252351 L409.352242,262.094044 L402.504108,262.094044 L402.504108,264.252351 L404.680337,264.252351 C404.427442,265.571317 404.08803,266.813676 403.662102,267.979428 C403.236173,269.14518 402.710418,270.141066 402.084835,270.967085 C402.204627,271.193574 402.321092,271.490008 402.434229,271.856387 C402.547367,272.222766 402.650521,272.585815 402.743693,272.945533 C402.836865,273.305251 402.896761,273.591693 402.923382,273.804859 C403.069795,273.631661 403.206225,273.455133 403.332673,273.275274 C403.45912,273.095415 403.588895,272.912226 403.721998,272.725705 L403.721998,272.725705 L403.721998,278.940831 L405.678607,278.940831 Z M411.089232,272.365987 C411.355437,272.019592 411.61166,271.619906 411.8579,271.166928 C412.10414,270.71395 412.333742,270.234326 412.546706,269.728056 C412.75967,269.954545 412.96598,270.184365 413.165634,270.417516 C413.365288,270.650666 413.525011,270.860502 413.644803,271.047022 L413.644803,271.047022 L415.102278,269.748041 C414.889313,269.494906 414.599815,269.18848 414.233783,268.828762 C413.86775,268.469044 413.525011,268.142633 413.205564,267.84953 C413.298736,267.556426 413.385253,267.253331 413.465115,266.940243 C413.544976,266.627155 413.618183,266.310737 413.684734,265.990987 L413.684734,265.990987 L411.688194,265.591301 C411.48854,266.670455 411.199041,267.706309 410.819699,268.698864 C410.440356,269.691418 409.977824,270.520768 409.432103,271.186912 C409.658378,271.320141 409.944549,271.509992 410.290616,271.756466 C410.636683,272.002939 410.902888,272.206113 411.089232,272.365987 Z M416.340133,279.900078 L416.340133,275.123824 L420.892244,275.123824 L420.892244,272.965517 L416.340133,272.965517 L416.340133,272.00627 C416.766061,271.420063 417.152059,270.727273 417.498126,269.9279 C417.844193,270.287618 418.173622,270.644005 418.486413,270.997061 C418.799205,271.350118 419.048772,271.659875 419.235116,271.926332 L419.235116,271.926332 L420.632694,270.367555 C420.379799,270.047806 420.030405,269.664773 419.584511,269.218456 C419.138617,268.772139 418.702705,268.355799 418.276777,267.969436 C418.476431,267.34326 418.656119,266.703762 418.815843,266.05094 L418.815843,266.05094 L416.799337,265.651254 C416.573062,266.690439 416.256943,267.696317 415.85098,268.668887 C415.445017,269.641458 414.96252,270.460815 414.403489,271.126959 C414.722935,271.300157 415.095623,271.519984 415.521551,271.786442 L415.521551,271.786442 L414.024146,271.786442 L414.024146,272.965517 L409.75155,272.965517 L409.75155,275.123824 L414.024146,275.123824 L414.024146,279.900078 L416.340133,279.900078 Z M407.076186,275.383621 L405.678607,275.383621 L405.678607,270.367555 L407.076186,270.367555 L407.076186,275.383621 Z M423.926986,280 C424.792153,279.094044 425.457667,278.101489 425.923526,277.022335 C426.389385,275.943182 426.728797,274.830721 426.941762,273.684953 L426.941762,273.684953 L434.508649,273.684953 L434.508649,279.900078 L437.124117,279.900078 L437.124117,271.186912 L427.241243,271.186912 C427.267863,270.76058 427.287829,270.334248 427.301139,269.907915 C427.314449,269.481583 427.321104,269.055251 427.321104,268.628918 L427.321104,268.628918 L439.5,268.628918 L439.5,266.170846 L434.788165,266.170846 L434.788165,261.234718 L432.212628,261.234718 L432.212628,266.170846 L427.321104,266.170846 L427.321104,261.634404 L424.825429,261.634404 L424.825429,268.349138 C424.825429,269.46826 424.76886,270.604036 424.655723,271.756466 C424.542586,272.908895 424.289691,274.024687 423.897038,275.10384 C423.504385,276.182994 422.89544,277.168887 422.070203,278.06152 C422.269857,278.194749 422.489477,278.377939 422.729062,278.611089 C422.968646,278.84424 423.198249,279.084052 423.417868,279.330525 C423.637487,279.576998 423.807193,279.800157 423.926986,280 Z" id="感谢您的参与，请收下属于您的电磁波信号碎片"></path>
        </g>
    </g>
</svg>