<?xml version="1.0" encoding="UTF-8"?>
<svg width="357px" height="22px" viewBox="0 0 357 22" version="1.1" xmlns="http://www.w3.org/2000/svg" xmlns:xlink="http://www.w3.org/1999/xlink">
    <title>成功反馈</title>
    <g id="Page-1" stroke="none" stroke-width="1" fill="none" fill-rule="evenodd">
        <g id="反馈-成功" transform="translate(-163.000000, -61.000000)" fill="#FFFFFF" fill-rule="nonzero">
            <path d="M206.18,66.52 C206.486667,66.52 206.786667,66.5466667 207.08,66.6 C207.373333,66.6533333 207.633333,66.72 207.86,66.8 L207.86,66.8 L211.9,66.8 L211.9,68.96 L210,68.96 L210.0848,69.0788 C210.1936,69.2462667 210.285333,69.45 210.36,69.69 C210.453333,69.99 210.5,70.3133333 210.5,70.66 C210.5,71.5 210.306667,72.2033333 209.92,72.77 C209.533333,73.3366667 209.013333,73.76 208.36,74.04 C207.706667,74.32 206.98,74.46 206.18,74.46 C205.74,74.46 205.26,74.3733333 204.74,74.2 C204.593333,74.3333333 204.476667,74.47 204.39,74.61 C204.303333,74.75 204.26,74.9333333 204.26,75.16 C204.26,75.4533333 204.39,75.68 204.65,75.84 C204.91,76 205.366667,76.08 206.02,76.08 L206.02,76.08 L207.92,76.08 L208.225207,76.0839053 C209.423787,76.1151479 210.355385,76.3338462 211.02,76.74 C211.74,77.18 212.1,77.8933333 212.1,78.88 C212.1,79.6266667 211.85,80.3033333 211.35,80.91 C210.85,81.5166667 210.146667,81.9933333 209.24,82.34 C208.333333,82.6866667 207.253333,82.86 206,82.86 C205.12,82.86 204.326667,82.7566667 203.62,82.55 C202.913333,82.3433333 202.353333,82.0266667 201.94,81.6 C201.526667,81.1733333 201.32,80.6333333 201.32,79.98 C201.32,79.5133333 201.46,79.0833333 201.74,78.69 C202.02,78.2966667 202.413333,77.9533333 202.92,77.66 L202.92,77.66 L202.92,77.56 L202.75,77.4408 C202.531333,77.2722667 202.344667,77.0653333 202.19,76.82 C201.996667,76.5133333 201.9,76.1333333 201.9,75.68 C201.9,75.2533333 202.026667,74.8566667 202.28,74.49 C202.533333,74.1233333 202.826667,73.82 203.16,73.58 L203.16,73.58 L203.16,73.5 L202.996735,73.3728571 C202.675102,73.1042857 202.382857,72.75 202.12,72.31 C201.813333,71.7966667 201.66,71.2133333 201.66,70.56 C201.66,69.68 201.87,68.94 202.29,68.34 C202.71,67.74 203.266667,67.2866667 203.96,66.98 C204.653333,66.6733333 205.393333,66.52 206.18,66.52 Z M204.5,78.22 C204.02,78.6066667 203.78,79.04 203.78,79.52 C203.78,79.9866667 204.02,80.35 204.5,80.61 C204.98,80.87 205.626667,81 206.44,81 C207.28,81 207.963333,80.84 208.49,80.52 C209.016667,80.2 209.28,79.82 209.28,79.38 C209.28,78.98 209.12,78.7133333 208.8,78.58 C208.48,78.4466667 208.02,78.38 207.42,78.38 L207.42,78.38 L206.06,78.38 L205.8175,78.3775 C205.5825,78.3725 205.37,78.36 205.18,78.34 C204.926667,78.3133333 204.7,78.2733333 204.5,78.22 Z M464.16,61.02 L466.54,61.42 L466.3575,61.955 L466.3575,61.955 L466.17,62.48 C466.043333,62.8266667 465.92,63.16 465.8,63.48 L465.8,63.48 L468.76,63.48 L468.76,69.1 L469.52,69.02 L469.717755,68.8467347 C470.097347,68.4965306 470.381429,68.1242857 470.57,67.73 C470.79,67.27 470.933333,66.8033333 471,66.33 C471.066667,65.8566667 471.1,65.4066667 471.1,64.98 L471.1,64.98 L471.1,62.08 L473.22,62.08 L473.22,65.02 L473.2128,65.4 C473.1936,65.912 473.136,66.4453333 473.04,67 C472.92,67.6933333 472.69,68.3566667 472.35,68.99 C472.01,69.6233333 471.513333,70.1866667 470.86,70.68 C470.753333,70.5333333 470.583333,70.3566667 470.35,70.15 C470.116667,69.9433333 469.886667,69.7533333 469.66,69.58 L469.66,69.58 L469.74,70.88 L468.76,71.02 L468.76,77.34 L468.755833,77.5722222 C468.741944,77.9462963 468.693333,78.2555556 468.61,78.5 C468.51,78.7933333 468.306667,79.0333333 468,79.22 C467.706667,79.3933333 467.356667,79.5033333 466.95,79.55 C466.543333,79.5966667 466.046667,79.62 465.46,79.62 C465.433333,79.34 465.363333,79 465.25,78.6 C465.136667,78.2 465.006667,77.8733333 464.86,77.62 C465.18,77.6333333 465.49,77.64 465.79,77.64 C466.09,77.64 466.293333,77.6333333 466.4,77.62 C466.6,77.62 466.7,77.52 466.7,77.32 L466.7,77.32 L466.7,74.78 L465.22,75.44 L465.1675,75.2394444 C465.070278,74.8931481 464.924444,74.4866667 464.73,74.02 C464.496667,73.46 464.253333,72.9533333 464,72.5 L464,72.5 L465.4,71.9 L465.58875,72.24625 C465.77625,72.59875 465.96,72.97 466.14,73.36 C466.38,73.88 466.566667,74.3333333 466.7,74.72 L466.7,74.72 L466.7,71.28 L464,71.62 L463.9876,72.17 C463.9652,72.9113333 463.919333,73.6846667 463.85,74.49 C463.763333,75.4966667 463.6,76.47 463.36,77.41 C463.12,78.35 462.773333,79.18 462.32,79.9 C462.2,79.78 462.03,79.6433333 461.81,79.49 C461.59,79.3366667 461.363333,79.19 461.13,79.05 C460.896667,78.91 460.7,78.8066667 460.54,78.74 C460.926667,78.1133333 461.216667,77.4166667 461.41,76.65 C461.603333,75.8833333 461.736667,75.0933333 461.81,74.28 C461.883333,73.4666667 461.926667,72.6733333 461.94,71.9 L461.94,71.9 L460.82,72.04 L460.46,70.02 L460.8075,69.98 L460.8075,69.98 L461.17,69.94 C461.416667,69.9133333 461.673333,69.8933333 461.94,69.88 L461.94,69.88 L461.94,63.48 L463.7,63.48 L463.802222,63.0744444 C463.867407,62.8003704 463.926667,62.5188889 463.98,62.23 C464.06,61.7966667 464.12,61.3933333 464.16,61.02 L464.16,61.02 Z M351.52,61.06 L353.94,61.46 L353.7925,62.2975 L353.7925,62.2975 L353.63,63.13 C353.516667,63.6833333 353.386667,64.2266667 353.24,64.76 L353.24,64.76 L359.34,64.76 L359.34,67.02 L358.14,67.02 L358.026735,67.6473469 C357.790816,68.8881633 357.498571,70.0457143 357.15,71.12 C356.743333,72.3733333 356.246667,73.5133333 355.66,74.54 C356.193333,75.2066667 356.776667,75.8066667 357.41,76.34 C358.043333,76.8733333 358.733333,77.3333333 359.48,77.72 C359.226667,77.9333333 358.94,78.2333333 358.62,78.62 C358.3,79.0066667 358.046667,79.36 357.86,79.68 C357.166667,79.28 356.523333,78.8166667 355.93,78.29 C355.336667,77.7633333 354.786667,77.18 354.28,76.54 C353.24,77.8333333 351.92,78.9266667 350.32,79.82 C350.226667,79.6466667 350.09,79.4366667 349.91,79.19 C349.73,78.9433333 349.54,78.7 349.34,78.46 C349.14,78.22 348.96,78.0266667 348.8,77.88 C350.48,77.0533333 351.86,75.9333333 352.94,74.52 C352.166667,73.2 351.533333,71.7466667 351.04,70.16 C350.88,70.4133333 350.713333,70.66 350.54,70.9 C350.366667,71.14 350.186667,71.3733333 350,71.6 C349.866667,71.3733333 349.66,71.07 349.38,70.69 C349.1,70.31 348.826667,69.9933333 348.56,69.74 L348.56,69.74 L348.56,79.78 L346.2,79.78 L346.2,74.62 L345.8913,74.7298 C344.9871,75.0526 344.28,75.316 343.77,75.52 C343.203333,75.7466667 342.79,75.93 342.53,76.07 C342.27,76.21 342.066667,76.34 341.92,76.46 C341.866667,76.26 341.79,76.0233333 341.69,75.75 C341.59,75.4766667 341.48,75.2066667 341.36,74.94 C341.24,74.6733333 341.12,74.4533333 341,74.28 C341.186667,74.1733333 341.356667,74.0133333 341.51,73.8 C341.663333,73.5866667 341.74,73.2733333 341.74,72.86 L341.74,72.86 L341.74,63.22 L344.08,63.22 L344.08,72.98 L346.2,72.34 L346.2,61.38 L348.56,61.38 L348.56,69.26 L348.7876,68.961 C349.4572,68.043 350.008,66.936 350.44,65.64 C350.92,64.2 351.28,62.6733333 351.52,61.06 L351.52,61.06 Z M499.04,73.02 L499.04,74.88 L491.2,74.88 L491.2,77.46 L491.196327,77.6814286 C491.181633,78.11 491.122857,78.4528571 491.02,78.71 C490.9,79.01 490.646667,79.24 490.26,79.4 C489.886667,79.5733333 489.453333,79.6766667 488.96,79.71 C488.466667,79.7433333 487.893333,79.76 487.24,79.76 C487.186667,79.4266667 487.086667,79.0633333 486.94,78.67 C486.793333,78.2766667 486.646667,77.9333333 486.5,77.64 C486.9,77.6533333 487.293333,77.6633333 487.68,77.67 C488.066667,77.6766667 488.326667,77.6733333 488.46,77.66 C488.686667,77.66 488.8,77.5666667 488.8,77.38 L488.8,77.38 L488.8,74.88 L481,74.88 L481,73.02 L499.04,73.02 Z M478.36,70.96 L478.36,79.66 L476.1,79.66 L476.1,78.96 L472.46,78.96 L472.46,79.76 L470.28,79.76 L470.28,70.96 L478.36,70.96 Z M429.04,61.14 L431.36,61.66 L431.223333,62.1644444 C431.13,62.4992593 431.032222,62.8311111 430.93,63.16 C430.776667,63.6533333 430.606667,64.1466667 430.42,64.64 L430.42,64.64 L437.3,64.64 L437.68,64.56 L439.36,64.88 L439.234444,65.6988889 C439.147037,66.2485185 439.052222,66.8055556 438.95,67.37 C438.796667,68.2166667 438.646667,68.9333333 438.5,69.52 L438.5,69.52 L436.48,69.18 L436.52,68.940625 C436.56,68.691875 436.6,68.415 436.64,68.11 C436.693333,67.7033333 436.746667,67.28 436.8,66.84 L436.8,66.84 L434.12,66.84 L434.12,77.08 L434.116122,77.3187755 C434.100612,77.782449 434.038571,78.1628571 433.93,78.46 C433.803333,78.8066667 433.56,79.08 433.2,79.28 C432.853333,79.4666667 432.436667,79.5933333 431.95,79.66 C431.463333,79.7266667 430.9,79.76 430.26,79.76 C430.206667,79.4133333 430.103333,79.0066667 429.95,78.54 C429.796667,78.0733333 429.626667,77.68 429.44,77.36 C429.866667,77.3733333 430.266667,77.38 430.64,77.38 L430.64,77.38 L431.4,77.38 L431.484375,77.3746875 C431.668125,77.3498958 431.76,77.2383333 431.76,77.04 L431.76,77.04 L431.76,66.84 L429.44,66.84 L429.22625,67.265 C429.00875,67.685 428.78,68.09 428.54,68.48 C428.22,69 427.893333,69.4733333 427.56,69.9 C427.426667,69.7533333 427.243333,69.5833333 427.01,69.39 C426.776667,69.1966667 426.536667,69.0033333 426.29,68.81 C426.043333,68.6166667 425.826667,68.46 425.64,68.34 C426.146667,67.7666667 426.616667,67.0966667 427.05,66.33 C427.483333,65.5633333 427.866667,64.7333333 428.2,63.84 C428.533333,62.9466667 428.813333,62.0466667 429.04,61.14 L429.04,61.14 Z M395.98,66.72 L397.32,68.06 L396.92,68.1384 C396.376,68.2408 395.789333,68.3346667 395.16,68.42 C394.373333,68.5266667 393.546667,68.62 392.68,68.7 L392.68,68.7 L392.68,69.56 L397.36,69.56 L397.36,73.06 L392.68,73.06 L392.68,73.88 L398.28,73.88 L398.28,77.9 L398.277143,78.0873469 C398.265714,78.4481633 398.22,78.7257143 398.14,78.92 C398.046667,79.1466667 397.846667,79.3266667 397.54,79.46 C397.26,79.5933333 396.916667,79.67 396.51,79.69 C396.103333,79.71 395.626667,79.72 395.08,79.72 C395.053333,79.5333333 395.006667,79.3466667 394.94,79.16 C394.873333,78.9733333 394.8,78.7933333 394.72,78.62 L394.72,78.62 L394.36,78.72 L394.343333,78.6088889 C394.33,78.5318519 394.312222,78.4488889 394.29,78.36 C394.256667,78.2266667 394.226667,78.0933333 394.2,77.96 C393.08,78.0266667 391.983333,78.09 390.91,78.15 C389.836667,78.21 388.866667,78.2666667 388,78.32 L388,78.32 L387.86,76.68 L390.52,76.58 L390.52,75.42 L387.52,75.42 L387.52,79.72 L385.42,79.72 L385.42,75.42 L384.88,75.42 L384.88,73.88 L385.42,73.88 L385.42,73.38 L387.52,73.38 L387.52,73.88 L390.52,73.88 L390.52,73.06 L386.06,73.06 L386.06,69.56 L390.52,69.56 L390.52,68.84 L389.786667,68.8877778 C389.297778,68.9159259 388.808889,68.9366667 388.32,68.95 C387.586667,68.97 386.88,68.98 386.2,68.98 C386.173333,68.7666667 386.116667,68.52 386.03,68.24 C385.943333,67.96 385.846667,67.7266667 385.74,67.54 C386.646667,67.5266667 387.576667,67.5 388.53,67.46 C389.483333,67.42 390.416667,67.3666667 391.33,67.3 C392.243333,67.2333333 393.1,67.1533333 393.9,67.06 C394.7,66.9666667 395.393333,66.8533333 395.98,66.72 L395.98,66.72 Z M398,61.9 L398,66.68 L385,66.68 L385,67.78 L384.9964,68.3176 C384.9868,69.0472 384.958,69.828 384.91,70.66 C384.85,71.7 384.74,72.76 384.58,73.84 C384.42,74.92 384.18,75.9633333 383.86,76.97 C383.54,77.9766667 383.12,78.8933333 382.6,79.72 C382.453333,79.6 382.25,79.46 381.99,79.3 C381.73,79.14 381.466667,78.9866667 381.2,78.84 C380.933333,78.6933333 380.7,78.58 380.5,78.5 C380.993333,77.74 381.38,76.9066667 381.66,76 C381.94,75.0933333 382.146667,74.16 382.28,73.2 C382.413333,72.24 382.5,71.2966667 382.54,70.37 C382.58,69.4433333 382.6,68.58 382.6,67.78 L382.6,67.78 L382.6,61.9 L398,61.9 Z M424.78,61.14 L427.04,61.84 L426.84375,62.359375 C426.64125,62.878125 426.42,63.395 426.18,63.91 C425.86,64.5966667 425.513333,65.2733333 425.14,65.94 L425.14,65.94 L425.14,79.7 L422.86,79.7 L422.86,69.48 L422.644444,69.77 C422.499259,69.9611111 422.351111,70.1477778 422.2,70.33 C421.973333,70.6033333 421.746667,70.86 421.52,71.1 C421.453333,70.9 421.343333,70.6433333 421.19,70.33 C421.036667,70.0166667 420.873333,69.7 420.7,69.38 C420.526667,69.06 420.373333,68.8066667 420.24,68.62 C420.84,68.02 421.423333,67.32 421.99,66.52 C422.556667,65.72 423.08,64.86 423.56,63.94 C424.04,63.02 424.446667,62.0866667 424.78,61.14 L424.78,61.14 Z M378.92,62.52 L378.92,64.92 L370.88,64.92 L370.88,68.06 L371.28,67.6 L371.6128,67.7644 C372.062933,67.9894667 372.538667,68.238 373.04,68.51 C373.666667,68.85 374.296667,69.2 374.93,69.56 C375.563333,69.92 376.156667,70.28 376.71,70.64 C377.263333,71 377.726667,71.3333333 378.1,71.64 L378.1,71.64 L376.34,73.82 L376.137778,73.6438889 C375.785926,73.3457407 375.36,73.0244444 374.86,72.68 C374.26,72.2666667 373.616667,71.8433333 372.93,71.41 C372.243333,70.9766667 371.56,70.5666667 370.88,70.18 L370.88,70.18 L370.88,79.68 L368.32,79.68 L368.32,64.92 L361.1,64.92 L361.1,62.52 L378.92,62.52 Z M417.6,62.34 L417.6,64.7 L411.46,64.7 L411.46,68.8 L418.96,68.8 L418.96,71.16 L411.46,71.16 L411.46,76.66 L411.456543,76.8979012 C411.438107,77.514856 411.345926,77.9922222 411.18,78.33 C410.993333,78.71 410.66,78.9933333 410.18,79.18 C409.713333,79.38 409.113333,79.5066667 408.38,79.56 C407.646667,79.6133333 406.786667,79.64 405.8,79.64 C405.733333,79.28 405.6,78.8533333 405.4,78.36 C405.2,77.8666667 405,77.4533333 404.8,77.12 C405.293333,77.1466667 405.78,77.1666667 406.26,77.18 C406.74,77.1933333 407.166667,77.1966667 407.54,77.19 C407.913333,77.1833333 408.173333,77.18 408.32,77.18 C408.546667,77.1666667 408.706667,77.1233333 408.8,77.05 C408.893333,76.9766667 408.94,76.84 408.94,76.64 L408.94,76.64 L408.94,71.16 L401.04,71.16 L401.04,68.8 L408.94,68.8 L408.94,64.7 L402.4,64.7 L402.4,62.34 L417.6,62.34 Z M484.94,75.04 L487.12,75.78 L486.866735,76.0930612 C486.345102,76.7167347 485.732857,77.3257143 485.03,77.92 C484.21,78.6133333 483.406667,79.1866667 482.62,79.64 C482.42,79.4133333 482.143333,79.1366667 481.79,78.81 C481.436667,78.4833333 481.126667,78.2333333 480.86,78.06 C481.633333,77.7 482.39,77.2533333 483.13,76.72 C483.87,76.1866667 484.473333,75.6266667 484.94,75.04 L484.94,75.04 Z M444.36,61.06 L446.96,61.42 L446.44,62.9 L446.31,63.26375 C446.18,63.62125 446.05,63.96 445.92,64.28 L445.92,64.28 L449.02,64.28 L449.02,67.52 L449.237031,67.1979688 C449.73651,66.4301563 450.1875,65.5475 450.59,64.55 C451.05,63.41 451.426667,62.2533333 451.72,61.08 L451.72,61.08 L454,61.6 L453.83125,62.23125 C453.65375,62.86375 453.45,63.5 453.22,64.14 L453.22,64.14 L458.84,64.14 L458.84,64.82 L458.83875,64.9425 C458.83625,65.0575 458.83,65.15 458.82,65.22 C458.753333,67.46 458.686667,69.36 458.62,70.92 C458.553333,72.48 458.473333,73.7633333 458.38,74.77 C458.286667,75.7766667 458.17,76.5666667 458.03,77.14 C457.89,77.7133333 457.72,78.1333333 457.52,78.4 C457.24,78.7733333 456.95,79.0333333 456.65,79.18 C456.35,79.3266667 456,79.4333333 455.6,79.5 C455.226667,79.5533333 454.756667,79.5766667 454.19,79.57 C453.623333,79.5633333 453.046667,79.5533333 452.46,79.54 C452.446667,79.2066667 452.366667,78.82 452.22,78.38 C452.073333,77.94 451.893333,77.5533333 451.68,77.22 C452.32,77.2733333 452.913333,77.3066667 453.46,77.32 C454.006667,77.3333333 454.406667,77.34 454.66,77.34 C455.02,77.34 455.313333,77.2266667 455.54,77 C455.74,76.7866667 455.903333,76.2866667 456.03,75.5 C456.156667,74.7133333 456.266667,73.57 456.36,72.07 C456.453333,70.57 456.533333,68.6466667 456.6,66.3 L456.6,66.3 L452.32,66.3 L452.125,66.744375 C451.925,67.183125 451.71,67.605 451.48,68.01 C451.173333,68.55 450.866667,69.0333333 450.56,69.46 C450.4,69.3133333 450.17,69.1333333 449.87,68.92 C449.57,68.7066667 449.286667,68.5133333 449.02,68.34 L449.02,68.34 L449.02,77.68 L443.68,77.68 L443.68,79.14 L441.52,79.14 L441.52,64.28 L443.78,64.28 L443.8775,63.8925 C443.9725,63.4975 444.06,63.08 444.14,62.64 C444.246667,62.0533333 444.32,61.5266667 444.36,61.06 L444.36,61.06 Z M494.26,75.1 L494.655,75.3075 C495.055,75.5225 495.47,75.76 495.9,76.02 C496.473333,76.3666667 497.023333,76.72 497.55,77.08 C498.076667,77.44 498.52,77.78 498.88,78.1 L498.88,78.1 L496.98,79.42 C496.673333,79.1133333 496.27,78.7733333 495.77,78.4 C495.27,78.0266667 494.736667,77.6533333 494.17,77.28 C493.603333,76.9066667 493.053333,76.5733333 492.52,76.28 L492.52,76.28 L494.26,75.1 Z M332,62 L332,79 L330,79 L330,62 L332,62 Z M245.76,66.8 L245.76,73.42 L245.7638,73.6685 C245.7866,74.3915 245.912,74.912 246.14,75.23 C246.393333,75.5833333 246.786667,75.76 247.32,75.76 C247.786667,75.76 248.19,75.65 248.53,75.43 C248.87,75.21 249.226667,74.8533333 249.6,74.36 L249.6,74.36 L249.6,66.8 L252.54,66.8 L252.54,78 L250.14,78 L249.92,76.4 L249.84,76.4 L249.631633,76.6385714 C249.209592,77.1014286 248.755714,77.4785714 248.27,77.77 C247.703333,78.11 247.04,78.28 246.28,78.28 C245.066667,78.28 244.186667,77.8833333 243.64,77.09 C243.093333,76.2966667 242.82,75.2 242.82,73.8 L242.82,73.8 L242.82,66.8 L245.76,66.8 Z M227.24,66.52 C228.666667,66.52 229.74,66.9366667 230.46,67.77 C231.18,68.6033333 231.54,69.8333333 231.54,71.46 L231.54,71.46 L231.54,78 L229.14,78 L228.94,76.8 L228.86,76.8 L228.56,77.0404 C228.154667,77.3508 227.728,77.6206667 227.28,77.85 C226.72,78.1366667 226.12,78.28 225.48,78.28 C224.813333,78.28 224.23,78.1366667 223.73,77.85 C223.23,77.5633333 222.843333,77.1666667 222.57,76.66 C222.296667,76.1533333 222.16,75.5866667 222.16,74.96 C222.16,73.76 222.673333,72.83 223.7,72.17 C224.726667,71.51 226.366667,71.06 228.62,70.82 C228.593333,70.2733333 228.44,69.8133333 228.16,69.44 C227.88,69.0666667 227.393333,68.88 226.7,68.88 C226.18,68.88 225.666667,68.98 225.16,69.18 C224.653333,69.38 224.14,69.6333333 223.62,69.94 L223.62,69.94 L222.56,68 L222.9672,67.7596 C223.519733,67.4492 224.110667,67.1793333 224.74,66.95 C225.526667,66.6633333 226.36,66.52 227.24,66.52 Z M266.5,66.52 C267.926667,66.52 269,66.9366667 269.72,67.77 C270.44,68.6033333 270.8,69.8333333 270.8,71.46 L270.8,71.46 L270.8,78 L268.4,78 L268.2,76.8 L268.12,76.8 L267.82,77.0404 C267.414667,77.3508 266.988,77.6206667 266.54,77.85 C265.98,78.1366667 265.38,78.28 264.74,78.28 C264.073333,78.28 263.49,78.1366667 262.99,77.85 C262.49,77.5633333 262.103333,77.1666667 261.83,76.66 C261.556667,76.1533333 261.42,75.5866667 261.42,74.96 C261.42,73.76 261.933333,72.83 262.96,72.17 C263.986667,71.51 265.626667,71.06 267.88,70.82 C267.853333,70.2733333 267.7,69.8133333 267.42,69.44 C267.14,69.0666667 266.653333,68.88 265.96,68.88 C265.44,68.88 264.926667,68.98 264.42,69.18 C263.913333,69.38 263.4,69.6333333 262.88,69.94 L262.88,69.94 L261.82,68 L262.2272,67.7596 C262.779733,67.4492 263.370667,67.1793333 264,66.95 C264.786667,66.6633333 265.62,66.52 266.5,66.52 Z M277.16,63.78 L277.16,66.8 L279.92,66.8 L279.92,69.12 L277.16,69.12 L277.16,74.08 L277.164211,74.272687 C277.214737,75.3975623 277.72,75.96 278.68,75.96 C278.866667,75.96 279.06,75.9333333 279.26,75.88 C279.46,75.8266667 279.633333,75.7733333 279.78,75.72 L279.78,75.72 L280.26,77.86 L280.030625,77.93 C279.791875,78 279.525,78.07 279.23,78.14 C278.836667,78.2333333 278.393333,78.28 277.9,78.28 C277.02,78.28 276.31,78.1033333 275.77,77.75 C275.23,77.3966667 274.836667,76.9033333 274.59,76.27 C274.343333,75.6366667 274.22,74.9066667 274.22,74.08 L274.22,74.08 L274.22,69.12 L272.64,69.12 L272.64,66.94 L274.38,66.8 L274.72,63.78 L277.16,63.78 Z M181.4,66.52 C182.333333,66.52 183.21,66.7533333 184.03,67.22 C184.85,67.6866667 185.513333,68.3566667 186.02,69.23 C186.526667,70.1033333 186.78,71.16 186.78,72.4 C186.78,73.64 186.526667,74.7 186.02,75.58 C185.513333,76.46 184.85,77.13 184.03,77.59 C183.21,78.05 182.333333,78.28 181.4,78.28 C180.466667,78.28 179.59,78.05 178.77,77.59 C177.95,77.13 177.286667,76.46 176.78,75.58 C176.273333,74.7 176.02,73.64 176.02,72.4 C176.02,71.16 176.273333,70.1033333 176.78,69.23 C177.286667,68.3566667 177.95,67.6866667 178.77,67.22 C179.59,66.7533333 180.466667,66.52 181.4,66.52 Z M169.96,62.92 C170.906667,62.92 171.746667,63.11 172.48,63.49 C173.213333,63.87 173.82,64.3133333 174.3,64.82 L174.3,64.82 L172.76,66.7 L172.5316,66.4916 C172.2212,66.2238667 171.887333,65.9966667 171.53,65.81 C171.083333,65.5766667 170.58,65.46 170.02,65.46 C169.273333,65.46 168.603333,65.6633333 168.01,66.07 C167.416667,66.4766667 166.95,67.06 166.61,67.82 C166.27,68.58 166.1,69.4933333 166.1,70.56 C166.1,72.1733333 166.45,73.4366667 167.15,74.35 C167.85,75.2633333 168.786667,75.72 169.96,75.72 C170.6,75.72 171.17,75.5833333 171.67,75.31 C172.17,75.0366667 172.62,74.6866667 173.02,74.26 L173.02,74.26 L174.58,76.1 L174.345938,76.3571875 C173.790313,76.9390625 173.168333,77.3933333 172.48,77.72 C171.693333,78.0933333 170.82,78.28 169.86,78.28 C168.62,78.28 167.486667,77.9866667 166.46,77.4 C165.433333,76.8133333 164.613333,75.9533333 164,74.82 C163.386667,73.6866667 163.08,72.3 163.08,70.66 C163.08,69.4333333 163.26,68.3433333 163.62,67.39 C163.98,66.4366667 164.48,65.6266667 165.12,64.96 C165.76,64.2933333 166.493333,63.7866667 167.32,63.44 C168.146667,63.0933333 169.026667,62.92 169.96,62.92 Z M292.96,66.52 C293.893333,66.52 294.77,66.7533333 295.59,67.22 C296.41,67.6866667 297.073333,68.3566667 297.58,69.23 C298.086667,70.1033333 298.34,71.16 298.34,72.4 C298.34,73.64 298.086667,74.7 297.58,75.58 C297.073333,76.46 296.41,77.13 295.59,77.59 C294.77,78.05 293.893333,78.28 292.96,78.28 C292.026667,78.28 291.15,78.05 290.33,77.59 C289.51,77.13 288.846667,76.46 288.34,75.58 C287.833333,74.7 287.58,73.64 287.58,72.4 C287.58,71.16 287.833333,70.1033333 288.34,69.23 C288.846667,68.3566667 289.51,67.6866667 290.33,67.22 C291.15,66.7533333 292.026667,66.52 292.96,66.52 Z M317.36,66.52 C318.173333,66.52 318.896667,66.6633333 319.53,66.95 C320.163333,67.2366667 320.706667,67.5533333 321.16,67.9 L321.16,67.9 L319.84,69.68 L319.6004,69.5112 C319.281467,69.2957333 318.964667,69.1186667 318.65,68.98 C318.256667,68.8066667 317.853333,68.72 317.44,68.72 C316.933333,68.72 316.556667,68.82 316.31,69.02 C316.063333,69.22 315.94,69.48 315.94,69.8 C315.94,70.0666667 316.043333,70.29 316.25,70.47 C316.456667,70.65 316.73,70.8066667 317.07,70.94 C317.41,71.0733333 317.773333,71.2133333 318.16,71.36 C318.653333,71.5466667 319.14,71.77 319.62,72.03 C320.1,72.29 320.496667,72.6333333 320.81,73.06 C321.123333,73.4866667 321.28,74.0466667 321.28,74.74 C321.28,75.3933333 321.11,75.9866667 320.77,76.52 C320.43,77.0533333 319.93,77.48 319.27,77.8 C318.61,78.12 317.793333,78.28 316.82,78.28 C316.073333,78.28 315.316667,78.13 314.55,77.83 C313.783333,77.53 313.12,77.1533333 312.56,76.7 L312.56,76.7 L313.9,74.86 L314.2028,75.0816 C314.604933,75.3632 315.000667,75.5893333 315.39,75.76 C315.876667,75.9733333 316.38,76.08 316.9,76.08 C317.46,76.08 317.87,75.97 318.13,75.75 C318.39,75.53 318.52,75.2466667 318.52,74.9 C318.52,74.62 318.406667,74.3833333 318.18,74.19 C317.953333,73.9966667 317.663333,73.8233333 317.31,73.67 C316.956667,73.5166667 316.58,73.3666667 316.18,73.22 C315.713333,73.0333333 315.246667,72.8066667 314.78,72.54 C314.313333,72.2733333 313.93,71.93 313.63,71.51 C313.33,71.09 313.18,70.5666667 313.18,69.94 C313.18,69.2733333 313.35,68.6833333 313.69,68.17 C314.03,67.6566667 314.513333,67.2533333 315.14,66.96 C315.766667,66.6666667 316.506667,66.52 317.36,66.52 Z M258.62,62.04 L258.62,74.98 L258.623878,75.1167347 C258.639388,75.3779592 258.701429,75.5657143 258.81,75.68 C258.936667,75.8133333 259.066667,75.88 259.2,75.88 C259.266667,75.88 259.326667,75.8766667 259.38,75.87 C259.433333,75.8633333 259.506667,75.8533333 259.6,75.84 L259.6,75.84 L259.96,78.02 L259.823125,78.06875 C259.679375,78.11625 259.515,78.16 259.33,78.2 C259.083333,78.2533333 258.786667,78.28 258.44,78.28 C257.426667,78.28 256.713333,77.97 256.3,77.35 C255.886667,76.73 255.68,75.9 255.68,74.86 L255.68,74.86 L255.68,62.04 L258.62,62.04 Z M237.9,63.78 L237.9,66.8 L240.66,66.8 L240.66,69.12 L237.9,69.12 L237.9,74.08 L237.904211,74.272687 C237.954737,75.3975623 238.46,75.96 239.42,75.96 C239.606667,75.96 239.8,75.9333333 240,75.88 C240.2,75.8266667 240.373333,75.7733333 240.52,75.72 L240.52,75.72 L241,77.86 L240.770625,77.93 C240.531875,78 240.265,78.07 239.97,78.14 C239.576667,78.2333333 239.133333,78.28 238.64,78.28 C237.76,78.28 237.05,78.1033333 236.51,77.75 C235.97,77.3966667 235.576667,76.9033333 235.33,76.27 C235.083333,75.6366667 234.96,74.9066667 234.96,74.08 L234.96,74.08 L234.96,69.12 L233.38,69.12 L233.38,66.94 L235.12,66.8 L235.46,63.78 L237.9,63.78 Z M396.1,75.42 L392.68,75.42 L392.68,76.52 L393.66,76.48 L393.6,76.3225 L393.6,76.3225 L393.54,76.17 C393.5,76.07 393.453333,75.9733333 393.4,75.88 L393.4,75.88 L394.76,75.54 L394.925625,75.846875 C395.086875,76.160625 395.235,76.495 395.37,76.85 C395.55,77.3233333 395.68,77.7533333 395.76,78.14 L395.76,78.14 L395.84,78.14 C396.013333,78.14 396.1,78.06 396.1,77.9 L396.1,77.9 L396.1,75.42 Z M307.12,66.52 C308.333333,66.52 309.213333,66.9166667 309.76,67.71 C310.306667,68.5033333 310.58,69.6066667 310.58,71.02 L310.58,71.02 L310.58,78 L307.64,78 L307.64,71.38 L307.6362,71.1278 C307.6134,70.3946 307.488,69.872 307.26,69.56 C307.006667,69.2133333 306.606667,69.04 306.06,69.04 C305.606667,69.04 305.21,69.1466667 304.87,69.36 C304.53,69.5733333 304.153333,69.8866667 303.74,70.3 L303.74,70.3 L303.74,78 L300.8,78 L300.8,66.8 L303.2,66.8 L303.42,68.28 L303.48,68.28 L303.7816,68 C304.1912,67.6373333 304.630667,67.3173333 305.1,67.04 C305.686667,66.6933333 306.36,66.52 307.12,66.52 Z M219.86,66.52 C220.166667,66.52 220.42,66.5433333 220.62,66.59 C220.82,66.6366667 221.006667,66.6933333 221.18,66.76 L221.18,66.76 L220.68,69.3 L220.483333,69.24 C220.354444,69.2044444 220.23,69.1777778 220.11,69.16 C219.93,69.1333333 219.726667,69.12 219.5,69.12 C219.06,69.12 218.6,69.2833333 218.12,69.61 C217.64,69.9366667 217.246667,70.5066667 216.94,71.32 L216.94,71.32 L216.94,78 L214,78 L214,66.8 L216.4,66.8 L216.62,68.78 L216.68,68.78 L216.838594,68.513125 C217.217031,67.909375 217.654167,67.4383333 218.15,67.1 C218.716667,66.7133333 219.286667,66.52 219.86,66.52 Z M195.56,66.52 C196.773333,66.52 197.653333,66.9166667 198.2,67.71 C198.746667,68.5033333 199.02,69.6066667 199.02,71.02 L199.02,71.02 L199.02,78 L196.08,78 L196.08,71.38 L196.0762,71.1278 C196.0534,70.3946 195.928,69.872 195.7,69.56 C195.446667,69.2133333 195.046667,69.04 194.5,69.04 C194.046667,69.04 193.65,69.1466667 193.31,69.36 C192.97,69.5733333 192.593333,69.8866667 192.18,70.3 L192.18,70.3 L192.18,78 L189.24,78 L189.24,66.8 L191.64,66.8 L191.86,68.28 L191.92,68.28 L192.2216,68 C192.6312,67.6373333 193.070667,67.3173333 193.54,67.04 C194.126667,66.6933333 194.8,66.52 195.56,66.52 Z M285.14,66.8 L285.14,78 L282.2,78 L282.2,66.8 L285.14,66.8 Z M428.48,69.96 L430.8,70.44 L430.645556,71.07 C430.375185,72.1144444 430.04,73.1311111 429.64,74.12 C429.16,75.3066667 428.64,76.3066667 428.08,77.12 C427.933333,76.9866667 427.736667,76.84 427.49,76.68 C427.243333,76.52 426.99,76.3633333 426.73,76.21 C426.47,76.0566667 426.24,75.9333333 426.04,75.84 C426.613333,75.1333333 427.106667,74.2533333 427.52,73.2 C427.933333,72.1466667 428.253333,71.0666667 428.48,69.96 L428.48,69.96 Z M436.96,69.76 L437.1648,70.174 C437.4336,70.734 437.685333,71.326 437.92,71.95 C438.213333,72.73 438.466667,73.4966667 438.68,74.25 C438.893333,75.0033333 439.046667,75.68 439.14,76.28 L439.14,76.28 L436.86,77.06 C436.793333,76.46 436.66,75.78 436.46,75.02 C436.26,74.26 436.02,73.4833333 435.74,72.69 C435.46,71.8966667 435.16,71.16 434.84,70.48 L434.84,70.48 L436.96,69.76 Z M476.1,73.14 L472.46,73.14 L472.46,76.8 L476.1,76.8 L476.1,73.14 Z M267.88,72.62 L267.592143,72.6585714 C266.372619,72.8319048 265.515238,73.0857143 265.02,73.42 C264.486667,73.78 264.22,74.2133333 264.22,74.72 C264.22,75.16 264.36,75.48 264.64,75.68 C264.92,75.88 265.273333,75.98 265.7,75.98 C266.126667,75.98 266.506667,75.8833333 266.84,75.69 C267.173333,75.4966667 267.52,75.2266667 267.88,74.88 L267.88,74.88 L267.88,72.62 Z M228.62,72.62 L228.332143,72.6585714 C227.112619,72.8319048 226.255238,73.0857143 225.76,73.42 C225.226667,73.78 224.96,74.2133333 224.96,74.72 C224.96,75.16 225.1,75.48 225.38,75.68 C225.66,75.88 226.013333,75.98 226.44,75.98 C226.866667,75.98 227.246667,75.8833333 227.58,75.69 C227.913333,75.4966667 228.26,75.2266667 228.62,74.88 L228.62,74.88 L228.62,72.62 Z M292.96,68.92 C292.2,68.92 291.613333,69.2366667 291.2,69.87 C290.786667,70.5033333 290.58,71.3466667 290.58,72.4 C290.58,73.4533333 290.786667,74.2966667 291.2,74.93 C291.613333,75.5633333 292.2,75.88 292.96,75.88 C293.72,75.88 294.306667,75.5633333 294.72,74.93 C295.133333,74.2966667 295.34,73.4533333 295.34,72.4 C295.34,71.3466667 295.133333,70.5033333 294.72,69.87 C294.306667,69.2366667 293.72,68.92 292.96,68.92 Z M181.4,68.92 C180.64,68.92 180.053333,69.2366667 179.64,69.87 C179.226667,70.5033333 179.02,71.3466667 179.02,72.4 C179.02,73.4533333 179.226667,74.2966667 179.64,74.93 C180.053333,75.5633333 180.64,75.88 181.4,75.88 C182.16,75.88 182.746667,75.5633333 183.16,74.93 C183.573333,74.2966667 183.78,73.4533333 183.78,72.4 C183.78,71.3466667 183.573333,70.5033333 183.16,69.87 C182.746667,69.2366667 182.16,68.92 181.4,68.92 Z M446.86,71.66 L443.68,71.66 L443.68,75.58 L446.86,75.58 L446.86,71.66 Z M452.58,68.82 L452.83375,69.16875 C453.09125,69.52625 453.36,69.91 453.64,70.32 C454.013333,70.8666667 454.37,71.3966667 454.71,71.91 C455.05,72.4233333 455.32,72.8733333 455.52,73.26 L455.52,73.26 L453.5,74.5 C453.313333,74.1 453.063333,73.6333333 452.75,73.1 C452.436667,72.5666667 452.103333,72.0166667 451.75,71.45 C451.396667,70.8833333 451.053333,70.36 450.72,69.88 L450.72,69.88 L452.58,68.82 Z M506.18,67.34 C507.126667,67.34 507.98,67.52 508.74,67.88 C509.5,68.24 510.22,68.7933333 510.9,69.54 C511.326667,69.9933333 511.756667,70.3466667 512.19,70.6 C512.623333,70.8533333 513.186667,70.98 513.88,70.98 C514.52,70.98 515.116667,70.7566667 515.67,70.31 C516.223333,69.8633333 516.686667,69.2866667 517.06,68.58 L517.06,68.58 L519.26,69.78 L519.090417,70.0834028 C518.457917,71.1716898 517.707778,71.9938889 516.84,72.55 C515.893333,73.1566667 514.886667,73.46 513.82,73.46 C512.873333,73.46 512.02,73.2766667 511.26,72.91 C510.5,72.5433333 509.78,71.9933333 509.1,71.26 C508.673333,70.8066667 508.246667,70.4533333 507.82,70.2 C507.393333,69.9466667 506.826667,69.82 506.12,69.82 C505.48,69.82 504.886667,70.0433333 504.34,70.49 C503.793333,70.9366667 503.326667,71.5133333 502.94,72.22 L502.94,72.22 L500.74,71.02 L500.909583,70.7165972 C501.542083,69.6283102 502.292222,68.8061111 503.16,68.25 C504.106667,67.6433333 505.113333,67.34 506.18,67.34 Z M206.18,68.52 C205.686667,68.52 205.27,68.6966667 204.93,69.05 C204.59,69.4033333 204.42,69.9066667 204.42,70.56 C204.42,71.2266667 204.59,71.74 204.93,72.1 C205.27,72.46 205.686667,72.64 206.18,72.64 C206.673333,72.64 207.09,72.46 207.43,72.1 C207.77,71.74 207.94,71.2266667 207.94,70.56 C207.94,69.9066667 207.773333,69.4033333 207.44,69.05 C207.106667,68.6966667 206.686667,68.52 206.18,68.52 Z M355.78,67.02 L352.52,67.02 L352.475,67.1575 L352.475,67.1575 L352.42,67.29 C352.38,67.3766667 352.346667,67.4666667 352.32,67.56 C352.546667,68.4133333 352.82,69.2466667 353.14,70.06 C353.46,70.8733333 353.82,71.64 354.22,72.36 C354.593333,71.6 354.906667,70.7733333 355.16,69.88 C355.413333,68.9866667 355.62,68.0333333 355.78,67.02 L355.78,67.02 Z M496.64,70.36 L496.64,72.16 L483.38,72.16 L483.38,70.36 L496.64,70.36 Z M395.14,70.86 L392.68,70.86 L392.68,71.76 L395.14,71.76 L395.14,70.86 Z M390.52,70.86 L388.16,70.86 L388.16,71.76 L390.52,71.76 L390.52,70.86 Z M477.34,62.1 L477.34,67.48 L477.3416,67.638 C477.345867,67.8353333 477.358667,67.9793333 477.38,68.07 C477.406667,68.1833333 477.473333,68.24 477.58,68.24 L477.58,68.24 L478.24,68.24 L478.32625,68.238125 C478.41875,68.234375 478.53,68.225 478.66,68.21 C478.833333,68.19 478.98,68.16 479.1,68.12 C479.12,68.32 479.14,68.544375 479.16,68.793125 L479.16,68.793125 L479.18,69.05 C479.206667,69.4033333 479.233333,69.7066667 479.26,69.96 C479.126667,70.0133333 478.97,70.05 478.79,70.07 C478.61,70.09 478.426667,70.1 478.24,70.1 L478.24,70.1 L477.42,70.1 L477.197031,70.0957813 C476.693177,70.0760938 476.304167,69.9875 476.03,69.83 C475.716667,69.65 475.503333,69.3633333 475.39,68.97 C475.276667,68.5766667 475.22,68.0666667 475.22,67.44 L475.22,67.44 L475.22,62.1 L477.34,62.1 Z M466.7,65.32 L464,65.32 L464,69.64 L466.7,69.34 L466.7,65.32 Z M446.86,66.36 L443.68,66.36 L443.68,69.6 L446.86,69.6 L446.86,66.36 Z M498.64,61.72 L498.64,63.58 L493.14,63.58 L493.14,64.66 L497.6,64.66 L497.6,69.54 L482.46,69.54 L482.46,64.66 L486.66,64.66 L486.66,63.58 L481.3,63.58 L481.3,61.72 L498.64,61.72 Z M465.48,65.76 L465.648125,66.09625 C465.814375,66.43875 465.975,66.8 466.13,67.18 C466.336667,67.6866667 466.493333,68.1333333 466.6,68.52 L466.6,68.52 L465.08,69.16 C464.986667,68.7733333 464.843333,68.3166667 464.65,67.79 C464.456667,67.2633333 464.26,66.7733333 464.06,66.32 L464.06,66.32 L465.48,65.76 Z M495.24,66.34 L493.14,66.34 L493.14,67.84 L495.24,67.84 L495.24,66.34 Z M490.92,66.34 L488.84,66.34 L488.84,67.84 L490.92,67.84 L490.92,66.34 Z M486.66,66.34 L484.66,66.34 L484.66,67.84 L486.66,67.84 L486.66,66.34 Z M283.68,61.78 C284.186667,61.78 284.596667,61.9266667 284.91,62.22 C285.223333,62.5133333 285.38,62.9 285.38,63.38 C285.38,63.8733333 285.223333,64.2666667 284.91,64.56 C284.596667,64.8533333 284.186667,65 283.68,65 C283.173333,65 282.76,64.8533333 282.44,64.56 C282.12,64.2666667 281.96,63.8733333 281.96,63.38 C281.96,62.9 282.12,62.5133333 282.44,62.22 C282.76,61.9266667 283.173333,61.78 283.68,61.78 Z M395.6,63.72 L385,63.72 L385,64.88 L395.6,64.88 L395.6,63.72 Z M490.92,63.58 L488.84,63.58 L488.84,64.66 L490.92,64.66 L490.92,63.58 Z" id="成功反馈"></path>
        </g>
    </g>
</svg>