<?xml version="1.0" encoding="UTF-8"?>
<svg width="301px" height="20px" viewBox="0 0 301 20" version="1.1" xmlns="http://www.w3.org/2000/svg" xmlns:xlink="http://www.w3.org/1999/xlink">
    <title>完善留言信息</title>
    <g id="Page-1" stroke="none" stroke-width="1" fill="none" fill-rule="evenodd">
        <g id="编辑信息" transform="translate(-212.000000, -47.000000)" fill="#FFFFFF" fill-rule="nonzero">
            <path d="M477.72,48.14 L479.84,48.78 L479.622222,49.3677778 C479.474074,49.7603704 479.32,50.1544444 479.16,50.55 C478.92,51.1433333 478.653333,51.7333333 478.36,52.32 L478.36,52.32 L478.36,66.82 L476.2,66.82 L476.2,56.06 L475.8375,56.5575 L475.8375,56.5575 L475.47,57.05 C475.223333,57.3766667 474.98,57.68 474.74,57.96 C474.673333,57.7733333 474.566667,57.5333333 474.42,57.24 C474.273333,56.9466667 474.12,56.65 473.96,56.35 C473.8,56.05 473.653333,55.8066667 473.52,55.62 C474.08,55.0066667 474.623333,54.3 475.15,53.5 C475.676667,52.7 476.16,51.84 476.6,50.92 C477.04,50 477.413333,49.0733333 477.72,48.14 L477.72,48.14 Z M450.1,58.04 L450.1,66.68 L447.54,66.68 L447.54,66.1 L438.62,66.1 L438.62,66.76 L436.2,66.76 L436.2,58.04 L450.1,58.04 Z M429.42,61.12 L429.42,66.7 L426.98,66.7 L426.98,66.14 L419,66.14 L419,66.76 L416.66,66.76 L416.66,61.12 L429.42,61.12 Z M469.66,60.3 L469.66,66.68 L467.2,66.68 L467.2,66.04 L458.84,66.04 L458.84,66.74 L456.5,66.74 L456.5,60.3 L469.66,60.3 Z M411.9,57.5 L411.9,59.74 L406.56,59.74 L406.56,63.56 L406.563061,63.6897959 C406.575306,63.9346939 406.624286,64.0914286 406.71,64.16 C406.81,64.24 407.033333,64.28 407.38,64.28 L407.38,64.28 L409.3,64.28 L409.4216,64.2732 C409.5752,64.2550667 409.694667,64.2006667 409.78,64.11 C409.886667,63.9966667 409.966667,63.7666667 410.02,63.42 C410.073333,63.0733333 410.113333,62.56 410.14,61.88 C410.38,62.0533333 410.713333,62.2266667 411.14,62.4 C411.566667,62.5733333 411.946667,62.7 412.28,62.78 C412.2,63.74 412.063333,64.4866667 411.87,65.02 C411.676667,65.5533333 411.393333,65.9266667 411.02,66.14 C410.646667,66.3533333 410.146667,66.46 409.52,66.46 L409.52,66.46 L407.02,66.46 L406.768889,66.4566667 C406.117037,66.4388889 405.607407,66.35 405.24,66.19 C404.826667,66.01 404.54,65.71 404.38,65.29 C404.22,64.87 404.14,64.3 404.14,63.58 L404.14,63.58 L404.14,59.74 L401.46,59.74 L401.427551,60.144898 C401.354898,60.9416327 401.235714,61.66 401.07,62.3 C400.876667,63.0466667 400.553333,63.7066667 400.1,64.28 C399.646667,64.8533333 399.01,65.34 398.19,65.74 C397.37,66.14 396.3,66.4733333 394.98,66.74 C394.886667,66.4333333 394.71,66.08 394.45,65.68 C394.19,65.28 393.946667,64.96 393.72,64.72 C394.853333,64.5333333 395.76,64.3033333 396.44,64.03 C397.12,63.7566667 397.64,63.4233333 398,63.03 C398.36,62.6366667 398.61,62.17 398.75,61.63 C398.89,61.09 398.98,60.46 399.02,59.74 L399.02,59.74 L394.08,59.74 L394.08,57.5 L411.9,57.5 Z M490.96,60.04 L490.96,66.66 L488.86,66.66 L488.86,66.1 L482.4,66.1 L482.4,66.72 L480.38,66.72 L480.38,60.04 L490.96,60.04 Z M500.48,60.84 L500.48,63.58 L500.484898,63.6989796 C500.50449,63.9234694 500.582857,64.0671429 500.72,64.13 C500.88,64.2033333 501.246667,64.24 501.82,64.24 L501.82,64.24 L505.22,64.24 L505.373333,64.2361111 C505.617778,64.2231481 505.806667,64.1777778 505.94,64.1 C506.1,64.0066667 506.216667,63.8033333 506.29,63.49 C506.363333,63.1766667 506.42,62.7066667 506.46,62.08 C506.713333,62.2666667 507.056667,62.4366667 507.49,62.59 C507.923333,62.7433333 508.3,62.8533333 508.62,62.92 C508.526667,63.8533333 508.37,64.57 508.15,65.07 C507.93,65.57 507.603333,65.9166667 507.17,66.11 C506.736667,66.3033333 506.146667,66.4 505.4,66.4 L505.4,66.4 L501.6,66.4 L501.296667,66.3969136 C500.508519,66.3804527 499.886296,66.2981481 499.43,66.15 C498.916667,65.9833333 498.56,65.6933333 498.36,65.28 C498.16,64.8666667 498.06,64.3066667 498.06,63.6 L498.06,63.6 L498.06,60.84 L500.48,60.84 Z M385,49 L385,66 L383,66 L383,49 L385,49 Z M495.56,60.52 L497.68,61.4 L497.555625,61.7475 C497.426875,62.1025 497.285,62.48 497.13,62.88 C496.923333,63.4133333 496.713333,63.93 496.5,64.43 C496.286667,64.93 496.073333,65.38 495.86,65.78 L495.86,65.78 L493.66,64.72 L493.833611,64.4252778 C494.123426,63.9206481 494.415556,63.3488889 494.71,62.71 C495.063333,61.9433333 495.346667,61.2133333 495.56,60.52 L495.56,60.52 Z M509.92,60.14 L510.149375,60.47625 C510.378125,60.81875 510.605,61.18 510.83,61.56 C511.13,62.0666667 511.396667,62.5666667 511.63,63.06 C511.863333,63.5533333 512.033333,64.0066667 512.14,64.42 L512.14,64.42 L509.86,65.38 C509.766667,64.9933333 509.616667,64.55 509.41,64.05 C509.203333,63.55 508.96,63.0333333 508.68,62.5 C508.4,61.9666667 508.113333,61.4733333 507.82,61.02 L507.82,61.02 L509.92,60.14 Z M355.14,53.52 C356.073333,53.52 356.95,53.7533333 357.77,54.22 C358.59,54.6866667 359.253333,55.3566667 359.76,56.23 C360.266667,57.1033333 360.52,58.16 360.52,59.4 C360.52,60.64 360.266667,61.7 359.76,62.58 C359.253333,63.46 358.59,64.13 357.77,64.59 C356.95,65.05 356.073333,65.28 355.14,65.28 C354.206667,65.28 353.33,65.05 352.51,64.59 C351.69,64.13 351.026667,63.46 350.52,62.58 C350.013333,61.7 349.76,60.64 349.76,59.4 C349.76,58.16 350.013333,57.1033333 350.52,56.23 C351.026667,55.3566667 351.69,54.6866667 352.51,54.22 C353.33,53.7533333 354.206667,53.52 355.14,53.52 Z M328.68,53.52 C330.106667,53.52 331.18,53.9366667 331.9,54.77 C332.62,55.6033333 332.98,56.8333333 332.98,58.46 L332.98,58.46 L332.98,65 L330.58,65 L330.38,63.8 L330.3,63.8 L330,64.0404 C329.594667,64.3508 329.168,64.6206667 328.72,64.85 C328.16,65.1366667 327.56,65.28 326.92,65.28 C326.253333,65.28 325.67,65.1366667 325.17,64.85 C324.67,64.5633333 324.283333,64.1666667 324.01,63.66 C323.736667,63.1533333 323.6,62.5866667 323.6,61.96 C323.6,60.76 324.113333,59.83 325.14,59.17 C326.166667,58.51 327.806667,58.06 330.06,57.82 C330.033333,57.2733333 329.88,56.8133333 329.6,56.44 C329.32,56.0666667 328.833333,55.88 328.14,55.88 C327.62,55.88 327.106667,55.98 326.6,56.18 C326.093333,56.38 325.58,56.6333333 325.06,56.94 L325.06,56.94 L324,55 L324.4072,54.7596 C324.959733,54.4492 325.550667,54.1793333 326.18,53.95 C326.966667,53.6633333 327.8,53.52 328.68,53.52 Z M339.34,50.78 L339.34,53.8 L342.1,53.8 L342.1,56.12 L339.34,56.12 L339.34,61.08 L339.344211,61.272687 C339.394737,62.3975623 339.9,62.96 340.86,62.96 C341.046667,62.96 341.24,62.9333333 341.44,62.88 C341.64,62.8266667 341.813333,62.7733333 341.96,62.72 L341.96,62.72 L342.44,64.86 L342.210625,64.93 C341.971875,65 341.705,65.07 341.41,65.14 C341.016667,65.2333333 340.573333,65.28 340.08,65.28 C339.2,65.28 338.49,65.1033333 337.95,64.75 C337.41,64.3966667 337.016667,63.9033333 336.77,63.27 C336.523333,62.6366667 336.4,61.9066667 336.4,61.08 L336.4,61.08 L336.4,56.12 L334.82,56.12 L334.82,53.94 L336.56,53.8 L336.9,50.78 L339.34,50.78 Z M234.6,49.04 L234.6,65 L232.22,65 L232,63.84 L231.92,63.84 L231.6648,64.0728 C231.314933,64.3736 230.926667,64.636 230.5,64.86 C229.966667,65.14 229.406667,65.28 228.82,65.28 C227.9,65.28 227.096667,65.0466667 226.41,64.58 C225.723333,64.1133333 225.19,63.44 224.81,62.56 C224.43,61.68 224.24,60.6266667 224.24,59.4 C224.24,58.1866667 224.463333,57.14 224.91,56.26 C225.356667,55.38 225.94,54.7033333 226.66,54.23 C227.38,53.7566667 228.14,53.52 228.94,53.52 C229.566667,53.52 230.096667,53.63 230.53,53.85 C230.963333,54.07 231.38,54.3666667 231.78,54.74 L231.78,54.74 L231.68,52.98 L231.68,49.04 L234.6,49.04 Z M288.32,53.52 C289.253333,53.52 290.13,53.7533333 290.95,54.22 C291.77,54.6866667 292.433333,55.3566667 292.94,56.23 C293.446667,57.1033333 293.7,58.16 293.7,59.4 C293.7,60.64 293.446667,61.7 292.94,62.58 C292.433333,63.46 291.77,64.13 290.95,64.59 C290.13,65.05 289.253333,65.28 288.32,65.28 C287.386667,65.28 286.51,65.05 285.69,64.59 C284.87,64.13 284.206667,63.46 283.7,62.58 C283.193333,61.7 282.94,60.64 282.94,59.4 C282.94,58.16 283.193333,57.1033333 283.7,56.23 C284.206667,55.3566667 284.87,54.6866667 285.69,54.22 C286.51,53.7533333 287.386667,53.52 288.32,53.52 Z M247.2,50.78 L247.2,53.8 L249.96,53.8 L249.96,56.12 L247.2,56.12 L247.2,61.08 L247.204211,61.272687 C247.254737,62.3975623 247.76,62.96 248.72,62.96 C248.906667,62.96 249.1,62.9333333 249.3,62.88 C249.5,62.8266667 249.673333,62.7733333 249.82,62.72 L249.82,62.72 L250.3,64.86 L250.070625,64.93 C249.831875,65 249.565,65.07 249.27,65.14 C248.876667,65.2333333 248.433333,65.28 247.94,65.28 C247.06,65.28 246.35,65.1033333 245.81,64.75 C245.27,64.3966667 244.876667,63.9033333 244.63,63.27 C244.383333,62.6366667 244.26,61.9066667 244.26,61.08 L244.26,61.08 L244.26,56.12 L242.68,56.12 L242.68,53.94 L244.42,53.8 L244.76,50.78 L247.2,50.78 Z M302.02,53.52 C302.326667,53.52 302.58,53.5433333 302.78,53.59 C302.98,53.6366667 303.166667,53.6933333 303.34,53.76 L303.34,53.76 L302.84,56.3 L302.643333,56.24 C302.514444,56.2044444 302.39,56.1777778 302.27,56.16 C302.09,56.1333333 301.886667,56.12 301.66,56.12 C301.22,56.12 300.76,56.2833333 300.28,56.61 C299.8,56.9366667 299.406667,57.5066667 299.1,58.32 L299.1,58.32 L299.1,65 L296.16,65 L296.16,53.8 L298.56,53.8 L298.78,55.78 L298.84,55.78 L298.998594,55.513125 C299.377031,54.909375 299.814167,54.4383333 300.31,54.1 C300.876667,53.7133333 301.446667,53.52 302.02,53.52 Z M240.7,53.8 L240.7,65 L237.76,65 L237.76,53.8 L240.7,53.8 Z M369.3,53.52 C370.513333,53.52 371.393333,53.9166667 371.94,54.71 C372.486667,55.5033333 372.76,56.6066667 372.76,58.02 L372.76,58.02 L372.76,65 L369.82,65 L369.82,58.38 L369.8162,58.1278 C369.7934,57.3946 369.668,56.872 369.44,56.56 C369.186667,56.2133333 368.786667,56.04 368.24,56.04 C367.786667,56.04 367.39,56.1466667 367.05,56.36 C366.71,56.5733333 366.333333,56.8866667 365.92,57.3 L365.92,57.3 L365.92,65 L362.98,65 L362.98,53.8 L365.38,53.8 L365.6,55.28 L365.66,55.28 L365.9616,55 C366.3712,54.6373333 366.810667,54.3173333 367.28,54.04 C367.866667,53.6933333 368.54,53.52 369.3,53.52 Z M317.64,53.52 C318.826667,53.52 319.703333,53.9166667 320.27,54.71 C320.836667,55.5033333 321.12,56.6066667 321.12,58.02 L321.12,58.02 L321.12,65 L318.18,65 L318.18,58.38 L318.1762,58.1278 C318.1534,57.3946 318.028,56.872 317.8,56.56 C317.546667,56.2133333 317.153333,56.04 316.62,56.04 C315.98,56.04 315.26,56.46 314.46,57.3 L314.46,57.3 L314.46,65 L311.54,65 L311.54,58.38 L311.536777,58.1500826 C311.515289,57.4051791 311.386364,56.8751515 311.15,56.56 C310.89,56.2133333 310.493333,56.04 309.96,56.04 C309.32,56.04 308.606667,56.46 307.82,57.3 L307.82,57.3 L307.82,65 L304.88,65 L304.88,53.8 L307.28,53.8 L307.5,55.3 L307.56,55.3 L307.8448,55.0128 C308.230933,54.6416 308.642667,54.3173333 309.08,54.04 C309.626667,53.6933333 310.266667,53.52 311,53.52 C311.8,53.52 312.446667,53.69 312.94,54.03 C313.433333,54.37 313.813333,54.8533333 314.08,55.48 C314.586667,54.9333333 315.123333,54.47 315.69,54.09 C316.256667,53.71 316.906667,53.52 317.64,53.52 Z M259.98,50.18 L259.98,65 L257.02,65 L257.02,50.18 L259.98,50.18 Z M269.7,53.52 C270.913333,53.52 271.793333,53.9166667 272.34,54.71 C272.886667,55.5033333 273.16,56.6066667 273.16,58.02 L273.16,58.02 L273.16,65 L270.22,65 L270.22,58.38 L270.2162,58.1278 C270.1934,57.3946 270.068,56.872 269.84,56.56 C269.586667,56.2133333 269.186667,56.04 268.64,56.04 C268.186667,56.04 267.79,56.1466667 267.45,56.36 C267.11,56.5733333 266.733333,56.8866667 266.32,57.3 L266.32,57.3 L266.32,65 L263.38,65 L263.38,53.8 L265.78,53.8 L266,55.28 L266.06,55.28 L266.3616,55 C266.7712,54.6373333 267.210667,54.3173333 267.68,54.04 C268.266667,53.6933333 268.94,53.52 269.7,53.52 Z M221.9,50.18 L221.9,52.66 L215.78,52.66 L215.78,56.08 L220.98,56.08 L220.98,58.56 L215.78,58.56 L215.78,62.52 L222.12,62.52 L222.12,65 L212.82,65 L212.82,50.18 L221.9,50.18 Z M347.32,53.8 L347.32,65 L344.38,65 L344.38,53.8 L347.32,53.8 Z M280.6,48.76 C281.026667,48.76 281.423333,48.8 281.79,48.88 C282.156667,48.96 282.466667,49.0466667 282.72,49.14 L282.72,49.14 L282.18,51.32 L281.99,51.2466667 C281.861111,51.2022222 281.727778,51.1666667 281.59,51.14 C281.383333,51.1 281.186667,51.08 281,51.08 C280.56,51.08 280.223333,51.2166667 279.99,51.49 C279.756667,51.7633333 279.64,52.2133333 279.64,52.84 L279.64,52.84 L279.64,53.8 L281.74,53.8 L281.74,56.12 L279.64,56.12 L279.64,65 L276.7,65 L276.7,56.12 L275.2,56.12 L275.2,53.94 L276.7,53.82 L276.7,52.9 L276.706094,52.6089062 C276.734531,51.9388021 276.8625,51.3325 277.09,50.79 C277.35,50.17 277.766667,49.6766667 278.34,49.31 C278.913333,48.9433333 279.666667,48.76 280.6,48.76 Z M426.98,62.94 L419,62.94 L419,64.32 L426.98,64.32 L426.98,62.94 Z M447.54,62.88 L444.24,62.88 L444.24,64.22 L447.54,64.22 L447.54,62.88 Z M441.98,62.88 L438.62,62.88 L438.62,64.22 L441.98,64.22 L441.98,62.88 Z M488.86,61.94 L482.4,61.94 L482.4,64.2 L488.86,64.2 L488.86,61.94 Z M467.2,62.28 L458.84,62.28 L458.84,64.08 L467.2,64.08 L467.2,62.28 Z M501.78,47.86 L504.66,48.22 L504.523333,48.5088889 C504.43,48.6985185 504.332222,48.8822222 504.23,49.06 C504.076667,49.3266667 503.933333,49.58 503.8,49.82 L503.8,49.82 L509.28,49.82 L509.28,59.62 L503.52,59.62 L503.835625,59.93625 C504.146875,60.25875 504.445,60.6 504.73,60.96 C505.11,61.44 505.406667,61.8733333 505.62,62.26 L505.62,62.26 L503.66,63.4 C503.526667,63.1066667 503.33,62.7733333 503.07,62.4 C502.81,62.0266667 502.523333,61.65 502.21,61.27 C501.896667,60.89 501.586667,60.5466667 501.28,60.24 L501.28,60.24 L502.4,59.62 L496.66,59.62 L496.66,49.82 L501.26,49.82 L501.415,49.3175 L501.415,49.3175 L501.56,48.81 C501.653333,48.47 501.726667,48.1533333 501.78,47.86 L501.78,47.86 Z M330.06,59.62 L329.772143,59.6585714 C328.552619,59.8319048 327.695238,60.0857143 327.2,60.42 C326.666667,60.78 326.4,61.2133333 326.4,61.72 C326.4,62.16 326.54,62.48 326.82,62.68 C327.1,62.88 327.453333,62.98 327.88,62.98 C328.306667,62.98 328.686667,62.8833333 329.02,62.69 C329.353333,62.4966667 329.7,62.2266667 330.06,61.88 L330.06,61.88 L330.06,59.62 Z M355.14,55.92 C354.38,55.92 353.793333,56.2366667 353.38,56.87 C352.966667,57.5033333 352.76,58.3466667 352.76,59.4 C352.76,60.4533333 352.966667,61.2966667 353.38,61.93 C353.793333,62.5633333 354.38,62.88 355.14,62.88 C355.9,62.88 356.486667,62.5633333 356.9,61.93 C357.313333,61.2966667 357.52,60.4533333 357.52,59.4 C357.52,58.3466667 357.313333,57.5033333 356.9,56.87 C356.486667,56.2366667 355.9,55.92 355.14,55.92 Z M288.32,55.92 C287.56,55.92 286.973333,56.2366667 286.56,56.87 C286.146667,57.5033333 285.94,58.3466667 285.94,59.4 C285.94,60.4533333 286.146667,61.2966667 286.56,61.93 C286.973333,62.5633333 287.56,62.88 288.32,62.88 C289.08,62.88 289.666667,62.5633333 290.08,61.93 C290.493333,61.2966667 290.7,60.4533333 290.7,59.4 C290.7,58.3466667 290.493333,57.5033333 290.08,56.87 C289.666667,56.2366667 289.08,55.92 288.32,55.92 Z M229.58,55.94 C228.953333,55.94 228.41,56.2333333 227.95,56.82 C227.49,57.4066667 227.26,58.26 227.26,59.38 C227.26,60.54 227.463333,61.41 227.87,61.99 C228.276667,62.57 228.846667,62.86 229.58,62.86 C229.966667,62.86 230.33,62.77 230.67,62.59 C231.01,62.41 231.346667,62.1133333 231.68,61.7 L231.68,61.7 L231.68,56.78 L231.512222,56.6341667 C231.230741,56.4036111 230.94,56.2355556 230.64,56.13 C230.28,56.0033333 229.926667,55.94 229.58,55.94 Z M441.98,59.92 L438.62,59.92 L438.62,61.16 L441.98,61.16 L441.98,59.92 Z M447.54,59.92 L444.24,59.92 L444.24,61.16 L447.54,61.16 L447.54,59.92 Z M419.84,47.96 L420.006875,48.158125 C420.170625,48.364375 420.325,48.595 420.47,48.85 C420.663333,49.19 420.806667,49.4933333 420.9,49.76 L420.9,49.76 L419.68,50.18 L424.98,50.18 L425.165556,49.8266667 C425.288519,49.5866667 425.41,49.3377778 425.53,49.08 C425.71,48.6933333 425.846667,48.34 425.94,48.02 L425.94,48.02 L428.46,48.42 L428.297778,48.7455556 C428.188148,48.9574074 428.075556,49.1588889 427.96,49.35 C427.786667,49.6366667 427.613333,49.9133333 427.44,50.18 L427.44,50.18 L430.86,50.18 L430.86,51.9 L424.18,51.9 L424.18,52.64 L429.58,52.64 L429.58,54.32 L424.18,54.32 L424.18,55.12 L431.46,55.12 L431.46,56.86 L427.78,56.86 L429.4,57.1 L429.27,57.3622222 C429.185556,57.5340741 429.105556,57.7 429.03,57.86 C428.916667,58.1 428.806667,58.3266667 428.7,58.54 L428.7,58.54 L432.08,58.54 L432.08,60.38 L413.94,60.38 L413.94,58.54 L417.44,58.54 L417.3296,58.2552 C417.173867,57.8797333 416.984,57.5213333 416.76,57.18 L416.76,57.18 L418.28,56.86 L414.6,56.86 L414.6,55.12 L421.72,55.12 L421.72,54.32 L416.46,54.32 L416.46,52.64 L421.72,52.64 L421.72,51.9 L415.16,51.9 L415.16,50.18 L418.54,50.18 L418.46375,49.979375 C418.38125,49.778125 418.28,49.575 418.16,49.37 C418,49.0966667 417.84,48.84 417.68,48.6 L417.68,48.6 L419.84,47.96 Z M490.7,57.06 L490.7,58.92 L480.68,58.92 L480.68,57.06 L490.7,57.06 Z M469.44,57.04 L469.44,58.9 L456.74,58.9 L456.74,57.04 L469.44,57.04 Z M426.92,56.86 L419.06,56.86 L419.227778,57.0933333 C419.335926,57.2533333 419.436667,57.4222222 419.53,57.6 C419.67,57.8666667 419.773333,58.1133333 419.84,58.34 L419.84,58.34 L419.02,58.54 L426.28,58.54 C426.4,58.26 426.52,57.9733333 426.64,57.68 C426.76,57.3866667 426.853333,57.1133333 426.92,56.86 L426.92,56.86 Z M506.86,56.88 L498.96,56.88 L498.96,57.82 L506.86,57.82 L506.86,56.88 Z M440.78,47.94 L442.3,49.7 L441.862,49.8572 C441.27,50.0630667 440.646,50.254 439.99,50.43 C439.17,50.65 438.346667,50.84 437.52,51 L437.52,51 L437.52,54.48 L439.58,54 L439.3725,53.54 L439.3725,53.54 L439.15,53.08 C438.996667,52.7733333 438.84,52.4866667 438.68,52.22 L438.68,52.22 L440.6,51.46 L440.8236,51.8348 C441.1212,52.3436 441.416667,52.8886667 441.71,53.47 C442.076667,54.1966667 442.366667,54.8666667 442.58,55.48 C443.38,54.9333333 443.94,54.29 444.26,53.55 C444.58,52.81 444.786667,51.9733333 444.88,51.04 L444.88,51.04 L443,51.04 L443,49 L451.6,49 L451.6,49.33 L451.59875,49.488125 C451.59625,49.639375 451.59,49.77 451.58,49.88 C451.526667,51.2933333 451.463333,52.45 451.39,53.35 C451.316667,54.25 451.223333,54.9433333 451.11,55.43 C450.996667,55.9166667 450.853333,56.2666667 450.68,56.48 C450.493333,56.7333333 450.283333,56.9133333 450.05,57.02 C449.816667,57.1266667 449.553333,57.2 449.26,57.24 C449.006667,57.28 448.676667,57.3 448.27,57.3 C447.863333,57.3 447.426667,57.2933333 446.96,57.28 C446.946667,56.96 446.883333,56.6066667 446.77,56.22 C446.656667,55.8333333 446.513333,55.5066667 446.34,55.24 C447.14,55.3066667 447.726667,55.3266667 448.1,55.3 C448.233333,55.3 448.346667,55.2866667 448.44,55.26 C448.533333,55.2333333 448.62,55.1733333 448.7,55.08 C448.833333,54.92 448.946667,54.54 449.04,53.94 C449.133333,53.34 449.206667,52.3733333 449.26,51.04 L449.26,51.04 L447.08,51.04 L447.02,51.5208333 C446.908889,52.3125 446.742222,53.0555556 446.52,53.75 C446.253333,54.5833333 445.846667,55.3266667 445.3,55.98 C444.753333,56.6333333 443.993333,57.2 443.02,57.68 C442.926667,57.4666667 442.786667,57.23 442.6,56.97 C442.413333,56.71 442.22,56.48 442.02,56.28 L442.02,56.28 L440.66,56.82 L440.63,56.6844444 C440.607778,56.5925926 440.581111,56.4977778 440.55,56.4 C440.503333,56.2533333 440.453333,56.1 440.4,55.94 C439.466667,56.1666667 438.706667,56.36 438.12,56.52 C437.533333,56.68 437.073333,56.8133333 436.74,56.92 C436.406667,57.0266667 436.15,57.1166667 435.97,57.19 C435.79,57.2633333 435.646667,57.34 435.54,57.42 C435.42,57.1666667 435.23,56.8633333 434.97,56.51 C434.71,56.1566667 434.486667,55.8933333 434.3,55.72 C434.513333,55.5333333 434.713333,55.2633333 434.9,54.91 C435.086667,54.5566667 435.18,54.1266667 435.18,53.62 L435.18,53.62 L435.18,49.64 L435.848889,49.4866667 C436.296296,49.38 436.746667,49.2644444 437.2,49.14 C437.88,48.9533333 438.53,48.7566667 439.15,48.55 C439.77,48.3433333 440.313333,48.14 440.78,47.94 L440.78,47.94 Z M408.08,53.84 L408.08,56.04 L397.76,56.04 L397.76,53.84 L408.08,53.84 Z M490.7,54.16 L490.7,56.02 L480.68,56.02 L480.68,54.16 L490.7,54.16 Z M469.44,53.94 L469.44,55.8 L456.74,55.8 L456.74,53.94 L469.44,53.94 Z M506.86,54.26 L498.96,54.26 L498.96,55.18 L506.86,55.18 L506.86,54.26 Z M403.52,47.84 L403.718889,48.1955556 C403.850741,48.4385185 403.981111,48.6933333 404.11,48.96 C404.303333,49.36 404.466667,49.7466667 404.6,50.12 L404.6,50.12 L411.5,50.12 L411.5,55.08 L409,55.08 L409,52.4 L396.82,52.4 L396.82,55.08 L394.46,55.08 L394.46,50.12 L401.76,50.12 L401.662222,49.8533333 C401.594074,49.6755556 401.52,49.4977778 401.44,49.32 C401.32,49.0533333 401.2,48.8 401.08,48.56 L401.08,48.56 L403.52,47.84 Z M485.78,48.02 L485.99,48.3375 C486.2,48.6625 486.41,49.01 486.62,49.38 C486.9,49.8733333 487.106667,50.3 487.24,50.66 L487.24,50.66 L486.1,51.16 L492.16,51.16 L492.16,53.1 L479.28,53.1 L479.28,51.16 L485,51.16 L484.8825,50.875 C484.7575,50.585 484.61,50.28 484.44,49.96 C484.213333,49.5333333 483.986667,49.14 483.76,48.78 L483.76,48.78 L485.78,48.02 Z M463.28,47.94 L463.53625,48.268125 C463.78875,48.604375 464.03,48.965 464.26,49.35 C464.566667,49.8633333 464.806667,50.3333333 464.98,50.76 L464.98,50.76 L472.1,50.76 L472.1,52.76 L453.96,52.76 L453.96,50.76 L462.18,50.76 L462.053125,50.486875 C461.919375,50.210625 461.765,49.925 461.59,49.63 C461.356667,49.2366667 461.12,48.8733333 460.88,48.54 L460.88,48.54 L463.28,47.94 Z M506.86,51.64 L498.96,51.64 L498.96,52.56 L506.86,52.56 L506.86,51.64 Z M239.24,48.78 C239.746667,48.78 240.156667,48.9266667 240.47,49.22 C240.783333,49.5133333 240.94,49.9 240.94,50.38 C240.94,50.8733333 240.783333,51.2666667 240.47,51.56 C240.156667,51.8533333 239.746667,52 239.24,52 C238.733333,52 238.32,51.8533333 238,51.56 C237.68,51.2666667 237.52,50.8733333 237.52,50.38 C237.52,49.9 237.68,49.5133333 238,49.22 C238.32,48.9266667 238.733333,48.78 239.24,48.78 Z M345.86,48.78 C346.366667,48.78 346.776667,48.9266667 347.09,49.22 C347.403333,49.5133333 347.56,49.9 347.56,50.38 C347.56,50.8733333 347.403333,51.2666667 347.09,51.56 C346.776667,51.8533333 346.366667,52 345.86,52 C345.353333,52 344.94,51.8533333 344.62,51.56 C344.3,51.2666667 344.14,50.8733333 344.14,50.38 C344.14,49.9 344.3,49.5133333 344.62,49.22 C344.94,48.9266667 345.353333,48.78 345.86,48.78 Z" id="完善留言信息"></path>
        </g>
    </g>
</svg>